{"glyphs":{"0":{"ha":893,"x_min":68,"x_max":844,"o":"m 511 978 q 806 863 729 978 q 844 469 883 749 q 708 87 804 193 q 400 -19 613 -19 q 108 96 189 -19 q 68 489 28 211 q 203 871 107 764 q 511 978 300 978 m 500 779 q 410 756 442 779 q 359 671 379 733 q 322 479 339 608 q 313 234 297 289 q 411 179 329 179 q 531 235 497 179 q 589 479 565 292 q 603 669 608 603 q 577 758 599 736 q 500 779 556 779 z "},"1":{"ha":626,"x_min":67,"x_max":590,"o":"m 456 0 l 196 0 l 289 639 q 313 753 300 714 l 86 699 l 67 860 l 338 958 l 590 958 l 456 0 z "},"2":{"ha":808,"x_min":-7,"x_max":776,"o":"m 124 750 l 128 944 q 456 975 297 975 q 713 924 635 975 q 776 733 792 874 q 730 591 768 656 q 599 444 692 526 l 332 207 q 468 225 393 225 l 735 225 l 704 0 l -7 0 l 13 140 q 56 244 24 211 l 304 465 q 467 623 426 578 q 515 708 507 668 q 502 747 521 738 q 432 757 483 757 q 124 750 256 757 z "},"3":{"ha":786,"x_min":-1,"x_max":750,"o":"m 135 771 l 135 953 q 442 978 306 978 q 686 925 613 978 q 750 744 760 872 q 699 586 743 653 q 565 510 654 519 l 564 504 q 715 278 742 479 q 597 55 696 128 q 307 -19 499 -18 q -1 8 169 -19 l 17 193 q 272 186 168 185 q 461 311 439 189 q 451 390 471 365 q 368 415 431 414 l 174 415 l 194 579 l 383 579 q 475 606 450 579 q 504 693 500 633 q 490 757 508 740 q 401 774 472 774 q 135 771 276 774 z "},"4":{"ha":893,"x_min":22,"x_max":856,"o":"m 856 375 l 836 226 l 732 201 l 728 201 l 699 0 l 461 0 l 489 201 l 125 201 q 22 251 53 201 q 24 358 -8 301 l 347 958 l 596 958 l 308 410 q 319 375 288 375 l 513 375 l 546 621 l 608 771 l 807 771 l 751 375 l 856 375 z "},"5":{"ha":768,"x_min":-6,"x_max":768,"o":"m 732 767 l 358 767 l 328 625 l 442 613 q 663 508 603 592 q 708 310 724 425 q 314 -17 665 1 q -6 11 194 -24 l 29 207 q 264 196 169 190 q 397 231 353 200 q 453 328 442 261 q 433 397 461 378 q 318 425 404 415 l 172 444 q 110 478 132 450 q 96 546 89 507 l 178 958 l 768 958 l 732 767 z "},"6":{"ha":826,"x_min":68,"x_max":788,"o":"m 788 946 l 768 786 q 543 788 692 788 q 401 747 442 788 q 335 572 361 706 q 524 632 422 632 q 738 560 679 632 q 772 325 796 489 q 658 63 746 142 q 378 -17 571 -17 q 95 91 163 -17 q 68 479 28 199 q 128 740 92 640 q 224 890 164 839 q 351 958 283 942 q 526 975 418 975 q 788 946 661 975 m 529 339 q 526 434 540 413 q 451 456 511 456 q 306 404 382 456 q 296 213 282 253 q 389 172 310 172 q 489 208 463 172 q 529 339 515 243 z "},"7":{"ha":749,"x_min":85,"x_max":788,"o":"m 101 958 l 693 958 q 787 921 763 958 q 783 826 811 883 l 374 0 l 117 0 l 440 653 q 506 750 467 706 l 85 750 l 101 958 z "},"8":{"ha":869,"x_min":33,"x_max":824,"o":"m 242 496 l 243 501 q 125 729 99 522 q 222 919 143 863 q 493 976 301 976 q 772 913 699 976 q 824 710 844 849 q 644 500 796 518 l 643 494 q 781 229 817 475 q 681 36 761 92 q 397 -19 601 -19 q 98 45 179 -19 q 33 249 17 110 q 242 496 60 482 m 580 781 q 570 791 580 781 q 489 801 561 801 q 390 778 417 801 q 354 676 364 754 q 366 599 347 618 q 458 581 385 581 q 554 603 529 581 q 589 696 579 625 q 580 781 599 761 m 431 414 q 324 389 354 414 q 283 279 293 364 q 298 192 275 214 q 401 169 321 169 q 506 194 476 169 q 544 299 535 219 q 533 392 554 371 q 431 414 511 414 z "},"9":{"ha":828,"x_min":35,"x_max":796,"o":"m 35 11 l 54 174 q 306 172 135 172 q 448 219 404 174 q 515 386 492 265 q 319 324 435 324 q 204 343 253 324 q 131 394 156 363 q 90 467 106 426 q 76 553 75 508 q 81 640 76 597 q 135 837 97 768 q 253 940 172 906 q 475 974 333 974 q 623 959 564 974 q 722 911 682 944 q 779 819 763 878 q 796 678 796 760 q 779 476 796 596 q 725 232 758 326 q 635 81 692 138 q 505 3 579 25 q 318 -18 431 -18 q 35 11 161 -18 m 318 647 q 324 531 310 561 q 394 500 339 500 q 540 549 472 500 q 553 700 556 647 q 531 769 551 753 q 453 785 510 785 q 355 757 382 785 q 318 647 328 729 z "}," ":{"ha":296,"x_min":0,"x_max":0,"o":""},"!":{"ha":436,"x_min":58,"x_max":421,"o":"m 374 618 l 304 310 l 107 310 l 124 618 l 171 965 l 421 965 l 374 618 m 163 236 l 214 236 q 281 212 258 236 q 296 143 303 188 l 288 82 q 192 0 278 0 l 142 0 q 58 92 46 0 l 65 154 q 163 236 78 236 z "},"\"":{"ha":535,"x_min":107,"x_max":551,"o":"m 256 646 l 107 646 l 136 958 l 314 958 l 256 646 m 493 646 l 344 646 l 374 958 l 551 958 l 493 646 z "},"#":{"ha":1011,"x_min":15,"x_max":1019,"o":"m 817 575 l 764 411 l 918 411 l 867 263 l 718 263 l 635 0 l 444 0 l 528 263 l 369 263 l 286 0 l 96 0 l 179 263 l 15 263 l 67 411 l 225 411 l 278 575 l 118 575 l 168 724 l 324 724 l 397 958 l 588 958 l 514 724 l 672 724 l 746 958 l 936 958 l 863 724 l 1019 724 l 969 575 l 817 575 m 626 575 l 468 575 l 415 411 l 574 411 l 626 575 z "},"$":{"ha":803,"x_min":10,"x_max":801,"o":"m 801 932 l 776 763 q 463 767 531 767 q 378 756 401 767 q 349 703 354 744 q 356 656 343 672 q 414 621 368 640 l 574 549 q 718 433 683 499 q 740 257 753 368 q 644 42 722 100 q 383 -18 567 -15 l 350 -157 l 163 -157 l 197 -8 q 10 25 106 0 l 36 208 q 346 201 307 201 q 448 215 421 201 q 482 268 475 228 q 476 314 488 299 q 429 343 464 329 l 257 424 q 113 544 149 475 q 90 713 78 613 q 191 917 108 860 q 446 976 274 974 l 479 1100 l 667 1100 l 632 968 q 801 932 721 957 z "},"%":{"ha":1269,"x_min":76,"x_max":1213,"o":"m 346 978 q 537 912 485 978 q 567 682 589 846 q 486 465 544 524 q 294 406 428 406 q 106 472 158 406 q 76 701 54 539 q 157 919 99 860 q 346 978 215 978 m 382 0 l 219 0 l 904 958 l 1065 958 l 382 0 m 343 843 q 287 814 301 843 q 260 682 272 785 q 254 566 247 592 q 299 540 261 540 q 356 569 340 540 q 383 701 371 599 q 387 817 394 792 q 343 843 379 843 m 992 553 q 1183 487 1131 553 q 1213 258 1235 421 q 1132 41 1190 100 q 940 -18 1074 -18 q 751 48 803 -18 q 722 276 700 114 q 803 494 744 435 q 992 553 861 553 m 989 418 q 933 390 947 418 q 906 258 918 361 q 899 142 892 168 q 944 117 907 117 q 1001 145 986 117 q 1029 276 1017 174 q 1033 392 1040 367 q 989 418 1025 418 z "},"&":{"ha":1047,"x_min":32,"x_max":1042,"o":"m 1018 410 l 907 410 q 851 240 888 314 q 357 -18 725 -18 q 92 48 169 -18 q 32 254 15 114 q 99 424 44 360 q 251 493 153 488 l 253 501 q 146 574 181 507 q 128 732 111 640 q 174 860 142 810 q 261 935 207 910 q 374 968 315 960 q 519 976 432 976 q 758 944 656 976 l 718 772 q 528 790 618 790 q 421 770 450 790 q 382 683 392 750 q 393 597 374 619 q 469 574 413 574 l 714 574 q 719 704 719 628 l 931 704 q 926 574 931 639 l 1042 574 l 1018 410 m 689 410 l 446 410 q 350 383 382 410 q 310 288 318 357 q 326 206 303 229 q 415 183 350 183 q 653 317 583 183 q 689 410 676 357 z "},"'":{"ha":297,"x_min":107,"x_max":314,"o":"m 256 646 l 107 646 l 136 958 l 314 958 l 256 646 z "},"(":{"ha":513,"x_min":49,"x_max":583,"o":"m 554 1099 l 583 988 q 290 425 356 896 q 284 76 256 221 q 417 -121 313 -69 l 385 -224 q 92 3 174 -161 q 49 443 10 167 q 209 879 89 721 q 554 1099 329 1038 z "},")":{"ha":513,"x_min":-64,"x_max":472,"o":"m 106 989 l 136 1093 q 429 868 347 1032 q 472 424 511 704 q 311 -10 432 147 q -33 -231 190 -168 l -64 -119 q 231 444 164 -22 q 238 798 265 654 q 106 989 210 942 z "},"*":{"ha":632,"x_min":88,"x_max":636,"o":"m 410 722 l 538 543 l 424 463 l 354 629 l 238 463 l 135 543 l 314 721 l 325 961 l 464 961 l 410 722 m 294 789 l 290 729 l 253 694 l 88 729 l 142 860 l 294 789 m 636 726 l 465 690 l 435 728 l 447 788 l 610 858 l 636 726 z "},"+":{"ha":732,"x_min":33,"x_max":703,"o":"m 676 326 l 447 326 l 415 101 l 231 101 l 263 326 l 33 326 l 61 513 l 289 513 l 321 739 l 507 739 l 475 513 l 703 513 l 676 326 z "},",":{"ha":349,"x_min":13,"x_max":253,"o":"m 125 236 l 172 236 q 241 215 222 236 q 253 143 260 193 l 240 54 q 199 -90 231 -14 q 126 -219 167 -167 l 21 -181 q 78 4 50 -108 q 24 22 39 3 q 13 82 8 42 l 22 150 q 53 217 31 199 q 125 236 76 236 z "},"-":{"ha":550,"x_min":53,"x_max":483,"o":"m 461 279 l 53 279 l 75 432 l 483 432 l 461 279 z "},".":{"ha":346,"x_min":13,"x_max":254,"o":"m 118 236 l 171 236 q 239 212 217 236 q 254 143 261 188 l 246 82 q 150 0 236 0 l 96 0 q 13 92 1 0 l 21 154 q 118 236 33 236 z "},"/":{"ha":806,"x_min":-44,"x_max":856,"o":"m 160 -106 l -44 -106 l 650 958 l 856 958 l 160 -106 z "},":":{"ha":371,"x_min":4,"x_max":303,"o":"m 165 635 l 219 635 q 286 611 264 635 q 303 543 308 588 l 293 482 q 197 399 283 399 l 144 399 q 60 492 49 399 l 68 553 q 165 635 81 635 m 110 238 l 163 238 q 230 213 207 238 q 246 144 253 189 l 238 83 q 142 1 228 1 l 88 1 q 4 93 -7 1 l 13 154 q 110 238 25 238 z "},";":{"ha":371,"x_min":25,"x_max":322,"o":"m 186 635 l 239 635 q 306 611 283 635 q 322 543 328 588 l 314 482 q 218 399 304 399 l 164 399 q 81 492 68 399 l 89 553 q 186 635 101 635 m 138 236 l 185 236 q 253 215 235 236 q 265 143 272 193 l 253 54 q 211 -90 243 -14 q 139 -219 179 -167 l 33 -181 q 90 4 63 -108 q 36 22 51 3 q 25 82 21 42 l 35 150 q 66 217 43 199 q 138 236 89 236 z "},"<":{"ha":706,"x_min":32,"x_max":683,"o":"m 657 538 l 258 421 l 621 293 l 596 100 l 32 322 l 58 517 l 683 740 l 657 538 z "},"=":{"ha":799,"x_min":40,"x_max":760,"o":"m 733 469 l 82 469 l 108 654 l 760 654 l 733 469 m 692 175 l 40 175 l 68 360 l 719 360 l 692 175 z "},">":{"ha":703,"x_min":26,"x_max":675,"o":"m 675 517 l 649 322 l 26 99 l 54 300 l 449 428 l 90 556 l 114 740 l 675 517 z "},"?":{"ha":735,"x_min":107,"x_max":747,"o":"m 107 785 l 107 953 q 140 959 115 954 q 170 965 164 964 q 198 970 176 967 q 228 975 219 974 q 256 979 236 976 q 289 983 276 982 q 322 985 301 983 q 363 988 343 988 q 406 988 382 988 q 458 989 431 989 q 690 933 617 989 q 747 764 763 878 q 710 664 739 710 q 641 583 681 618 q 561 512 601 547 q 485 425 521 476 q 432 311 449 374 l 232 311 q 274 457 239 388 q 347 567 308 526 q 422 651 385 608 q 468 721 460 694 q 465 774 481 761 q 397 788 449 788 q 107 785 299 788 m 294 236 l 344 236 q 413 212 390 236 q 429 143 435 188 l 419 82 q 325 0 410 0 l 274 0 q 189 92 178 0 l 199 153 q 294 236 208 236 z "},"@":{"ha":1128,"x_min":49,"x_max":1085,"o":"m 118 733 l 131 894 q 596 908 339 906 q 788 904 713 910 q 925 880 863 899 q 1019 831 988 861 q 1068 746 1050 800 q 1085 621 1086 692 q 1068 444 1083 550 q 1042 286 1054 347 q 1010 168 1031 225 q 965 80 990 111 q 899 25 939 49 q 808 -8 860 1 q 682 -17 756 -17 q 461 111 504 -17 q 242 -17 371 -17 q 49 321 -7 -17 q 94 485 65 421 q 169 580 124 549 q 263 622 215 611 q 385 632 311 632 q 742 593 521 632 l 681 206 q 713 154 674 154 q 797 206 775 154 q 849 451 818 258 q 849 456 847 454 q 863 547 858 511 q 865 615 868 583 q 860 665 863 647 q 838 697 857 682 q 806 718 819 713 q 753 728 792 724 q 684 733 714 732 q 593 733 654 733 l 118 733 m 494 469 l 419 471 q 322 444 351 471 q 275 311 293 417 q 272 192 263 214 q 322 169 281 169 q 393 197 361 169 q 464 286 425 225 l 494 469 z "},"A":{"ha":922,"x_min":-62,"x_max":874,"o":"m 590 224 l 297 224 l 210 0 l -62 0 l 322 896 q 415 958 349 958 l 654 958 q 710 938 686 958 q 738 886 735 917 l 874 0 l 613 0 l 590 224 m 569 421 l 544 665 q 540 765 540 699 l 500 765 q 471 667 488 714 l 374 421 l 569 421 z "},"B":{"ha":899,"x_min":26,"x_max":854,"o":"m 26 0 l 161 958 q 533 969 292 969 q 799 913 725 969 q 854 710 874 857 q 797 558 840 607 q 658 500 753 508 l 657 493 q 829 229 864 475 q 729 39 808 89 q 469 -11 650 -11 q 26 0 174 -11 m 363 579 l 479 579 q 570 601 544 579 q 606 693 596 624 q 596 764 613 746 q 525 782 579 782 l 392 783 l 363 579 m 306 176 l 421 176 q 529 201 500 176 q 569 300 558 225 q 560 392 579 369 q 474 414 540 414 l 339 414 l 306 176 z "},"C":{"ha":825,"x_min":65,"x_max":842,"o":"m 739 217 l 749 25 q 428 -17 614 -17 q 110 99 194 -17 q 65 489 26 214 q 206 873 104 771 q 540 975 307 975 q 842 939 714 975 l 811 749 q 528 753 665 753 q 433 733 465 753 q 377 653 400 714 q 338 469 354 593 q 333 258 314 311 q 439 206 351 206 q 739 217 622 206 z "},"D":{"ha":958,"x_min":26,"x_max":914,"o":"m 26 0 l 161 958 q 529 972 332 972 q 781 928 690 972 q 906 774 871 885 q 914 469 940 663 q 859 226 892 318 q 767 79 826 133 q 628 6 707 25 q 425 -14 550 -14 q 26 0 228 -14 m 313 183 l 422 182 q 528 204 490 182 q 595 293 567 226 q 640 489 624 360 q 642 724 664 669 q 521 778 619 778 l 396 776 l 313 183 z "},"E":{"ha":806,"x_min":53,"x_max":828,"o":"m 797 760 l 453 760 q 399 746 415 760 q 378 696 382 732 l 363 582 l 722 582 l 700 404 l 338 404 l 318 260 q 326 213 313 228 q 374 199 339 199 l 717 199 l 711 10 q 267 -4 593 -4 q 93 63 149 -4 q 53 242 38 129 l 125 761 q 200 909 139 856 q 364 963 261 963 q 828 946 700 963 l 797 760 z "},"F":{"ha":778,"x_min":24,"x_max":821,"o":"m 792 760 l 464 760 q 405 747 422 760 q 382 696 388 733 l 364 563 l 713 563 l 689 386 l 339 386 l 285 0 l 24 0 l 129 760 q 206 909 143 856 q 367 963 269 963 q 821 944 696 963 l 792 760 z "},"G":{"ha":914,"x_min":67,"x_max":883,"o":"m 625 553 l 874 553 l 796 0 l 606 0 l 596 114 q 313 -19 468 -19 q 67 489 -1 -19 q 125 734 88 639 q 227 883 163 829 q 373 958 292 938 q 575 978 454 978 q 883 939 749 978 l 853 751 q 565 756 706 756 q 408 698 454 756 q 338 469 363 640 q 335 258 317 313 q 429 204 353 204 q 496 215 465 204 q 542 238 526 226 q 585 271 557 249 l 625 553 z "},"H":{"ha":965,"x_min":26,"x_max":960,"o":"m 960 958 l 825 0 l 564 0 l 622 413 l 346 413 l 288 0 l 26 0 l 161 958 l 422 958 l 374 604 l 649 604 l 699 958 l 960 958 z "},"I":{"ha":428,"x_min":26,"x_max":422,"o":"m 288 0 l 26 0 l 161 958 l 422 958 l 288 0 z "},"J":{"ha":529,"x_min":-28,"x_max":526,"o":"m 526 958 l 419 183 q 341 34 406 86 q 175 -18 276 -18 q 61 -8 122 -18 q -28 17 0 1 l 14 182 l 68 182 q 164 247 156 182 l 267 958 l 526 958 z "},"K":{"ha":904,"x_min":26,"x_max":972,"o":"m 599 483 l 597 476 q 667 385 638 454 l 849 0 l 565 0 l 394 410 l 335 410 q 333 315 339 357 l 289 0 l 26 0 l 161 958 l 424 958 l 385 686 q 363 585 378 633 l 424 585 l 679 958 l 972 958 l 690 561 q 599 483 656 507 z "},"L":{"ha":751,"x_min":54,"x_max":696,"o":"m 418 958 l 318 271 q 327 223 315 238 q 374 208 339 208 l 696 208 l 690 11 q 257 -4 565 -4 q 97 57 154 -4 q 54 218 40 118 l 157 958 l 418 958 z "},"M":{"ha":1292,"x_min":10,"x_max":1254,"o":"m 928 958 l 1167 958 q 1236 932 1213 958 q 1254 861 1260 906 l 1168 0 l 929 0 l 1008 760 l 988 760 l 796 219 q 689 143 772 143 l 543 143 q 476 166 500 143 q 449 229 451 189 l 403 760 l 381 760 l 249 0 l 10 0 l 167 871 q 197 938 175 917 q 264 958 219 958 l 494 958 q 559 935 535 958 q 585 872 583 913 l 619 447 q 621 307 624 401 l 638 307 q 676 444 650 361 l 822 881 q 928 958 843 958 z "},"N":{"ha":1006,"x_min":26,"x_max":1000,"o":"m 1000 958 l 878 86 q 849 21 871 42 q 782 0 826 0 l 674 0 q 617 19 636 0 q 579 81 599 38 l 404 493 q 358 644 379 547 l 346 644 q 338 479 347 564 l 268 0 l 26 0 l 149 872 q 244 958 161 958 l 353 958 q 408 940 390 958 q 446 878 426 921 l 618 482 q 672 321 653 403 l 686 321 q 692 481 681 397 l 758 958 l 1000 958 z "},"O":{"ha":960,"x_min":65,"x_max":917,"o":"m 539 978 q 865 866 775 978 q 917 469 956 754 q 862 229 897 324 q 767 79 826 135 q 631 2 708 24 q 439 -19 554 -19 q 113 91 199 -19 q 65 489 26 201 q 208 874 104 771 q 539 978 313 978 m 535 778 q 405 717 443 778 q 338 469 367 657 q 334 238 313 294 q 444 181 356 181 q 576 241 538 181 q 643 489 615 301 q 647 722 668 667 q 535 778 625 778 z "},"P":{"ha":868,"x_min":26,"x_max":869,"o":"m 26 0 l 161 958 q 532 972 294 972 q 818 900 742 972 q 869 642 894 828 q 765 395 844 458 q 500 332 686 332 q 333 343 419 332 l 286 0 l 26 0 m 360 522 l 479 522 q 574 547 549 522 q 613 661 600 572 q 604 757 622 732 q 525 782 586 782 l 396 781 l 360 522 z "},"Q":{"ha":960,"x_min":65,"x_max":917,"o":"m 539 978 q 865 866 775 978 q 917 469 956 754 q 862 229 897 324 q 767 79 826 135 q 631 2 708 24 q 439 -19 554 -19 q 113 91 199 -19 q 65 489 26 201 q 208 874 104 771 q 539 978 313 978 m 535 778 q 405 717 443 778 q 338 469 367 657 q 334 238 313 294 q 444 181 356 181 q 576 241 538 181 q 643 489 615 301 q 647 722 668 667 q 535 778 625 778 m 258 -172 l 335 -43 q 760 -146 490 -104 l 664 -364 q 258 -172 422 -294 z "},"R":{"ha":911,"x_min":26,"x_max":883,"o":"m 26 0 l 161 958 q 533 972 294 972 q 817 904 729 972 q 883 674 906 836 q 822 519 871 576 q 668 451 774 463 l 667 442 q 788 292 772 424 l 829 0 l 561 0 l 528 293 q 511 348 525 335 q 461 361 497 361 l 332 361 l 281 0 l 26 0 m 358 551 l 483 551 q 583 576 554 551 q 624 676 613 601 q 612 760 632 738 q 529 782 592 782 l 390 781 l 358 551 z "},"S":{"ha":821,"x_min":13,"x_max":815,"o":"m 442 343 l 264 424 q 117 543 154 474 q 93 713 81 613 q 203 921 113 865 q 486 976 293 976 q 815 932 676 976 l 792 763 q 474 767 542 767 q 383 756 408 767 q 351 703 358 744 q 359 656 346 672 q 419 621 372 640 l 585 549 q 733 434 697 500 q 756 257 768 368 q 653 39 736 96 q 367 -18 569 -18 q 13 25 188 -18 l 38 208 q 354 201 318 201 q 462 215 432 201 q 499 268 492 228 q 492 313 504 299 q 442 343 481 326 z "},"T":{"ha":843,"x_min":67,"x_max":903,"o":"m 875 757 l 601 757 l 494 0 l 233 0 l 340 757 l 67 757 l 94 958 l 903 958 l 875 757 z "},"U":{"ha":958,"x_min":72,"x_max":961,"o":"m 961 958 l 878 385 q 750 69 846 158 q 439 -19 654 -19 q 133 78 224 -19 q 72 394 43 175 l 153 958 l 414 958 l 332 385 q 336 223 314 265 q 443 181 358 181 q 565 225 531 181 q 619 394 600 269 l 700 958 l 961 958 z "},"V":{"ha":903,"x_min":79,"x_max":978,"o":"m 978 958 l 607 65 q 514 0 581 0 l 283 0 q 227 22 250 0 q 200 75 204 43 l 79 958 l 342 958 l 394 311 q 397 192 399 246 l 433 192 q 468 308 444 243 l 704 958 l 978 958 z "},"W":{"ha":1364,"x_min":106,"x_max":1410,"o":"m 1410 958 l 1151 65 q 1058 0 1132 0 l 829 0 q 769 22 796 0 q 742 76 743 44 l 742 638 q 746 772 746 765 l 719 772 q 690 639 704 692 l 529 67 q 436 0 510 0 l 203 0 q 142 22 168 0 q 118 75 117 44 l 106 958 l 364 958 l 343 331 q 339 255 342 306 q 335 181 336 204 l 361 181 q 400 342 379 271 l 557 885 q 651 958 576 958 l 847 958 q 905 935 882 958 q 929 875 928 911 l 940 329 q 940 181 943 254 l 967 181 q 999 338 979 264 l 1151 958 l 1410 958 z "},"X":{"ha":913,"x_min":-56,"x_max":969,"o":"m 681 490 l 850 0 l 592 0 l 469 417 l 225 0 l -56 0 l 256 490 l 103 958 l 357 958 l 468 569 l 472 569 l 701 958 l 969 958 l 681 490 z "},"Y":{"ha":874,"x_min":69,"x_max":958,"o":"m 550 301 l 508 0 l 246 0 l 290 314 l 69 958 l 331 958 l 419 629 q 433 497 433 567 l 451 497 q 496 629 460 556 l 679 958 l 958 958 l 550 301 z "},"Z":{"ha":818,"x_min":-10,"x_max":838,"o":"m 811 769 l 315 189 l 742 189 l 715 0 l -10 0 l 15 189 l 513 769 l 111 769 l 138 958 l 838 958 l 811 769 z "},"[":{"ha":493,"x_min":22,"x_max":547,"o":"m 526 911 l 438 911 q 396 878 401 911 l 265 -46 q 289 -74 264 -74 l 388 -74 l 365 -229 l 138 -229 q 22 -99 6 -229 l 169 946 q 214 1035 178 1003 q 306 1067 250 1067 l 547 1067 l 526 911 z "},"\\":{"ha":783,"x_min":100,"x_max":690,"o":"m 690 -106 l 501 -106 l 100 958 l 288 958 l 690 -106 z "},"]":{"ha":493,"x_min":-50,"x_max":474,"o":"m 132 1067 l 360 1067 q 449 1029 417 1067 q 474 936 481 992 l 326 -108 q 283 -197 319 -165 q 192 -229 247 -229 l -50 -229 l -28 -74 l 60 -74 q 100 -40 96 -74 l 231 883 q 208 911 235 911 l 110 911 l 132 1067 z "},"^":{"ha":668,"x_min":72,"x_max":657,"o":"m 657 567 l 556 515 l 400 739 l 389 739 l 167 515 l 72 567 l 314 890 l 496 890 l 657 567 z "},"_":{"ha":756,"x_min":-11,"x_max":632,"o":"m 611 -154 l -11 -154 l 10 0 l 632 0 l 611 -154 z "},"`":{"ha":519,"x_min":113,"x_max":522,"o":"m 522 824 l 440 718 l 113 871 l 215 1031 l 522 824 z "},"a":{"ha":838,"x_min":42,"x_max":804,"o":"m 710 0 l 514 0 l 514 131 q 239 -17 417 -8 q 57 71 101 -24 q 42 361 13 165 q 85 522 57 457 q 145 624 113 588 q 233 681 178 661 q 337 705 288 700 q 465 710 386 710 q 646 696 538 710 q 804 667 754 682 l 710 0 m 535 536 l 453 538 q 347 506 379 538 q 299 365 314 475 q 288 213 281 246 q 338 181 294 179 q 501 301 413 185 l 535 536 z "},"b":{"ha":840,"x_min":18,"x_max":785,"o":"m 401 972 l 375 771 q 333 594 367 679 q 590 708 451 708 q 765 621 717 708 q 785 340 814 533 q 674 73 758 163 q 400 -17 589 -17 q 194 -1 311 -17 q 18 39 76 14 l 149 972 l 401 972 m 331 442 l 289 161 q 375 158 346 157 q 481 199 450 161 q 529 358 511 238 q 533 481 542 453 q 486 510 525 510 q 331 442 419 510 z "},"c":{"ha":726,"x_min":38,"x_max":715,"o":"m 631 196 l 649 33 q 360 -17 533 -17 q 91 72 172 -17 q 38 356 10 160 q 149 628 64 547 q 422 710 235 710 q 715 660 599 710 l 681 506 l 454 507 q 344 474 376 507 q 300 347 313 440 q 308 215 286 246 q 406 185 329 185 q 631 196 535 185 z "},"d":{"ha":842,"x_min":42,"x_max":850,"o":"m 850 972 l 713 0 l 514 0 l 511 117 q 240 -17 372 -17 q 42 361 -8 -17 q 83 537 56 467 q 151 644 110 607 q 237 695 192 681 q 342 710 282 710 q 564 690 460 710 q 574 832 564 772 l 597 972 l 850 972 m 535 547 l 450 547 q 342 515 369 547 q 299 365 314 483 q 290 231 283 271 q 342 194 297 192 q 497 267 410 196 l 535 547 z "},"e":{"ha":800,"x_min":38,"x_max":771,"o":"m 686 196 l 703 39 q 386 -17 579 -17 q 94 74 172 -17 q 38 354 17 165 q 156 635 61 561 q 449 710 251 710 q 717 648 644 710 q 771 461 789 586 q 691 330 757 368 q 482 281 625 292 l 294 267 q 322 197 296 214 q 411 179 349 179 q 686 196 543 179 m 310 400 l 426 411 q 501 430 478 415 q 528 486 524 444 q 514 530 531 519 q 444 539 497 540 q 353 510 381 538 q 310 400 326 483 z "},"f":{"ha":574,"x_min":-140,"x_max":686,"o":"m 646 829 l 531 829 q 462 811 483 829 q 433 744 440 793 l 426 690 l 600 690 l 579 532 l 403 532 l 317 -53 q 64 -268 286 -268 q -140 -250 8 -268 l -101 -93 l -24 -93 q 47 -75 25 -93 q 75 -8 68 -57 l 153 532 l 38 532 l 57 683 l 176 690 l 190 788 q 443 1003 222 1003 q 686 985 592 1003 l 646 829 z "},"g":{"ha":843,"x_min":10,"x_max":810,"o":"m 810 667 l 729 96 q 677 -95 715 -18 q 578 -212 639 -172 q 450 -269 517 -253 q 294 -285 383 -285 q 10 -242 110 -285 l 24 -100 q 208 -101 68 -101 q 476 4 425 -101 q 503 78 488 26 q 533 156 518 129 q 240 -7 431 0 q 60 80 106 -12 q 43 361 14 172 q 92 553 61 481 q 174 658 124 625 q 274 701 225 692 q 406 710 322 710 q 810 667 647 710 m 540 536 l 454 538 q 344 506 372 538 q 300 365 317 474 q 291 211 282 247 q 342 181 300 175 q 507 301 424 190 l 540 536 z "},"h":{"ha":846,"x_min":14,"x_max":793,"o":"m 403 972 l 372 746 q 333 579 361 667 q 610 710 478 710 q 758 658 710 710 q 793 513 807 607 l 721 0 l 469 0 l 532 442 q 529 485 536 475 q 497 496 522 496 q 324 415 428 496 l 267 0 l 14 0 l 150 972 l 403 972 z "},"i":{"ha":404,"x_min":19,"x_max":403,"o":"m 231 1001 l 331 1001 q 403 922 411 1001 l 393 850 q 311 781 383 781 l 208 781 q 139 860 129 781 l 149 932 q 231 1001 154 1001 m 271 0 l 19 0 l 115 690 l 367 690 l 271 0 z "},"j":{"ha":406,"x_min":-92,"x_max":401,"o":"m 232 1001 l 331 1001 q 401 922 411 1001 l 392 850 q 308 781 383 781 l 208 781 q 138 860 128 781 l 147 932 q 232 1001 156 1001 m 371 690 l 279 54 q 203 -139 265 -50 q 47 -271 142 -228 l -92 -154 q 29 64 11 -56 l 118 690 l 371 690 z "},"k":{"ha":817,"x_min":14,"x_max":803,"o":"m 544 690 l 803 690 q 571 363 753 488 q 639 272 614 328 l 767 0 l 506 0 l 388 268 q 299 235 339 249 l 297 214 l 267 0 l 14 0 l 150 972 l 403 972 l 349 576 q 293 406 335 493 q 456 532 388 457 q 544 690 525 607 z "},"l":{"ha":478,"x_min":39,"x_max":428,"o":"m 403 972 l 297 235 q 303 192 292 203 q 356 181 315 181 l 414 181 l 428 11 q 246 -18 371 -18 q 83 35 139 -18 q 39 179 28 88 l 151 972 l 403 972 z "},"m":{"ha":1222,"x_min":14,"x_max":1172,"o":"m 307 690 l 313 581 q 575 710 443 710 q 749 597 721 710 q 993 710 867 710 q 1138 658 1092 710 q 1172 513 1185 606 l 1100 0 l 850 0 l 911 442 q 874 496 918 496 q 739 428 821 496 l 679 0 l 436 0 l 497 442 q 494 484 503 472 q 461 496 486 496 q 325 432 408 496 l 265 0 l 14 0 l 111 690 l 307 690 z "},"n":{"ha":846,"x_min":14,"x_max":794,"o":"m 308 690 l 311 561 q 619 710 463 710 q 758 658 708 710 q 794 513 808 607 l 722 0 l 469 0 l 531 433 q 527 485 536 472 q 489 496 518 499 q 325 417 424 494 l 267 0 l 14 0 l 110 690 l 308 690 z "},"o":{"ha":836,"x_min":38,"x_max":782,"o":"m 447 710 q 731 623 650 710 q 782 335 811 536 q 663 62 754 140 q 375 -17 572 -17 q 91 69 174 -17 q 38 354 8 156 q 156 631 65 551 q 447 710 246 710 m 443 532 q 346 494 374 532 q 300 335 318 456 q 301 194 285 228 q 383 160 317 160 q 476 199 449 160 q 521 354 504 238 q 522 497 538 463 q 443 532 507 532 z "},"p":{"ha":840,"x_min":-22,"x_max":782,"o":"m 310 690 l 310 564 q 592 707 447 707 q 782 329 832 707 q 740 150 768 221 q 667 43 711 79 q 574 -6 622 7 q 458 -19 526 -19 q 261 0 358 -19 q 251 -131 261 -64 l 231 -257 l -22 -257 l 110 690 l 310 690 m 289 143 l 372 143 q 483 175 457 143 q 525 325 508 207 q 532 474 540 439 q 485 510 524 510 q 325 424 414 510 l 289 143 z "},"q":{"ha":839,"x_min":39,"x_max":806,"o":"m 675 -257 l 424 -257 l 447 -81 q 483 89 460 14 q 247 -17 364 -17 q 64 70 117 -17 q 39 351 11 157 q 146 626 67 543 q 418 710 225 710 q 631 694 514 710 q 806 653 747 679 l 675 -257 m 496 267 l 533 531 q 447 533 472 536 q 342 497 372 531 q 296 354 313 464 q 290 229 282 264 q 343 194 299 194 q 496 267 401 194 z "},"r":{"ha":610,"x_min":14,"x_max":643,"o":"m 643 710 l 589 478 l 531 478 q 326 429 464 478 l 268 0 l 14 0 l 111 690 l 308 690 l 313 581 q 596 710 460 710 l 643 710 z "},"s":{"ha":746,"x_min":4,"x_max":715,"o":"m 360 244 l 206 297 q 58 525 35 356 q 143 665 71 621 q 381 710 215 710 q 715 679 581 707 l 693 528 q 426 531 513 531 q 324 526 347 531 q 297 506 300 522 q 310 479 296 489 q 368 456 325 469 l 528 404 q 679 190 699 349 q 583 26 664 67 q 335 -15 503 -15 q 4 13 171 -15 l 25 164 q 125 163 42 164 q 251 163 208 163 q 399 169 364 163 q 438 196 435 176 q 425 219 439 211 q 360 244 411 228 z "},"t":{"ha":592,"x_min":38,"x_max":608,"o":"m 408 532 l 367 235 q 371 191 361 201 q 417 181 381 181 l 503 181 l 515 13 q 303 -18 435 -18 q 147 36 200 -18 q 107 182 93 90 l 158 532 l 38 532 l 57 683 l 182 690 l 210 876 l 458 876 l 432 690 l 608 690 l 586 532 l 408 532 z "},"u":{"ha":835,"x_min":35,"x_max":804,"o":"m 804 690 l 708 0 l 511 0 l 510 124 q 219 -19 361 -19 q 69 33 117 -19 q 35 178 21 85 l 106 690 l 360 690 l 296 249 q 302 206 292 218 q 336 193 313 193 q 494 269 399 193 l 554 690 l 804 690 z "},"v":{"ha":818,"x_min":47,"x_max":819,"o":"m 546 690 l 819 690 q 739 369 796 539 q 632 128 694 239 q 535 26 586 51 q 393 0 485 0 l 208 0 q 159 18 179 0 q 136 64 139 36 l 47 690 l 322 690 l 344 158 l 358 158 q 401 172 386 158 q 438 235 415 186 q 499 418 471 307 q 546 690 525 524 z "},"w":{"ha":1261,"x_min":57,"x_max":1254,"o":"m 329 163 l 340 163 q 375 181 361 163 q 403 244 389 200 q 438 386 419 294 q 475 628 442 408 q 498 672 479 653 q 549 690 517 690 l 767 690 q 813 673 794 690 q 833 628 832 656 l 853 163 l 864 163 q 883 168 875 163 q 899 190 892 174 q 908 216 906 207 q 918 254 910 225 q 963 421 938 314 q 1001 690 988 542 l 1254 690 q 1189 376 1228 517 q 1108 150 1150 236 q 1016 33 1069 67 q 850 0 963 0 l 744 0 q 694 19 714 0 q 674 67 674 39 l 661 539 l 643 539 q 613 342 639 475 q 568 174 592 238 q 476 31 533 63 q 313 0 419 0 l 179 0 q 130 19 150 0 q 107 67 110 38 l 57 692 l 314 692 l 329 163 z "},"x":{"ha":813,"x_min":-54,"x_max":836,"o":"m 597 353 l 750 0 l 511 0 l 400 276 l 208 0 l -54 0 l 201 353 l 61 690 l 297 690 l 400 431 l 581 690 l 836 690 l 597 353 z "},"y":{"ha":836,"x_min":44,"x_max":839,"o":"m 569 690 l 839 690 q 743 335 814 526 q 613 42 672 144 q 383 -208 510 -131 q 88 -285 256 -286 l 67 -142 q 99 -132 72 -140 q 132 -122 125 -124 q 160 -112 139 -119 q 191 -100 182 -104 q 219 -87 200 -96 q 248 -71 238 -79 q 274 -52 258 -62 q 301 -28 289 -42 q 326 0 314 -15 l 229 0 q 172 20 196 0 q 143 72 149 40 l 44 690 l 319 690 l 356 181 q 378 158 356 158 l 422 158 q 569 690 521 372 z "},"z":{"ha":738,"x_min":-8,"x_max":721,"o":"m 701 521 l 313 169 l 656 169 l 633 0 l -8 0 l 14 169 l 13 169 l 401 521 l 72 521 l 94 690 l 721 690 l 700 521 l 701 521 z "},"{":{"ha":493,"x_min":35,"x_max":532,"o":"m 532 1065 l 515 913 q 439 899 461 913 q 411 840 417 885 l 383 649 q 335 511 372 556 q 204 453 299 467 q 335 258 357 410 l 299 -4 q 310 -58 293 -42 q 381 -75 328 -75 l 372 -231 q 118 -197 197 -256 q 56 -26 39 -137 l 100 293 q 101 314 101 304 q 101 330 101 324 q 96 342 100 336 q 90 351 92 347 q 79 358 88 354 q 67 365 71 363 q 52 371 64 367 q 35 378 40 375 l 54 536 q 92 549 82 544 q 115 563 101 553 q 133 590 128 574 q 142 633 138 606 l 175 872 q 277 1038 190 985 q 532 1065 364 1092 z "},"|":{"ha":374,"x_min":8,"x_max":371,"o":"m 185 -235 l 8 -235 l 194 1085 l 371 1085 l 185 -235 z "},"}":{"ha":493,"x_min":-42,"x_max":472,"o":"m 121 913 l 128 1068 q 383 1033 303 1093 q 447 864 463 974 l 413 624 q 410 599 410 610 q 409 580 410 588 q 413 566 408 572 q 417 556 417 560 q 426 549 418 553 q 438 544 435 546 q 453 539 440 543 q 472 533 467 535 l 451 375 q 415 360 424 364 q 390 345 406 356 q 369 320 375 335 q 360 283 363 306 l 314 -35 q -42 -228 281 -276 l -25 -75 q 51 -62 29 -75 q 78 -6 72 -49 l 117 268 q 167 390 129 347 q 301 458 204 433 q 190 519 218 471 q 176 658 163 568 l 204 850 q 192 899 210 886 q 121 913 175 913 z "},"~":{"ha":701,"x_min":58,"x_max":642,"o":"m 164 289 l 58 299 q 93 460 56 407 q 190 514 131 514 q 350 481 235 513 q 467 449 465 449 q 517 458 503 442 q 536 511 531 474 l 642 501 q 608 340 643 394 q 511 288 574 286 q 351 320 464 289 q 232 353 239 351 q 183 343 197 358 q 164 289 169 328 z "}," ":{"ha":296,"x_min":0,"x_max":0,"o":""},"¡":{"ha":415,"x_min":-8,"x_max":353,"o":"m 219 714 l 269 714 q 336 690 314 714 q 353 622 358 667 l 343 560 q 247 478 333 478 l 197 478 q 114 569 101 478 l 121 631 q 219 714 135 714 m 289 96 l 242 -250 l -8 -250 l 39 96 l 108 404 l 306 404 l 289 96 z "},"¢":{"ha":735,"x_min":57,"x_max":728,"o":"m 692 643 l 468 643 q 364 610 394 643 q 321 483 333 578 q 327 352 307 383 q 421 321 347 321 q 643 332 550 321 l 660 171 q 419 121 569 129 l 389 0 l 201 0 l 236 136 q 57 493 15 194 q 163 760 83 679 q 415 846 243 842 l 443 958 l 632 958 l 599 832 q 728 796 678 818 l 692 643 z "},"£":{"ha":818,"x_min":4,"x_max":814,"o":"m 814 963 l 790 772 q 538 774 736 774 q 464 757 486 774 q 439 694 442 740 l 432 568 l 656 568 l 632 443 l 426 443 l 425 404 q 389 276 421 321 q 293 189 357 232 q 401 204 338 204 l 743 204 l 717 0 l 4 0 l 28 207 q 168 414 161 265 l 171 443 l 65 443 l 81 568 l 178 568 l 188 715 q 272 923 200 869 q 504 976 343 976 q 814 963 646 976 z "},"¤":{"ha":801,"x_min":39,"x_max":785,"o":"m 785 718 l 679 622 q 694 479 704 556 q 640 339 685 403 l 729 242 l 618 140 l 529 239 q 383 203 457 203 q 236 243 303 203 l 139 156 l 39 267 l 140 358 q 125 499 115 422 q 182 642 135 575 l 93 739 l 206 840 l 294 740 q 435 775 361 775 q 582 736 519 775 l 685 829 l 785 718 m 267 490 q 294 385 257 425 q 392 344 331 344 q 501 384 457 344 q 553 490 544 424 q 527 597 563 557 q 429 636 492 636 q 318 597 361 636 q 267 490 275 557 z "},"¥":{"ha":947,"x_min":99,"x_max":992,"o":"m 707 500 l 822 500 l 803 357 l 124 357 l 140 500 l 264 500 l 106 958 l 367 958 l 456 632 q 468 500 468 578 l 486 500 q 532 632 496 564 l 714 958 l 992 958 l 707 500 m 115 315 l 797 315 l 778 174 l 567 174 l 543 0 l 281 0 l 306 174 l 99 174 l 115 315 z "},"¦":{"ha":376,"x_min":10,"x_max":372,"o":"m 293 529 l 117 529 l 196 1085 l 372 1085 l 293 529 m 186 -235 l 10 -235 l 88 321 l 264 321 l 186 -235 z "},"§":{"ha":751,"x_min":-14,"x_max":751,"o":"m 394 421 l 214 539 q 152 590 175 567 q 113 660 129 614 q 106 767 97 707 q 133 858 113 819 q 183 919 154 896 q 254 956 211 942 q 339 974 297 969 q 436 978 381 978 q 751 961 624 974 l 724 786 q 500 789 675 789 q 405 779 432 789 q 375 740 378 769 q 428 665 369 700 l 565 583 q 690 440 674 525 q 644 233 707 356 l 468 242 q 468 350 481 319 q 394 421 456 381 m 94 479 l 269 472 q 271 363 258 393 q 343 294 283 333 l 525 182 q 567 153 554 164 q 603 115 579 143 q 633 44 626 86 q 632 -53 640 3 q 537 -219 614 -176 q 304 -262 460 -262 q -14 -244 122 -262 l 14 -71 q 217 -75 201 -75 q 326 -66 293 -75 q 363 -24 358 -57 q 322 43 371 14 l 174 131 q 49 274 65 189 q 94 479 32 358 z "},"¨":{"ha":597,"x_min":151,"x_max":603,"o":"m 469 992 l 563 992 q 603 949 608 992 l 588 851 q 540 807 583 807 l 446 807 q 406 851 397 807 l 419 947 q 469 992 428 992 m 218 992 l 308 992 q 349 949 357 992 l 335 850 q 288 807 329 807 l 192 807 q 151 851 144 807 l 167 946 q 218 992 172 992 z "},"©":{"ha":1108,"x_min":61,"x_max":1067,"o":"m 607 978 q 966 838 839 978 q 1067 469 1093 699 q 897 115 1043 249 q 522 -19 750 -19 q 163 118 292 -19 q 61 489 35 256 q 235 844 88 711 q 607 978 383 978 m 613 864 q 317 758 432 864 q 183 469 201 651 q 255 196 168 297 q 517 94 342 94 q 810 200 693 94 q 946 489 928 306 q 875 762 963 660 q 613 864 788 864 m 736 360 l 747 228 q 558 201 663 201 q 340 265 397 201 q 303 490 282 329 q 390 701 322 643 q 611 760 458 760 q 792 738 703 760 l 772 606 q 688 606 742 606 q 600 607 633 607 q 522 583 543 607 q 492 482 501 560 q 494 381 482 406 q 554 356 507 357 q 736 360 638 351 z "},"ª":{"ha":622,"x_min":81,"x_max":608,"o":"m 404 386 l 401 468 q 225 375 340 381 q 94 433 126 369 q 81 626 63 496 q 108 733 89 690 q 151 801 128 776 q 213 838 174 825 q 285 853 251 850 q 374 856 318 856 q 608 826 521 858 l 546 386 l 404 386 m 417 736 l 364 736 q 299 717 319 736 q 269 626 279 697 q 263 533 258 553 q 293 514 267 513 q 394 588 340 517 l 417 736 z "},"«":{"ha":743,"x_min":31,"x_max":707,"o":"m 399 564 l 256 349 l 357 125 l 226 39 l 31 322 l 35 376 l 268 650 l 399 564 m 707 564 l 564 349 l 665 125 l 535 39 l 339 322 l 343 376 l 576 650 l 707 564 z "},"¬":{"ha":796,"x_min":56,"x_max":736,"o":"m 736 518 l 689 190 l 490 190 l 511 333 l 56 333 l 82 518 l 736 518 z "},"­":{"ha":553,"x_min":53,"x_max":483,"o":"m 461 279 l 53 279 l 75 432 l 483 432 l 461 279 z "},"®":{"ha":706,"x_min":82,"x_max":696,"o":"m 426 976 q 635 889 557 976 q 696 660 714 801 q 586 440 678 522 q 353 358 494 358 q 142 448 219 358 q 82 678 64 538 q 193 895 101 814 q 426 976 285 976 m 628 678 q 581 849 640 785 q 422 914 522 914 q 235 846 306 914 q 150 661 164 778 q 197 487 138 551 q 357 422 257 422 q 544 491 474 422 q 628 678 615 560 m 232 522 l 274 826 q 408 831 318 831 q 522 809 486 831 q 549 733 557 788 q 478 665 543 675 l 476 663 q 519 611 513 658 l 532 522 l 425 522 l 417 613 q 394 632 415 632 l 350 632 l 335 522 l 232 522 m 360 696 l 400 696 q 423 699 415 697 q 437 707 431 700 q 444 726 443 714 q 442 751 447 744 q 415 757 436 757 l 368 757 l 360 696 z "},"¯":{"ha":556,"x_min":129,"x_max":582,"o":"m 561 825 l 129 825 l 151 978 l 582 978 l 561 825 z "},"°":{"ha":471,"x_min":93,"x_max":483,"o":"m 157 922 q 184 947 157 922 q 297 971 211 971 q 438 916 383 971 q 483 775 493 861 q 417 647 472 694 q 275 599 361 599 q 136 654 189 599 q 93 794 83 710 q 157 922 103 874 m 292 858 q 238 840 258 858 q 215 789 218 821 q 230 732 211 753 q 283 711 249 711 q 338 731 317 711 q 361 783 358 750 q 346 838 364 817 q 292 858 328 858 z "},"±":{"ha":781,"x_min":18,"x_max":744,"o":"m 744 622 l 717 436 l 488 436 l 465 281 l 282 281 l 304 436 l 75 436 l 101 622 l 329 622 l 351 779 l 538 779 l 514 622 l 744 622 m 46 229 l 688 229 l 661 43 l 18 43 l 46 229 z "},"²":{"ha":588,"x_min":72,"x_max":589,"o":"m 151 931 l 151 1068 q 360 1085 251 1085 q 542 1051 481 1085 q 589 921 603 1017 q 482 775 578 847 l 322 656 q 403 665 360 668 l 565 663 l 543 500 l 72 500 l 88 604 q 117 681 96 660 l 251 786 q 381 900 364 872 q 381 924 390 915 q 347 932 371 932 l 151 931 z "},"³":{"ha":557,"x_min":72,"x_max":567,"o":"m 154 936 l 151 1072 q 358 1088 269 1088 q 528 1054 482 1088 q 567 943 575 1021 q 533 851 561 890 q 444 806 504 811 l 443 801 q 547 650 565 786 q 479 531 536 574 q 290 488 422 489 q 72 506 192 488 l 83 642 q 267 640 232 639 q 357 696 349 642 q 351 728 360 718 q 313 738 342 738 l 179 738 l 196 856 l 325 856 q 367 867 356 856 q 381 906 379 879 q 372 929 382 922 q 331 936 363 936 l 154 936 z "},"´":{"ha":519,"x_min":129,"x_max":539,"o":"m 539 858 l 188 718 l 129 824 l 454 1036 l 539 858 z "},"¶":{"ha":824,"x_min":61,"x_max":790,"o":"m 242 -292 l 322 279 q 61 635 15 315 q 196 899 89 822 q 533 975 303 975 q 790 951 683 975 l 657 0 l 501 0 l 617 824 l 554 825 l 397 -292 l 242 -292 z "},"·":{"ha":357,"x_min":51,"x_max":293,"o":"m 157 476 l 210 476 q 276 453 254 476 q 293 385 299 429 l 285 324 q 189 240 275 240 l 135 240 q 51 333 39 240 l 60 394 q 157 476 69 476 z "},"¸":{"ha":356,"x_min":-64,"x_max":260,"o":"m 19 -140 l 42 -49 q 166 -43 114 -42 q 244 -70 218 -44 q 260 -149 269 -96 q 152 -303 242 -256 q -64 -335 63 -351 l -35 -236 q 103 -164 88 -236 q 103 -151 104 -156 q 92 -144 101 -147 q 67 -141 83 -142 q 19 -140 50 -140 z "},"¹":{"ha":433,"x_min":101,"x_max":453,"o":"m 372 500 l 181 500 l 231 850 q 249 926 238 897 l 108 897 l 101 1019 l 261 1075 l 453 1075 l 372 500 z "},"º":{"ha":604,"x_min":75,"x_max":585,"o":"m 350 860 q 549 801 493 860 q 585 604 604 742 q 507 423 567 474 q 311 372 447 372 q 113 431 169 372 q 75 624 57 489 q 156 807 93 754 q 350 860 219 860 m 349 732 q 291 706 308 732 q 264 604 274 681 q 265 523 256 547 q 314 499 275 499 q 369 524 353 499 q 396 624 386 550 q 396 711 406 690 q 349 732 386 732 z "},"»":{"ha":746,"x_min":19,"x_max":696,"o":"m 19 125 l 164 340 l 61 564 l 193 650 l 388 367 l 385 313 l 150 40 l 19 125 m 328 125 l 472 340 l 369 564 l 500 650 l 696 367 l 692 313 l 458 40 l 328 125 z "},"¼":{"ha":1294,"x_min":101,"x_max":1233,"o":"m 174 383 l 222 735 q 240 811 231 785 l 107 782 l 101 903 l 254 958 l 447 958 l 365 383 l 174 383 m 1018 958 l 329 0 l 165 0 l 856 958 l 1018 958 m 1218 128 l 1149 113 l 1133 0 l 963 0 l 978 113 l 739 113 q 676 147 693 113 q 681 219 658 182 l 874 575 l 1049 575 l 885 258 q 894 236 872 236 l 994 236 l 1013 367 l 1056 461 l 1199 461 l 1167 236 l 1233 236 l 1218 128 z "},"½":{"ha":1289,"x_min":101,"x_max":1229,"o":"m 365 383 l 172 383 l 222 735 q 239 811 228 779 l 107 782 l 101 903 l 253 958 l 447 958 l 365 383 m 324 0 l 161 0 l 850 958 l 1013 958 l 324 0 m 788 432 l 788 568 q 996 585 879 585 q 1185 551 1125 585 q 1229 418 1246 517 q 1124 274 1218 344 l 960 156 q 1040 164 994 164 l 1208 160 l 1186 0 l 708 0 l 724 103 q 754 179 731 157 l 889 285 q 1017 399 996 365 q 1018 424 1026 415 q 986 432 1010 432 l 788 432 z "},"¾":{"ha":1381,"x_min":56,"x_max":1322,"o":"m 426 689 l 422 685 q 532 532 549 669 q 466 412 522 453 q 281 371 410 371 q 56 388 175 371 l 65 524 q 249 522 111 522 q 317 537 297 522 q 342 579 338 551 q 335 610 344 600 q 296 619 326 619 l 163 621 l 178 738 l 308 738 q 351 750 339 738 q 365 789 364 763 q 358 813 368 806 q 318 819 349 819 q 136 821 211 819 l 133 954 q 342 969 236 969 q 518 938 471 969 q 554 825 565 906 q 426 689 538 701 m 1126 958 l 439 0 l 276 0 l 964 958 l 1126 958 m 1308 131 l 1239 114 l 1222 1 l 1053 1 l 1068 114 l 829 114 q 767 149 785 114 q 771 222 749 183 l 964 576 l 1139 576 l 974 260 q 985 239 964 239 l 1086 239 l 1103 367 l 1146 463 l 1288 463 l 1256 239 l 1322 239 l 1308 131 z "},"¿":{"ha":726,"x_min":-32,"x_max":610,"o":"m 394 714 l 446 714 q 513 690 490 714 q 529 622 535 667 l 519 560 q 493 497 515 517 q 425 478 471 478 l 374 478 q 290 569 279 478 l 299 631 q 394 714 311 714 m 283 401 l 482 401 q 440 247 475 318 q 368 138 406 176 q 292 58 331 99 q 244 -8 254 17 q 249 -57 232 -40 q 318 -74 265 -74 q 610 -71 426 -74 l 607 -240 q 568 -247 599 -242 q 530 -254 538 -253 q 496 -260 522 -256 q 458 -265 469 -264 q 419 -269 446 -267 q 372 -273 393 -272 q 321 -274 351 -274 q 257 -275 290 -275 q 25 -217 97 -275 q -32 -50 -47 -160 q 5 49 -25 4 q 75 128 35 94 q 156 198 115 163 q 233 285 197 233 q 283 401 268 338 z "},"À":{"ha":922,"x_min":-62,"x_max":874,"o":"m 597 1001 l 269 1154 l 372 1314 l 679 1107 l 597 1001 m 590 224 l 297 224 l 210 0 l -62 0 l 322 896 q 415 958 349 958 l 654 958 q 710 938 686 958 q 738 886 735 917 l 874 0 l 613 0 l 590 224 m 569 421 l 544 665 q 540 765 540 699 l 500 765 q 471 667 488 714 l 374 421 l 569 421 z "},"Á":{"ha":922,"x_min":-62,"x_max":874,"o":"m 488 1001 l 428 1107 l 753 1321 l 839 1142 l 488 1001 m 590 224 l 297 224 l 210 0 l -62 0 l 322 896 q 415 958 349 958 l 654 958 q 710 938 686 958 q 738 886 735 917 l 874 0 l 613 0 l 590 224 m 569 421 l 544 665 q 540 765 540 699 l 500 765 q 471 667 488 714 l 374 421 l 569 421 z "},"Â":{"ha":922,"x_min":-62,"x_max":874,"o":"m 331 1001 l 271 1090 l 479 1278 l 650 1278 l 829 1085 l 758 1000 l 565 1133 l 554 1133 l 331 1001 m 590 224 l 297 224 l 210 0 l -62 0 l 322 896 q 415 958 349 958 l 654 958 q 710 938 686 958 q 738 886 735 917 l 874 0 l 613 0 l 590 224 m 569 421 l 544 665 q 540 765 540 699 l 500 765 q 471 667 488 714 l 374 421 l 569 421 z "},"Ã":{"ha":922,"x_min":-62,"x_max":874,"o":"m 400 1042 l 296 1051 q 331 1212 294 1158 q 429 1264 367 1265 q 552 1233 472 1263 q 646 1200 632 1203 q 695 1208 681 1193 q 715 1263 710 1224 l 819 1253 q 786 1092 822 1146 q 689 1040 750 1039 q 563 1072 643 1042 q 468 1106 483 1103 q 419 1096 433 1111 q 400 1042 406 1081 m 590 224 l 297 224 l 210 0 l -62 0 l 322 896 q 415 958 349 958 l 654 958 q 710 938 686 958 q 738 886 735 917 l 874 0 l 613 0 l 590 224 m 569 421 l 544 665 q 540 765 540 699 l 500 765 q 471 667 488 714 l 374 421 l 569 421 z "},"Ä":{"ha":922,"x_min":-62,"x_max":874,"o":"m 472 1060 l 376 1060 q 338 1103 329 1060 l 351 1199 q 404 1244 357 1244 l 493 1244 q 533 1200 542 1244 l 519 1103 q 472 1060 514 1060 m 726 1060 l 631 1060 q 590 1103 585 1060 l 606 1199 q 654 1244 611 1244 l 747 1244 q 788 1200 796 1244 l 774 1104 q 726 1060 768 1060 m 590 224 l 297 224 l 210 0 l -62 0 l 322 896 q 415 958 349 958 l 654 958 q 710 938 686 958 q 738 886 735 917 l 874 0 l 613 0 l 590 224 m 569 421 l 544 665 q 540 765 540 699 l 500 765 q 471 667 488 714 l 374 421 l 569 421 z "},"Å":{"ha":922,"x_min":-62,"x_max":874,"o":"m 557 994 q 433 1044 481 994 q 394 1167 385 1094 q 451 1276 403 1232 q 572 1321 499 1321 q 697 1270 647 1321 q 736 1147 746 1219 q 680 1039 728 1083 q 557 994 632 994 m 500 1161 q 514 1109 497 1128 q 560 1090 531 1090 q 610 1110 590 1090 q 631 1161 629 1129 q 615 1208 632 1190 q 569 1225 599 1225 q 522 1207 542 1225 q 500 1161 503 1189 m 590 224 l 297 224 l 210 0 l -62 0 l 322 896 q 415 958 349 958 l 654 958 q 710 938 686 958 q 738 886 735 917 l 874 0 l 613 0 l 590 224 m 569 421 l 544 665 q 540 765 540 699 l 500 765 q 471 667 488 714 l 374 421 l 569 421 z "},"Æ":{"ha":1313,"x_min":-76,"x_max":1336,"o":"m 1304 763 l 976 763 q 922 749 939 763 q 900 699 906 735 l 882 578 l 1228 578 l 1207 410 l 858 410 l 836 258 q 845 210 833 225 q 892 196 857 196 l 1222 196 l 1218 10 q 778 -4 1090 -4 q 626 56 678 -4 q 589 215 575 117 l 592 236 l 336 236 l 194 0 l -76 0 l 394 761 q 493 880 442 839 q 632 941 544 921 q 863 961 719 961 q 1336 947 1161 961 l 1304 763 m 619 432 l 660 715 q 694 804 667 765 l 681 804 q 631 728 675 796 l 453 432 l 619 432 z "},"Ç":{"ha":825,"x_min":65,"x_max":842,"o":"m 739 217 l 749 25 q 428 -17 614 -17 q 110 99 194 -17 q 65 489 26 214 q 206 873 104 771 q 540 975 307 975 q 842 939 714 975 l 811 749 q 528 753 665 753 q 433 733 465 753 q 377 653 400 714 q 338 469 354 593 q 333 258 314 311 q 439 206 351 206 q 739 217 622 206 m 263 -178 l 286 -86 q 409 -79 357 -78 q 487 -107 461 -81 q 503 -186 513 -133 q 395 -340 485 -292 q 181 -371 306 -387 l 208 -272 q 346 -201 329 -275 q 346 -189 347 -193 q 335 -182 344 -185 q 310 -178 326 -179 q 263 -178 293 -178 z "},"È":{"ha":806,"x_min":53,"x_max":828,"o":"m 578 1010 l 250 1161 l 353 1321 l 658 1114 l 578 1010 m 797 760 l 453 760 q 399 746 415 760 q 378 696 382 732 l 363 582 l 722 582 l 700 404 l 338 404 l 318 260 q 326 213 313 228 q 374 199 339 199 l 717 199 l 711 10 q 267 -4 593 -4 q 93 63 149 -4 q 53 242 38 129 l 125 761 q 200 909 139 856 q 364 963 261 963 q 828 946 700 963 l 797 760 z "},"É":{"ha":806,"x_min":53,"x_max":828,"o":"m 468 1010 l 408 1114 l 733 1328 l 819 1149 l 468 1010 m 797 760 l 453 760 q 399 746 415 760 q 378 696 382 732 l 363 582 l 722 582 l 700 404 l 338 404 l 318 260 q 326 213 313 228 q 374 199 339 199 l 717 199 l 711 10 q 267 -4 593 -4 q 93 63 149 -4 q 53 242 38 129 l 125 761 q 200 909 139 856 q 364 963 261 963 q 828 946 700 963 l 797 760 z "},"Ê":{"ha":806,"x_min":53,"x_max":828,"o":"m 311 1008 l 251 1099 l 458 1285 l 629 1285 l 810 1092 l 739 1007 l 544 1140 l 533 1140 l 311 1008 m 797 760 l 453 760 q 399 746 415 760 q 378 696 382 732 l 363 582 l 722 582 l 700 404 l 338 404 l 318 260 q 326 213 313 228 q 374 199 339 199 l 717 199 l 711 10 q 267 -4 593 -4 q 93 63 149 -4 q 53 242 38 129 l 125 761 q 200 909 139 856 q 364 963 261 963 q 828 946 700 963 l 797 760 z "},"Ë":{"ha":806,"x_min":53,"x_max":828,"o":"m 706 1067 l 611 1067 q 571 1111 563 1067 l 585 1207 q 635 1251 593 1251 l 726 1251 q 768 1207 774 1251 l 753 1111 q 706 1067 747 1067 m 453 1067 l 357 1067 q 317 1111 311 1067 l 332 1206 q 383 1251 338 1251 l 474 1251 q 514 1207 522 1251 l 499 1110 q 453 1067 494 1067 m 797 760 l 453 760 q 399 746 415 760 q 378 696 382 732 l 363 582 l 722 582 l 700 404 l 338 404 l 318 260 q 326 213 313 228 q 374 199 339 199 l 717 199 l 711 10 q 267 -4 593 -4 q 93 63 149 -4 q 53 242 38 129 l 125 761 q 200 909 139 856 q 364 963 261 963 q 828 946 700 963 l 797 760 z "},"Ì":{"ha":428,"x_min":26,"x_max":436,"o":"m 436 1107 l 354 1001 l 26 1154 l 129 1314 l 436 1107 m 288 0 l 26 0 l 161 958 l 422 958 l 288 0 z "},"Í":{"ha":428,"x_min":26,"x_max":596,"o":"m 596 1142 l 244 1001 l 185 1107 l 510 1321 l 596 1142 m 288 0 l 26 0 l 161 958 l 422 958 l 288 0 z "},"Î":{"ha":428,"x_min":26,"x_max":586,"o":"m 586 1085 l 515 1000 l 321 1133 l 310 1133 l 88 1001 l 28 1090 l 235 1278 l 406 1278 l 586 1085 m 288 0 l 26 0 l 161 958 l 422 958 l 288 0 z "},"Ï":{"ha":428,"x_min":26,"x_max":544,"o":"m 411 1244 l 504 1244 q 544 1200 550 1244 l 529 1104 q 482 1060 525 1060 l 388 1060 q 347 1103 342 1060 l 361 1199 q 376 1234 365 1224 q 411 1244 388 1244 m 160 1244 l 250 1244 q 290 1200 299 1244 l 276 1103 q 229 1060 271 1060 l 133 1060 q 93 1103 88 1060 l 108 1199 q 160 1244 114 1244 m 288 0 l 26 0 l 161 958 l 422 958 l 288 0 z "},"Ð":{"ha":958,"x_min":18,"x_max":914,"o":"m 106 567 l 161 958 q 529 972 332 972 q 781 928 690 972 q 906 774 871 885 q 914 469 940 663 q 859 226 892 318 q 767 79 826 133 q 628 6 707 25 q 425 -14 550 -14 q 26 0 228 -14 l 89 443 l 18 443 l 35 567 l 106 567 m 313 183 l 422 182 q 528 204 490 182 q 595 293 567 226 q 640 489 624 360 q 642 724 664 669 q 521 778 619 778 l 396 776 l 367 567 l 510 567 l 492 443 l 349 443 l 313 183 z "},"Ñ":{"ha":1006,"x_min":26,"x_max":1000,"o":"m 442 1042 l 338 1051 q 373 1212 336 1158 q 471 1264 410 1265 q 594 1233 514 1263 q 688 1200 674 1203 q 738 1209 722 1193 q 757 1263 753 1225 l 861 1253 q 828 1092 864 1146 q 731 1040 793 1039 q 605 1072 685 1042 q 510 1106 525 1103 q 461 1096 475 1111 q 442 1042 447 1081 m 1000 958 l 878 86 q 849 21 871 42 q 782 0 826 0 l 674 0 q 617 19 636 0 q 579 81 599 38 l 404 493 q 358 644 379 547 l 346 644 q 338 479 347 564 l 268 0 l 26 0 l 149 872 q 244 958 161 958 l 353 958 q 408 940 390 958 q 446 878 426 921 l 618 482 q 672 321 653 403 l 686 321 q 692 481 681 397 l 758 958 l 1000 958 z "},"Ò":{"ha":960,"x_min":65,"x_max":917,"o":"m 703 1107 l 621 1001 l 293 1154 l 396 1314 l 703 1107 m 539 978 q 865 866 775 978 q 917 469 956 754 q 862 229 897 324 q 767 79 826 135 q 631 2 708 24 q 439 -19 554 -19 q 113 91 199 -19 q 65 489 26 201 q 208 874 104 771 q 539 978 313 978 m 535 778 q 405 717 443 778 q 338 469 367 657 q 334 238 313 294 q 444 181 356 181 q 576 241 538 181 q 643 489 615 301 q 647 722 668 667 q 535 778 625 778 z "},"Ó":{"ha":960,"x_min":65,"x_max":917,"o":"m 863 1142 l 511 1001 l 451 1107 l 776 1321 l 863 1142 m 539 978 q 865 866 775 978 q 917 469 956 754 q 862 229 897 324 q 767 79 826 135 q 631 2 708 24 q 439 -19 554 -19 q 113 91 199 -19 q 65 489 26 201 q 208 874 104 771 q 539 978 313 978 m 535 778 q 405 717 443 778 q 338 469 367 657 q 334 238 313 294 q 444 181 356 181 q 576 241 538 181 q 643 489 615 301 q 647 722 668 667 q 535 778 625 778 z "},"Ô":{"ha":960,"x_min":65,"x_max":917,"o":"m 853 1085 l 782 1000 l 588 1133 l 576 1133 l 354 1001 l 294 1090 l 501 1278 l 672 1278 l 853 1085 m 539 978 q 865 866 775 978 q 917 469 956 754 q 862 229 897 324 q 767 79 826 135 q 631 2 708 24 q 439 -19 554 -19 q 113 91 199 -19 q 65 489 26 201 q 208 874 104 771 q 539 978 313 978 m 535 778 q 405 717 443 778 q 338 469 367 657 q 334 238 313 294 q 444 181 356 181 q 576 241 538 181 q 643 489 615 301 q 647 722 668 667 q 535 778 625 778 z "},"Õ":{"ha":960,"x_min":65,"x_max":917,"o":"m 422 1042 l 318 1051 q 353 1212 317 1158 q 453 1264 390 1265 q 574 1233 496 1263 q 668 1200 653 1203 q 719 1209 704 1193 q 738 1263 733 1225 l 842 1253 q 810 1092 846 1146 q 713 1040 774 1039 q 587 1072 667 1042 q 490 1106 507 1103 q 442 1096 456 1111 q 422 1042 428 1081 m 539 978 q 865 866 775 978 q 917 469 956 754 q 862 229 897 324 q 767 79 826 135 q 631 2 708 24 q 439 -19 554 -19 q 113 91 199 -19 q 65 489 26 201 q 208 874 104 771 q 539 978 313 978 m 535 778 q 405 717 443 778 q 338 469 367 657 q 334 238 313 294 q 444 181 356 181 q 576 241 538 181 q 643 489 615 301 q 647 722 668 667 q 535 778 625 778 z "},"Ö":{"ha":960,"x_min":65,"x_max":917,"o":"m 678 1244 l 771 1244 q 811 1200 817 1244 l 796 1104 q 749 1060 792 1060 l 654 1060 q 614 1103 606 1060 l 628 1199 q 643 1234 632 1224 q 678 1244 654 1244 m 426 1244 l 517 1244 q 557 1200 565 1244 l 543 1103 q 496 1060 538 1060 l 400 1060 q 360 1103 354 1060 l 375 1199 q 426 1244 381 1244 m 539 978 q 865 866 775 978 q 917 469 956 754 q 862 229 897 324 q 767 79 826 135 q 631 2 708 24 q 439 -19 554 -19 q 113 91 199 -19 q 65 489 26 201 q 208 874 104 771 q 539 978 313 978 m 535 778 q 405 717 443 778 q 338 469 367 657 q 334 238 313 294 q 444 181 356 181 q 576 241 538 181 q 643 489 615 301 q 647 722 668 667 q 535 778 625 778 z "},"×":{"ha":729,"x_min":24,"x_max":704,"o":"m 504 404 l 661 249 l 526 101 l 349 282 l 119 101 l 24 254 l 222 410 l 71 563 l 204 700 l 376 531 l 608 713 l 704 561 l 504 404 z "},"Ø":{"ha":960,"x_min":53,"x_max":940,"o":"m 940 1028 l 851 881 q 917 469 957 767 q 862 229 897 324 q 767 79 826 135 q 631 2 708 24 q 439 -19 554 -19 q 318 -11 372 -19 l 233 -149 l 53 -56 l 129 71 q 65 489 24 183 q 208 874 104 771 q 539 978 313 978 q 668 968 614 978 l 758 1121 l 940 1028 m 643 489 q 647 722 668 667 q 535 778 625 778 q 405 717 443 778 q 338 469 367 657 q 334 238 313 294 q 444 181 356 181 q 576 241 538 181 q 643 489 615 301 z "},"Ù":{"ha":958,"x_min":72,"x_max":961,"o":"m 697 1107 l 617 1001 l 289 1154 l 390 1314 l 697 1107 m 961 958 l 878 385 q 750 69 846 158 q 439 -19 654 -19 q 133 78 224 -19 q 72 394 43 175 l 153 958 l 414 958 l 332 385 q 336 223 314 265 q 443 181 358 181 q 565 225 531 181 q 619 394 600 269 l 700 958 l 961 958 z "},"Ú":{"ha":958,"x_min":72,"x_max":961,"o":"m 858 1142 l 507 1001 l 447 1107 l 772 1321 l 858 1142 m 961 958 l 878 385 q 750 69 846 158 q 439 -19 654 -19 q 133 78 224 -19 q 72 394 43 175 l 153 958 l 414 958 l 332 385 q 336 223 314 265 q 443 181 358 181 q 565 225 531 181 q 619 394 600 269 l 700 958 l 961 958 z "},"Û":{"ha":958,"x_min":72,"x_max":961,"o":"m 849 1085 l 778 1000 l 583 1133 l 572 1133 l 350 1001 l 290 1090 l 497 1278 l 668 1278 l 849 1085 m 961 958 l 878 385 q 750 69 846 158 q 439 -19 654 -19 q 133 78 224 -19 q 72 394 43 175 l 153 958 l 414 958 l 332 385 q 336 223 314 265 q 443 181 358 181 q 565 225 531 181 q 619 394 600 269 l 700 958 l 961 958 z "},"Ü":{"ha":958,"x_min":72,"x_max":961,"o":"m 674 1244 l 765 1244 q 807 1200 813 1244 l 792 1104 q 744 1060 786 1060 l 650 1060 q 610 1103 601 1060 l 624 1199 q 674 1244 631 1244 m 422 1244 l 513 1244 q 553 1200 561 1244 l 538 1103 q 492 1060 533 1060 l 396 1060 q 356 1103 350 1060 l 371 1199 q 422 1244 376 1244 m 961 958 l 878 385 q 750 69 846 158 q 439 -19 654 -19 q 133 78 224 -19 q 72 394 43 175 l 153 958 l 414 958 l 332 385 q 336 223 314 265 q 443 181 358 181 q 565 225 531 181 q 619 394 600 269 l 700 958 l 961 958 z "},"Ý":{"ha":874,"x_min":69,"x_max":958,"o":"m 458 1001 l 400 1107 l 725 1321 l 810 1142 l 458 1001 m 550 301 l 508 0 l 246 0 l 290 314 l 69 958 l 331 958 l 419 629 q 433 497 433 567 l 451 497 q 496 629 460 556 l 679 958 l 958 958 l 550 301 z "},"Þ":{"ha":867,"x_min":26,"x_max":844,"o":"m 400 800 l 506 800 q 791 728 713 800 q 844 468 869 657 q 740 223 819 288 q 479 158 661 158 q 311 169 396 158 l 288 0 l 26 0 l 161 958 l 422 958 l 400 800 m 336 349 l 454 349 q 547 374 521 349 q 585 488 572 400 q 579 585 596 561 q 501 610 563 610 l 374 610 l 336 349 z "},"ß":{"ha":996,"x_min":-135,"x_max":947,"o":"m 779 436 l 858 371 q 936 272 915 318 q 947 168 957 226 q 866 26 932 68 q 650 -15 800 -15 q 415 0 568 -15 l 438 160 l 596 158 q 672 168 647 158 q 697 207 696 178 q 684 245 699 226 q 618 310 669 264 l 557 353 q 490 433 510 394 q 476 522 469 471 q 497 578 481 551 q 531 623 514 606 q 594 685 549 640 q 654 748 639 726 q 672 794 669 769 q 659 839 676 828 q 583 850 642 850 q 472 828 503 850 q 432 744 442 807 l 321 -53 q 245 -212 306 -156 q 64 -268 185 -268 q -135 -250 13 -268 l -96 -93 l -18 -93 q 49 -76 29 -93 q 78 -8 69 -58 l 154 532 l 36 532 l 56 683 l 176 690 l 189 783 q 293 973 208 922 q 568 1024 378 1024 q 853 971 782 1024 q 904 793 925 918 q 813 629 890 703 q 780 600 801 619 q 749 571 758 581 q 729 547 739 561 q 717 521 719 533 q 727 485 714 501 q 779 436 740 469 z "},"à":{"ha":838,"x_min":42,"x_max":804,"o":"m 532 744 l 204 896 l 307 1057 l 614 849 l 532 744 m 710 0 l 514 0 l 514 131 q 239 -17 417 -8 q 57 71 101 -24 q 42 361 13 165 q 85 522 57 457 q 145 624 113 588 q 233 681 178 661 q 337 705 288 700 q 465 710 386 710 q 646 696 538 710 q 804 667 754 682 l 710 0 m 535 536 l 453 538 q 347 506 379 538 q 299 365 314 475 q 288 213 281 246 q 338 181 294 179 q 501 301 413 185 l 535 536 z "},"á":{"ha":838,"x_min":42,"x_max":804,"o":"m 422 744 l 364 850 l 689 1063 l 774 885 l 422 744 m 710 0 l 514 0 l 514 131 q 239 -17 417 -8 q 57 71 101 -24 q 42 361 13 165 q 85 522 57 457 q 145 624 113 588 q 233 681 178 661 q 337 705 288 700 q 465 710 386 710 q 646 696 538 710 q 804 667 754 682 l 710 0 m 535 536 l 453 538 q 347 506 379 538 q 299 365 314 475 q 288 213 281 246 q 338 181 294 179 q 501 301 413 185 l 535 536 z "},"â":{"ha":838,"x_min":42,"x_max":804,"o":"m 267 743 l 207 833 l 414 1021 l 585 1021 l 764 826 l 694 742 l 500 875 l 489 875 l 267 743 m 710 0 l 514 0 l 514 131 q 239 -17 417 -8 q 57 71 101 -24 q 42 361 13 165 q 85 522 57 457 q 145 624 113 588 q 233 681 178 661 q 337 705 288 700 q 465 710 386 710 q 646 696 538 710 q 804 667 754 682 l 710 0 m 535 536 l 453 538 q 347 506 379 538 q 299 365 314 475 q 288 213 281 246 q 338 181 294 179 q 501 301 413 185 l 535 536 z "},"ã":{"ha":838,"x_min":42,"x_max":804,"o":"m 335 785 l 231 794 q 266 954 229 900 q 364 1007 303 1008 q 486 976 407 1006 q 581 943 565 946 q 631 951 615 936 q 650 1004 646 967 l 754 994 q 722 835 757 888 q 624 783 686 782 q 497 815 578 785 q 403 847 417 844 q 354 838 368 853 q 335 785 340 822 m 710 0 l 514 0 l 514 131 q 239 -17 417 -8 q 57 71 101 -24 q 42 361 13 165 q 85 522 57 457 q 145 624 113 588 q 233 681 178 661 q 337 705 288 700 q 465 710 386 710 q 646 696 538 710 q 804 667 754 682 l 710 0 m 535 536 l 453 538 q 347 506 379 538 q 299 365 314 475 q 288 213 281 246 q 338 181 294 179 q 501 301 413 185 l 535 536 z "},"ä":{"ha":838,"x_min":42,"x_max":804,"o":"m 407 801 l 313 801 q 272 846 264 801 l 286 940 q 339 986 292 986 l 428 986 q 468 943 476 986 l 454 844 q 407 801 449 801 m 661 801 l 565 801 q 525 846 518 801 l 540 942 q 589 986 546 986 l 682 986 q 722 943 731 986 l 708 846 q 661 801 703 801 m 710 0 l 514 0 l 514 131 q 239 -17 417 -8 q 57 71 101 -24 q 42 361 13 165 q 85 522 57 457 q 145 624 113 588 q 233 681 178 661 q 337 705 288 700 q 465 710 386 710 q 646 696 538 710 q 804 667 754 682 l 710 0 m 535 536 l 453 538 q 347 506 379 538 q 299 365 314 475 q 288 213 281 246 q 338 181 294 179 q 501 301 413 185 l 535 536 z "},"å":{"ha":838,"x_min":42,"x_max":804,"o":"m 493 736 q 367 787 415 736 q 329 910 319 838 q 385 1019 338 975 q 507 1063 433 1063 q 631 1013 582 1063 q 671 890 681 963 q 615 781 664 825 q 493 736 567 736 m 435 903 q 449 851 432 871 q 494 832 465 832 q 544 852 525 832 q 567 904 564 872 q 551 950 568 932 q 504 968 533 968 q 457 949 476 968 q 435 903 438 931 m 710 0 l 514 0 l 514 131 q 239 -17 417 -8 q 57 71 101 -24 q 42 361 13 165 q 85 522 57 457 q 145 624 113 588 q 233 681 178 661 q 337 705 288 700 q 465 710 386 710 q 646 696 538 710 q 804 667 754 682 l 710 0 m 535 536 l 453 538 q 347 506 379 538 q 299 365 314 475 q 288 213 281 246 q 338 181 294 179 q 501 301 413 185 l 535 536 z "},"æ":{"ha":1257,"x_min":43,"x_max":1228,"o":"m 1140 196 l 1157 39 q 846 -17 1035 -17 q 518 140 579 -17 q 239 -17 424 -6 q 59 71 103 -24 q 43 361 15 165 q 72 500 54 442 q 116 596 89 558 q 170 656 143 633 q 240 691 197 679 q 321 706 283 703 q 417 710 358 710 q 715 686 581 710 q 908 710 792 710 q 1174 648 1103 710 q 1228 461 1246 586 q 1149 330 1214 368 q 942 281 1083 292 l 751 267 q 780 197 753 214 q 872 179 807 179 q 1140 196 1003 179 m 767 399 l 885 411 q 958 430 936 415 q 985 486 981 444 q 972 530 988 519 q 904 539 956 540 q 809 510 836 538 q 767 399 782 483 m 339 181 q 497 297 411 185 q 498 315 497 306 q 500 335 499 324 q 501 354 501 347 q 546 536 514 463 l 451 538 q 346 507 375 538 q 301 365 317 476 q 290 213 283 246 q 339 181 296 179 z "},"ç":{"ha":726,"x_min":38,"x_max":715,"o":"m 631 196 l 649 33 q 360 -17 533 -17 q 91 72 172 -17 q 38 356 10 160 q 149 628 64 547 q 422 710 235 710 q 715 660 599 710 l 681 506 l 454 507 q 344 474 376 507 q 300 347 313 440 q 308 215 286 246 q 406 185 329 185 q 631 196 535 185 m 203 -157 l 225 -65 q 400 -70 344 -51 q 443 -165 456 -89 q 335 -319 425 -271 q 119 -351 244 -368 l 149 -253 q 285 -181 271 -253 q 285 -172 285 -176 q 283 -165 286 -168 q 275 -161 279 -162 q 260 -159 271 -160 q 237 -158 250 -158 q 203 -157 224 -157 z "},"è":{"ha":800,"x_min":38,"x_max":771,"o":"m 519 744 l 192 896 l 294 1057 l 601 849 l 519 744 m 686 196 l 703 39 q 386 -17 579 -17 q 94 74 172 -17 q 38 354 17 165 q 156 635 61 561 q 449 710 251 710 q 717 648 644 710 q 771 461 789 586 q 691 330 757 368 q 482 281 625 292 l 294 267 q 322 197 296 214 q 411 179 349 179 q 686 196 543 179 m 310 400 l 426 411 q 501 430 478 415 q 528 486 524 444 q 514 530 531 519 q 444 539 497 540 q 353 510 381 538 q 310 400 326 483 z "},"é":{"ha":800,"x_min":38,"x_max":771,"o":"m 410 744 l 350 850 l 675 1063 l 761 885 l 410 744 m 686 196 l 703 39 q 386 -17 579 -17 q 94 74 172 -17 q 38 354 17 165 q 156 635 61 561 q 449 710 251 710 q 717 648 644 710 q 771 461 789 586 q 691 330 757 368 q 482 281 625 292 l 294 267 q 322 197 296 214 q 411 179 349 179 q 686 196 543 179 m 310 400 l 426 411 q 501 430 478 415 q 528 486 524 444 q 514 530 531 519 q 444 539 497 540 q 353 510 381 538 q 310 400 326 483 z "},"ê":{"ha":800,"x_min":38,"x_max":771,"o":"m 253 743 l 193 833 l 400 1021 l 571 1021 l 751 826 l 681 742 l 486 875 l 475 875 l 253 743 m 686 196 l 703 39 q 386 -17 579 -17 q 94 74 172 -17 q 38 354 17 165 q 156 635 61 561 q 449 710 251 710 q 717 648 644 710 q 771 461 789 586 q 691 330 757 368 q 482 281 625 292 l 294 267 q 322 197 296 214 q 411 179 349 179 q 686 196 543 179 m 310 400 l 426 411 q 501 430 478 415 q 528 486 524 444 q 514 530 531 519 q 444 539 497 540 q 353 510 381 538 q 310 400 326 483 z "},"ë":{"ha":800,"x_min":38,"x_max":771,"o":"m 394 801 l 299 801 q 258 846 251 801 l 274 940 q 325 986 279 986 l 415 986 q 456 943 464 986 l 442 844 q 394 801 436 801 m 647 801 l 553 801 q 513 846 506 801 l 526 942 q 576 986 535 986 l 669 986 q 710 943 715 986 l 694 846 q 647 801 690 801 m 686 196 l 703 39 q 386 -17 579 -17 q 94 74 172 -17 q 38 354 17 165 q 156 635 61 561 q 449 710 251 710 q 717 648 644 710 q 771 461 789 586 q 691 330 757 368 q 482 281 625 292 l 294 267 q 322 197 296 214 q 411 179 349 179 q 686 196 543 179 m 310 400 l 426 411 q 501 430 478 415 q 528 486 524 444 q 514 530 531 519 q 444 539 497 540 q 353 510 381 538 q 310 400 326 483 z "},"ì":{"ha":406,"x_min":-28,"x_max":381,"o":"m 381 849 l 300 744 l -28 896 l 74 1057 l 381 849 m 274 0 l 19 0 l 117 690 l 369 690 l 274 0 z "},"í":{"ha":406,"x_min":19,"x_max":542,"o":"m 542 885 l 190 744 l 131 850 l 456 1063 l 542 885 m 274 0 l 19 0 l 117 690 l 369 690 l 274 0 z "},"î":{"ha":406,"x_min":-26,"x_max":532,"o":"m 532 826 l 461 742 l 267 875 l 256 875 l 33 743 l -26 833 l 181 1021 l 351 1021 l 532 826 m 274 0 l 19 0 l 117 690 l 369 690 l 274 0 z "},"ï":{"ha":406,"x_min":19,"x_max":490,"o":"m 357 986 l 449 986 q 490 943 496 986 l 475 846 q 428 801 469 801 l 333 801 q 293 846 285 801 l 307 942 q 357 986 315 986 m 106 986 l 196 986 q 236 943 244 986 l 221 844 q 175 801 217 801 l 79 801 q 39 846 32 801 l 54 940 q 106 986 60 986 m 274 0 l 19 0 l 117 690 l 369 690 l 274 0 z "},"ð":{"ha":821,"x_min":33,"x_max":828,"o":"m 828 896 l 717 801 q 768 392 801 661 q 643 75 740 169 q 351 -19 546 -19 q 94 62 176 -19 q 33 308 11 143 q 135 550 54 472 q 360 628 215 628 q 521 586 461 628 q 459 769 521 721 q 240 808 397 818 l 269 969 q 579 925 463 981 l 704 1035 l 828 896 m 368 160 q 460 213 433 160 q 507 411 488 265 l 511 440 q 428 460 476 460 q 338 424 365 460 q 297 304 311 389 q 299 190 285 219 q 368 160 313 160 z "},"ñ":{"ha":846,"x_min":14,"x_max":794,"o":"m 331 785 l 226 794 q 262 955 225 901 q 360 1007 299 1008 q 483 976 404 1006 q 576 943 561 946 q 626 951 611 936 q 646 1004 642 967 l 750 994 q 718 835 754 889 q 621 783 682 782 q 493 815 574 785 q 399 847 413 844 q 350 838 364 853 q 331 785 336 822 m 308 690 l 311 561 q 619 710 463 710 q 758 658 708 710 q 794 513 808 607 l 722 0 l 469 0 l 531 433 q 527 485 536 472 q 489 496 518 499 q 325 417 424 494 l 267 0 l 14 0 l 110 690 l 308 690 z "},"ò":{"ha":836,"x_min":38,"x_max":782,"o":"m 604 849 l 522 744 l 194 896 l 297 1057 l 604 849 m 447 710 q 731 623 650 710 q 782 335 811 536 q 663 62 754 140 q 375 -17 572 -17 q 91 69 174 -17 q 38 354 8 156 q 156 631 65 551 q 447 710 246 710 m 443 532 q 346 494 374 532 q 300 335 318 456 q 301 194 285 228 q 383 160 317 160 q 476 199 449 160 q 521 354 504 238 q 522 497 538 463 q 443 532 507 532 z "},"ó":{"ha":836,"x_min":38,"x_max":782,"o":"m 764 885 l 413 744 l 353 850 l 678 1063 l 764 885 m 447 710 q 731 623 650 710 q 782 335 811 536 q 663 62 754 140 q 375 -17 572 -17 q 91 69 174 -17 q 38 354 8 156 q 156 631 65 551 q 447 710 246 710 m 443 532 q 346 494 374 532 q 300 335 318 456 q 301 194 285 228 q 383 160 317 160 q 476 199 449 160 q 521 354 504 238 q 522 497 538 463 q 443 532 507 532 z "},"ô":{"ha":836,"x_min":38,"x_max":782,"o":"m 754 826 l 683 742 l 489 875 l 478 875 l 256 743 l 196 833 l 403 1021 l 574 1021 l 754 826 m 447 710 q 731 623 650 710 q 782 335 811 536 q 663 62 754 140 q 375 -17 572 -17 q 91 69 174 -17 q 38 354 8 156 q 156 631 65 551 q 447 710 246 710 m 443 532 q 346 494 374 532 q 300 335 318 456 q 301 194 285 228 q 383 160 317 160 q 476 199 449 160 q 521 354 504 238 q 522 497 538 463 q 443 532 507 532 z "},"õ":{"ha":836,"x_min":38,"x_max":782,"o":"m 324 785 l 221 794 q 256 955 219 901 q 354 1007 292 1008 q 476 976 397 1006 q 569 943 556 946 q 620 951 606 936 q 640 1004 635 967 l 743 994 q 711 835 747 889 q 614 783 675 782 q 487 815 567 785 q 392 847 407 844 q 343 838 357 853 q 324 785 329 822 m 447 710 q 731 623 650 710 q 782 335 811 536 q 663 62 754 140 q 375 -17 572 -17 q 91 69 174 -17 q 38 354 8 156 q 156 631 65 551 q 447 710 246 710 m 443 532 q 346 494 374 532 q 300 335 318 456 q 301 194 285 228 q 383 160 317 160 q 476 199 449 160 q 521 354 504 238 q 522 497 538 463 q 443 532 507 532 z "},"ö":{"ha":836,"x_min":38,"x_max":782,"o":"m 579 986 l 672 986 q 713 943 718 986 l 697 846 q 650 801 693 801 l 556 801 q 515 846 508 801 l 529 942 q 579 986 538 986 m 328 986 l 418 986 q 458 943 467 986 l 444 844 q 397 801 439 801 l 301 801 q 261 846 254 801 l 276 940 q 328 986 282 986 m 447 710 q 731 623 650 710 q 782 335 811 536 q 663 62 754 140 q 375 -17 572 -17 q 91 69 174 -17 q 38 354 8 156 q 156 631 65 551 q 447 710 246 710 m 443 532 q 346 494 374 532 q 300 335 318 456 q 301 194 285 228 q 383 160 317 160 q 476 199 449 160 q 521 354 504 238 q 522 497 538 463 q 443 532 507 532 z "},"÷":{"ha":746,"x_min":33,"x_max":713,"o":"m 399 789 l 450 789 q 526 767 506 789 q 539 692 547 746 l 536 661 q 504 585 528 606 q 426 564 481 564 l 369 564 q 292 586 313 564 q 279 664 272 608 l 283 694 q 317 769 292 750 q 399 789 342 789 m 685 314 l 33 314 l 61 499 l 713 499 l 685 314 m 319 244 l 369 244 q 447 223 426 244 q 460 146 468 201 l 456 114 q 426 39 449 58 q 347 19 403 19 l 290 19 q 213 42 233 19 q 201 119 192 64 l 206 150 q 237 224 211 204 q 319 244 263 244 z "},"ø":{"ha":836,"x_min":38,"x_max":782,"o":"m 776 751 l 708 643 q 782 335 813 557 q 663 62 754 140 q 375 -17 572 -17 q 307 -14 328 -17 l 225 -144 l 67 -58 l 128 39 q 38 354 3 119 q 156 631 65 551 q 447 710 246 710 q 535 704 497 710 l 618 839 l 776 751 m 521 354 q 522 497 538 463 q 443 532 507 532 q 346 494 374 532 q 300 335 318 456 q 301 194 285 228 q 383 160 317 160 q 476 199 449 160 q 521 354 504 238 z "},"ù":{"ha":835,"x_min":35,"x_max":804,"o":"m 522 757 l 194 910 l 296 1069 l 603 863 l 522 757 m 804 690 l 708 0 l 511 0 l 510 124 q 219 -19 361 -19 q 69 33 117 -19 q 35 178 21 85 l 106 690 l 360 690 l 296 249 q 302 206 292 218 q 336 193 313 193 q 494 269 399 193 l 554 690 l 804 690 z "},"ú":{"ha":835,"x_min":35,"x_max":804,"o":"m 413 757 l 353 863 l 678 1076 l 764 897 l 413 757 m 804 690 l 708 0 l 511 0 l 510 124 q 219 -19 361 -19 q 69 33 117 -19 q 35 178 21 85 l 106 690 l 360 690 l 296 249 q 302 206 292 218 q 336 193 313 193 q 494 269 399 193 l 554 690 l 804 690 z "},"û":{"ha":835,"x_min":35,"x_max":804,"o":"m 256 756 l 196 846 l 403 1033 l 574 1033 l 754 839 l 683 756 l 489 889 l 478 889 l 256 756 m 804 690 l 708 0 l 511 0 l 510 124 q 219 -19 361 -19 q 69 33 117 -19 q 35 178 21 85 l 106 690 l 360 690 l 296 249 q 302 206 292 218 q 336 193 313 193 q 494 269 399 193 l 554 690 l 804 690 z "},"ü":{"ha":835,"x_min":35,"x_max":804,"o":"m 650 815 l 556 815 q 515 858 507 815 l 529 954 q 579 1000 536 1000 l 671 1000 q 713 956 719 1000 l 697 858 q 650 815 692 815 m 397 815 l 301 815 q 261 858 256 815 l 276 953 q 328 1000 282 1000 l 418 1000 q 458 956 467 1000 l 443 858 q 397 815 439 815 m 804 690 l 708 0 l 511 0 l 510 124 q 219 -19 361 -19 q 69 33 117 -19 q 35 178 21 85 l 106 690 l 360 690 l 296 249 q 302 206 292 218 q 336 193 313 193 q 494 269 399 193 l 554 690 l 804 690 z "},"ý":{"ha":836,"x_min":44,"x_max":839,"o":"m 394 744 l 335 850 l 660 1063 l 746 885 l 394 744 m 569 690 l 839 690 q 743 335 814 526 q 613 42 672 144 q 383 -208 510 -131 q 88 -285 256 -286 l 67 -142 q 99 -132 72 -140 q 132 -122 125 -124 q 160 -112 139 -119 q 191 -100 182 -104 q 219 -87 200 -96 q 248 -71 238 -79 q 274 -52 258 -62 q 301 -28 289 -42 q 326 0 314 -15 l 229 0 q 172 20 196 0 q 143 72 149 40 l 44 690 l 319 690 l 356 181 q 378 158 356 158 l 422 158 q 569 690 521 372 z "},"þ":{"ha":840,"x_min":-21,"x_max":783,"o":"m 344 618 l 349 608 q 581 707 450 707 q 759 617 711 707 q 783 329 807 528 q 682 60 760 139 q 481 -19 604 -19 q 264 -1 358 -19 q 251 -111 258 -76 l 231 -257 l -21 -257 l 150 972 l 403 972 l 381 807 q 344 618 367 706 m 288 143 l 374 143 q 482 175 454 143 q 525 325 510 207 q 533 469 540 428 q 482 510 525 510 q 397 479 435 510 q 321 390 360 449 l 288 143 z "},"ÿ":{"ha":836,"x_min":44,"x_max":839,"o":"m 633 801 l 538 801 q 497 846 490 801 l 513 942 q 561 986 518 986 l 654 986 q 694 943 703 986 l 681 846 q 633 801 675 801 m 379 801 l 285 801 q 244 846 236 801 l 258 940 q 311 986 264 986 l 400 986 q 440 943 449 986 l 426 844 q 379 801 421 801 m 569 690 l 839 690 q 743 335 814 526 q 613 42 672 144 q 383 -208 510 -131 q 88 -285 256 -286 l 67 -142 q 99 -132 72 -140 q 132 -122 125 -124 q 160 -112 139 -119 q 191 -100 182 -104 q 219 -87 200 -96 q 248 -71 238 -79 q 274 -52 258 -62 q 301 -28 289 -42 q 326 0 314 -15 l 229 0 q 172 20 196 0 q 143 72 149 40 l 44 690 l 319 690 l 356 181 q 378 158 356 158 l 422 158 q 569 690 521 372 z "},"Ā":{"ha":922,"x_min":-62,"x_max":874,"o":"m 765 1075 l 335 1075 l 356 1229 l 788 1229 l 765 1075 m 590 224 l 297 224 l 210 0 l -62 0 l 322 896 q 415 958 349 958 l 654 958 q 710 938 686 958 q 738 886 735 917 l 874 0 l 613 0 l 590 224 m 569 421 l 544 665 q 540 765 540 699 l 500 765 q 471 667 488 714 l 374 421 l 569 421 z "},"ā":{"ha":838,"x_min":42,"x_max":804,"o":"m 700 817 l 269 817 l 290 971 l 722 971 l 700 817 m 710 0 l 514 0 l 514 131 q 239 -17 417 -8 q 57 71 101 -24 q 42 361 13 165 q 85 522 57 457 q 145 624 113 588 q 233 681 178 661 q 337 705 288 700 q 465 710 386 710 q 646 696 538 710 q 804 667 754 682 l 710 0 m 535 536 l 453 538 q 347 506 379 538 q 299 365 314 475 q 288 213 281 246 q 338 181 294 179 q 501 301 413 185 l 535 536 z "},"Ă":{"ha":922,"x_min":-62,"x_max":874,"o":"m 700 1267 l 815 1247 q 744 1089 815 1153 q 556 1025 674 1025 q 372 1094 435 1025 q 338 1256 310 1164 l 457 1263 q 476 1201 450 1219 q 564 1182 503 1182 q 700 1267 692 1182 m 590 224 l 297 224 l 210 0 l -62 0 l 322 896 q 415 958 349 958 l 654 958 q 710 938 686 958 q 738 886 735 917 l 874 0 l 613 0 l 590 224 m 569 421 l 544 665 q 540 765 540 699 l 500 765 q 471 667 488 714 l 374 421 l 569 421 z "},"ă":{"ha":838,"x_min":42,"x_max":804,"o":"m 635 1008 l 750 989 q 679 832 750 896 q 490 768 608 768 q 307 837 369 768 q 272 999 244 906 l 392 1006 q 412 944 386 963 q 499 925 438 925 q 635 1008 626 925 m 710 0 l 514 0 l 514 131 q 239 -17 417 -8 q 57 71 101 -24 q 42 361 13 165 q 85 522 57 457 q 145 624 113 588 q 233 681 178 661 q 337 705 288 700 q 465 710 386 710 q 646 696 538 710 q 804 667 754 682 l 710 0 m 535 536 l 453 538 q 347 506 379 538 q 299 365 314 475 q 288 213 281 246 q 338 181 294 179 q 501 301 413 185 l 535 536 z "},"Ą":{"ha":922,"x_min":-62,"x_max":875,"o":"m 738 886 l 875 0 q 786 -135 818 -61 q 788 -173 774 -164 q 842 -172 801 -182 l 861 -264 q 743 -292 796 -287 q 660 -284 690 -297 q 610 -249 629 -271 q 593 -197 590 -226 q 608 -136 596 -167 q 753 0 644 -65 l 613 0 l 590 224 l 297 224 l 210 0 l -62 0 l 322 896 q 415 958 349 958 l 654 958 q 710 938 686 958 q 738 886 735 917 m 569 421 l 544 665 q 540 765 540 699 l 500 765 q 471 667 488 714 l 374 421 l 569 421 z "},"ą":{"ha":838,"x_min":42,"x_max":804,"o":"m 804 667 l 710 0 q 621 -135 653 -61 q 622 -173 608 -164 q 676 -172 636 -182 l 697 -264 q 579 -292 632 -287 q 496 -284 526 -297 q 445 -249 465 -271 q 428 -197 425 -226 q 443 -136 431 -167 q 589 0 483 -64 l 514 0 l 514 131 q 239 -17 417 -8 q 57 71 101 -24 q 42 361 13 165 q 85 522 57 457 q 145 624 113 588 q 233 681 178 661 q 337 705 288 700 q 465 710 386 710 q 646 696 538 710 q 804 667 754 682 m 535 536 l 453 538 q 347 506 379 538 q 299 365 314 475 q 288 213 281 246 q 338 181 294 179 q 501 301 413 185 l 535 536 z "},"Ć":{"ha":825,"x_min":65,"x_max":846,"o":"m 846 1143 l 494 1003 l 435 1108 l 760 1321 l 846 1143 m 739 217 l 749 25 q 428 -17 614 -17 q 110 99 194 -17 q 65 489 26 214 q 206 873 104 771 q 540 975 307 975 q 842 939 714 975 l 811 749 q 528 753 665 753 q 433 733 465 753 q 377 653 400 714 q 338 469 354 593 q 333 258 314 311 q 439 206 351 206 q 739 217 622 206 z "},"ć":{"ha":726,"x_min":38,"x_max":735,"o":"m 735 885 l 383 744 l 325 850 l 650 1063 l 735 885 m 631 196 l 649 33 q 360 -17 533 -17 q 91 72 172 -17 q 38 356 10 160 q 149 628 64 547 q 422 710 235 710 q 715 660 599 710 l 681 506 l 454 507 q 344 474 376 507 q 300 347 313 440 q 308 215 286 246 q 406 185 329 185 q 631 196 535 185 z "},"Ċ":{"ha":825,"x_min":65,"x_max":842,"o":"m 540 1253 l 614 1253 q 667 1234 647 1253 q 682 1181 686 1215 l 674 1110 q 601 1046 665 1046 l 525 1046 q 457 1119 446 1046 l 467 1188 q 540 1253 475 1253 m 739 217 l 749 25 q 428 -17 614 -17 q 110 99 194 -17 q 65 489 26 214 q 206 873 104 771 q 540 975 307 975 q 842 939 714 975 l 811 749 q 528 753 665 753 q 433 733 465 753 q 377 653 400 714 q 338 469 354 593 q 333 258 314 311 q 439 206 351 206 q 739 217 622 206 z "},"ċ":{"ha":726,"x_min":38,"x_max":715,"o":"m 431 994 l 503 994 q 556 976 538 994 q 572 922 575 957 l 564 851 q 490 788 556 788 l 414 788 q 347 861 336 788 l 356 929 q 431 994 367 994 m 631 196 l 649 33 q 360 -17 533 -17 q 91 72 172 -17 q 38 356 10 160 q 149 628 64 547 q 422 710 235 710 q 715 660 599 710 l 681 506 l 454 507 q 344 474 376 507 q 300 347 313 440 q 308 215 286 246 q 406 185 329 185 q 631 196 535 185 z "},"Č":{"ha":825,"x_min":65,"x_max":849,"o":"m 849 1208 l 613 1026 l 500 1026 l 292 1224 l 367 1306 l 557 1186 l 568 1186 l 796 1301 l 849 1208 m 739 217 l 749 25 q 428 -17 614 -17 q 110 99 194 -17 q 65 489 26 214 q 206 873 104 771 q 540 975 307 975 q 842 939 714 975 l 811 749 q 528 753 665 753 q 433 733 465 753 q 377 653 400 714 q 338 469 354 593 q 333 258 314 311 q 439 206 351 206 q 739 217 622 206 z "},"č":{"ha":726,"x_min":38,"x_max":739,"o":"m 739 950 l 501 768 l 389 768 l 181 965 l 256 1046 l 446 928 l 457 928 l 686 1043 l 739 950 m 631 196 l 649 33 q 360 -17 533 -17 q 91 72 172 -17 q 38 356 10 160 q 149 628 64 547 q 422 710 235 710 q 715 660 599 710 l 681 506 l 454 507 q 344 474 376 507 q 300 347 313 440 q 308 215 286 246 q 406 185 329 185 q 631 196 535 185 z "},"Ď":{"ha":958,"x_min":26,"x_max":914,"o":"m 492 1025 l 283 1222 l 358 1304 l 549 1185 l 560 1185 l 789 1300 l 842 1207 l 604 1025 l 492 1025 m 26 0 l 161 958 q 529 972 332 972 q 781 928 690 972 q 906 774 871 885 q 914 469 940 663 q 859 226 892 318 q 767 79 826 133 q 628 6 707 25 q 425 -14 550 -14 q 26 0 228 -14 m 313 183 l 422 182 q 528 204 490 182 q 595 293 567 226 q 640 489 624 360 q 642 724 664 669 q 521 778 619 778 l 396 776 l 313 183 z "},"ď":{"ha":842,"x_min":42,"x_max":1106,"o":"m 597 972 l 850 972 l 713 0 l 514 0 l 511 117 q 240 -17 372 -17 q 42 361 -8 -17 q 83 537 56 467 q 151 644 110 607 q 237 695 192 681 q 342 710 282 710 q 564 690 460 710 q 574 832 564 772 l 597 972 m 989 972 l 1032 972 q 1094 956 1076 972 q 1106 901 1111 939 l 1094 832 q 1056 719 1085 778 q 990 621 1028 661 l 894 650 q 946 793 921 707 q 897 807 910 792 q 886 853 883 822 l 896 906 q 924 958 903 943 q 989 972 944 972 m 535 547 l 450 547 q 342 515 369 547 q 299 365 314 483 q 290 231 283 271 q 342 194 297 192 q 497 267 410 196 l 535 547 z "},"Đ":{"ha":958,"x_min":18,"x_max":914,"o":"m 106 567 l 161 958 q 529 972 332 972 q 781 928 690 972 q 906 774 871 885 q 914 469 940 663 q 859 226 892 318 q 767 79 826 133 q 628 6 707 25 q 425 -14 550 -14 q 26 0 228 -14 l 89 443 l 18 443 l 35 567 l 106 567 m 313 183 l 422 182 q 528 204 490 182 q 595 293 567 226 q 640 489 624 360 q 642 724 664 669 q 521 778 619 778 l 396 776 l 367 567 l 510 567 l 492 443 l 349 443 l 313 183 z "},"đ":{"ha":846,"x_min":42,"x_max":928,"o":"m 913 769 l 822 769 l 713 0 l 514 0 l 511 117 q 240 -17 372 -17 q 42 361 -8 -17 q 83 537 56 467 q 151 644 110 607 q 237 695 192 681 q 342 710 282 710 q 564 690 460 710 q 567 769 564 742 l 418 769 l 433 875 l 581 875 l 597 972 l 850 972 l 836 875 l 928 875 l 913 769 m 535 547 l 450 547 q 342 515 369 547 q 299 365 314 483 q 290 231 283 271 q 342 194 297 192 q 497 267 410 196 l 535 547 z "},"Ē":{"ha":806,"x_min":53,"x_max":828,"o":"m 746 1082 l 314 1082 l 335 1236 l 767 1236 l 746 1082 m 797 760 l 453 760 q 399 746 415 760 q 378 696 382 732 l 363 582 l 722 582 l 700 404 l 338 404 l 318 260 q 326 213 313 228 q 374 199 339 199 l 717 199 l 711 10 q 267 -4 593 -4 q 93 63 149 -4 q 53 242 38 129 l 125 761 q 200 909 139 856 q 364 963 261 963 q 828 946 700 963 l 797 760 z "},"ē":{"ha":800,"x_min":38,"x_max":771,"o":"m 688 817 l 256 817 l 278 971 l 708 971 l 688 817 m 686 196 l 703 39 q 386 -17 579 -17 q 94 74 172 -17 q 38 354 17 165 q 156 635 61 561 q 449 710 251 710 q 717 648 644 710 q 771 461 789 586 q 691 330 757 368 q 482 281 625 292 l 294 267 q 322 197 296 214 q 411 179 349 179 q 686 196 543 179 m 310 400 l 426 411 q 501 430 478 415 q 528 486 524 444 q 514 530 531 519 q 444 539 497 540 q 353 510 381 538 q 310 400 326 483 z "},"Ė":{"ha":806,"x_min":53,"x_max":828,"o":"m 575 1053 l 499 1053 q 431 1126 419 1053 l 439 1194 q 514 1258 449 1258 l 586 1258 q 640 1240 621 1258 q 656 1188 658 1222 l 647 1117 q 575 1053 639 1053 m 797 760 l 453 760 q 399 746 415 760 q 378 696 382 732 l 363 582 l 722 582 l 700 404 l 338 404 l 318 260 q 326 213 313 228 q 374 199 339 199 l 717 199 l 711 10 q 267 -4 593 -4 q 93 63 149 -4 q 53 242 38 129 l 125 761 q 200 909 139 856 q 364 963 261 963 q 828 946 700 963 l 797 760 z "},"ė":{"ha":800,"x_min":38,"x_max":771,"o":"m 517 788 l 440 788 q 372 861 361 788 l 382 929 q 456 994 390 994 l 528 994 q 582 976 563 994 q 597 922 601 957 l 589 851 q 517 788 581 788 m 686 196 l 703 39 q 386 -17 579 -17 q 94 74 172 -17 q 38 354 17 165 q 156 635 61 561 q 449 710 251 710 q 717 648 644 710 q 771 461 789 586 q 691 330 757 368 q 482 281 625 292 l 294 267 q 322 197 296 214 q 411 179 349 179 q 686 196 543 179 m 310 400 l 426 411 q 501 430 478 415 q 528 486 524 444 q 514 530 531 519 q 444 539 497 540 q 353 510 381 538 q 310 400 326 483 z "},"Ę":{"ha":806,"x_min":53,"x_max":828,"o":"m 797 760 l 453 760 q 399 746 415 760 q 378 696 382 732 l 363 582 l 722 582 l 700 404 l 338 404 l 318 260 q 326 213 313 228 q 374 199 339 199 l 717 199 l 711 10 q 622 -125 654 -51 q 624 -162 610 -153 q 678 -162 638 -172 l 699 -254 q 580 -283 633 -278 q 497 -274 526 -287 q 447 -239 467 -261 q 429 -186 426 -217 q 444 -126 432 -156 q 572 0 478 -62 q 267 -4 496 -4 q 93 63 149 -4 q 53 242 38 129 l 125 761 q 200 909 139 856 q 364 963 261 963 q 828 946 700 963 l 797 760 z "},"ę":{"ha":800,"x_min":38,"x_max":771,"o":"m 669 -133 l 689 -225 q 571 -253 624 -249 q 488 -245 518 -258 q 438 -210 457 -232 q 421 -158 418 -187 q 436 -97 424 -128 q 513 -10 458 -51 q 386 -17 440 -17 q 94 74 172 -17 q 38 354 17 165 q 156 635 61 561 q 449 710 251 710 q 717 648 644 710 q 771 461 789 586 q 691 330 757 368 q 482 281 625 292 l 294 267 q 322 197 296 214 q 411 179 349 179 q 686 196 543 179 l 703 39 q 614 -96 646 -22 q 615 -134 601 -125 q 669 -133 629 -143 m 310 400 l 426 411 q 501 430 478 415 q 528 486 524 444 q 514 530 531 519 q 444 539 497 540 q 353 510 381 538 q 310 400 326 483 z "},"Ě":{"ha":806,"x_min":53,"x_max":828,"o":"m 472 1032 l 264 1231 l 339 1311 l 531 1192 l 542 1192 l 769 1307 l 822 1214 l 585 1032 l 472 1032 m 797 760 l 453 760 q 399 746 415 760 q 378 696 382 732 l 363 582 l 722 582 l 700 404 l 338 404 l 318 260 q 326 213 313 228 q 374 199 339 199 l 717 199 l 711 10 q 267 -4 593 -4 q 93 63 149 -4 q 53 242 38 129 l 125 761 q 200 909 139 856 q 364 963 261 963 q 828 946 700 963 l 797 760 z "},"ě":{"ha":800,"x_min":38,"x_max":771,"o":"m 415 768 l 207 965 l 281 1046 l 472 928 l 483 928 l 711 1043 l 764 950 l 528 768 l 415 768 m 686 196 l 703 39 q 386 -17 579 -17 q 94 74 172 -17 q 38 354 17 165 q 156 635 61 561 q 449 710 251 710 q 717 648 644 710 q 771 461 789 586 q 691 330 757 368 q 482 281 625 292 l 294 267 q 322 197 296 214 q 411 179 349 179 q 686 196 543 179 m 310 400 l 426 411 q 501 430 478 415 q 528 486 524 444 q 514 530 531 519 q 444 539 497 540 q 353 510 381 538 q 310 400 326 483 z "},"Ğ":{"ha":914,"x_min":67,"x_max":883,"o":"m 718 1267 l 833 1247 q 764 1089 835 1153 q 574 1025 693 1025 q 391 1094 453 1025 q 357 1256 329 1164 l 475 1263 q 495 1201 469 1219 q 582 1182 521 1182 q 718 1267 710 1182 m 625 553 l 874 553 l 796 0 l 606 0 l 596 114 q 313 -19 468 -19 q 67 489 -1 -19 q 125 734 88 639 q 227 883 163 829 q 373 958 292 938 q 575 978 454 978 q 883 939 749 978 l 853 751 q 565 756 706 756 q 408 698 454 756 q 338 469 363 640 q 335 258 317 313 q 429 204 353 204 q 496 215 465 204 q 542 238 526 226 q 585 271 557 249 l 625 553 z "},"ğ":{"ha":843,"x_min":10,"x_max":810,"o":"m 633 1015 l 749 994 q 679 838 750 901 q 489 774 608 774 q 306 843 368 774 q 272 1004 244 913 l 392 1011 q 410 949 385 968 q 497 931 436 931 q 633 1015 625 931 m 810 667 l 729 96 q 677 -95 715 -18 q 578 -212 639 -172 q 450 -269 517 -253 q 294 -285 383 -285 q 10 -242 110 -285 l 24 -100 q 208 -101 68 -101 q 476 4 425 -101 q 503 78 488 26 q 533 156 518 129 q 240 -7 431 0 q 60 80 106 -12 q 43 361 14 172 q 92 553 61 481 q 174 658 124 625 q 274 701 225 692 q 406 710 322 710 q 810 667 647 710 m 540 536 l 454 538 q 344 506 372 538 q 300 365 317 474 q 291 211 282 247 q 342 181 300 175 q 507 301 424 190 l 540 536 z "},"Ġ":{"ha":914,"x_min":67,"x_max":883,"o":"m 613 1044 l 536 1044 q 469 1119 458 1044 l 478 1188 q 553 1251 488 1251 l 625 1251 q 678 1233 660 1251 q 693 1179 697 1214 l 686 1110 q 613 1044 678 1044 m 625 553 l 874 553 l 796 0 l 606 0 l 596 114 q 313 -19 468 -19 q 67 489 -1 -19 q 125 734 88 639 q 227 883 163 829 q 373 958 292 938 q 575 978 454 978 q 883 939 749 978 l 853 751 q 565 756 706 756 q 408 698 454 756 q 338 469 363 640 q 335 258 317 313 q 429 204 353 204 q 496 215 465 204 q 542 238 526 226 q 585 271 557 249 l 625 553 z "},"ġ":{"ha":843,"x_min":10,"x_max":810,"o":"m 528 793 l 451 793 q 385 867 374 793 l 393 936 q 468 1000 404 1000 l 540 1000 q 594 981 575 1000 q 610 928 613 963 l 601 857 q 528 793 593 793 m 810 667 l 729 96 q 677 -95 715 -18 q 578 -212 639 -172 q 450 -269 517 -253 q 294 -285 383 -285 q 10 -242 110 -285 l 24 -100 q 208 -101 68 -101 q 476 4 425 -101 q 503 78 488 26 q 533 156 518 129 q 240 -7 431 0 q 60 80 106 -12 q 43 361 14 172 q 92 553 61 481 q 174 658 124 625 q 274 701 225 692 q 406 710 322 710 q 810 667 647 710 m 540 536 l 454 538 q 344 506 372 538 q 300 365 317 474 q 291 211 282 247 q 342 181 300 175 q 507 301 424 190 l 540 536 z "},"Ģ":{"ha":914,"x_min":67,"x_max":883,"o":"m 625 553 l 874 553 l 796 0 l 606 0 l 596 114 q 313 -19 468 -19 q 67 489 -1 -19 q 125 734 88 639 q 227 883 163 829 q 373 958 292 938 q 575 978 454 978 q 883 939 749 978 l 853 751 q 565 756 706 756 q 408 698 454 756 q 338 469 363 640 q 335 258 317 313 q 429 204 353 204 q 496 215 465 204 q 542 238 526 226 q 585 271 557 249 l 625 553 m 415 -69 l 460 -69 q 521 -86 504 -69 q 532 -140 538 -103 l 521 -210 q 483 -322 513 -262 q 417 -422 454 -381 l 321 -392 q 372 -249 346 -343 q 323 -235 336 -250 q 314 -187 310 -219 l 322 -135 q 350 -83 329 -97 q 415 -69 371 -69 z "},"ģ":{"ha":843,"x_min":10,"x_max":810,"o":"m 504 763 l 461 763 q 399 779 417 763 q 388 833 382 796 l 399 903 q 503 1115 418 1022 l 599 1085 q 547 942 571 1024 q 597 928 583 943 q 606 882 610 913 l 597 829 q 569 777 590 792 q 504 763 547 763 m 810 667 l 729 96 q 677 -95 715 -18 q 578 -212 639 -172 q 450 -269 517 -253 q 294 -285 383 -285 q 10 -242 110 -285 l 24 -100 q 208 -101 68 -101 q 476 4 425 -101 q 503 78 488 26 q 533 156 518 129 q 240 -7 431 0 q 60 80 106 -12 q 43 361 14 172 q 92 553 61 481 q 174 658 124 625 q 274 701 225 692 q 406 710 322 710 q 810 667 647 710 m 540 536 l 454 538 q 344 506 372 538 q 300 365 317 474 q 291 211 282 247 q 342 181 300 175 q 507 301 424 190 l 540 536 z "},"Ħ":{"ha":965,"x_min":26,"x_max":1021,"o":"m 1004 710 l 925 710 l 825 0 l 564 0 l 622 413 l 346 413 l 288 0 l 26 0 l 126 710 l 50 710 l 67 825 l 143 825 l 161 958 l 422 958 l 404 825 l 681 825 l 699 958 l 960 958 l 940 825 l 1021 825 l 1004 710 m 664 710 l 388 710 l 374 604 l 649 604 l 664 710 z "},"ħ":{"ha":842,"x_min":10,"x_max":789,"o":"m 371 769 l 368 746 q 329 579 357 667 q 607 710 476 710 q 755 658 707 710 q 789 513 803 607 l 717 0 l 465 0 l 528 442 q 526 485 533 475 q 493 496 518 496 q 319 415 424 496 l 263 0 l 10 0 l 118 769 l 42 769 l 57 875 l 133 875 l 147 972 l 399 972 l 386 875 l 551 875 l 538 769 l 371 769 z "},"Ī":{"ha":428,"x_min":26,"x_max":543,"o":"m 522 1075 l 90 1075 l 113 1229 l 543 1229 l 522 1075 m 288 0 l 26 0 l 161 958 l 422 958 l 288 0 z "},"ī":{"ha":406,"x_min":19,"x_max":489,"o":"m 468 817 l 36 817 l 57 971 l 489 971 l 468 817 m 274 0 l 19 0 l 117 690 l 369 690 l 274 0 z "},"Į":{"ha":428,"x_min":-29,"x_max":422,"o":"m 422 958 l 288 0 l 253 0 q 164 -135 196 -61 q 165 -173 151 -164 q 219 -172 179 -182 l 239 -264 q 121 -292 174 -287 q 38 -284 68 -297 q -12 -249 7 -271 q -29 -197 -32 -226 q -14 -136 -26 -167 q 131 0 22 -67 l 26 0 l 161 958 l 422 958 z "},"į":{"ha":406,"x_min":-32,"x_max":378,"o":"m 236 994 l 308 994 q 362 976 343 994 q 378 922 381 957 l 369 851 q 297 788 361 788 l 221 788 q 153 861 142 788 l 161 929 q 236 994 172 994 m 117 690 l 369 690 l 274 0 l 250 0 q 161 -135 193 -61 q 163 -173 149 -164 q 217 -172 176 -182 l 236 -264 q 118 -292 171 -287 q 35 -284 65 -297 q -15 -249 4 -271 q -32 -197 -35 -226 q -17 -136 -29 -167 q 128 0 19 -65 l 19 0 l 117 690 z "},"İ":{"ha":428,"x_min":26,"x_max":432,"o":"m 290 1251 l 363 1251 q 417 1233 397 1251 q 432 1179 436 1214 l 424 1110 q 351 1044 415 1044 l 275 1044 q 207 1119 196 1044 l 217 1188 q 290 1251 225 1251 m 288 0 l 26 0 l 161 958 l 422 958 l 288 0 z "},"ı":{"ha":406,"x_min":19,"x_max":369,"o":"m 274 0 l 19 0 l 117 690 l 369 690 l 274 0 z "},"Ĳ":{"ha":957,"x_min":26,"x_max":954,"o":"m 288 0 l 26 0 l 161 958 l 422 958 l 288 0 m 954 958 l 847 183 q 769 34 833 86 q 603 -18 704 -18 q 490 -8 551 -18 q 400 17 428 1 l 442 182 l 496 182 q 592 247 585 182 l 694 958 l 954 958 z "},"ĳ":{"ha":810,"x_min":19,"x_max":806,"o":"m 231 1001 l 331 1001 q 403 922 411 1001 l 393 850 q 311 781 383 781 l 208 781 q 139 860 129 781 l 149 932 q 231 1001 154 1001 m 636 1001 l 735 1001 q 806 922 817 1001 l 796 850 q 711 781 786 781 l 613 781 q 542 860 532 781 l 551 932 q 636 1001 560 1001 m 271 0 l 19 0 l 115 690 l 367 690 l 271 0 m 775 690 l 683 54 q 607 -139 669 -50 q 450 -271 544 -228 l 313 -154 q 432 64 415 -54 l 522 690 l 775 690 z "},"Ķ":{"ha":904,"x_min":26,"x_max":972,"o":"m 599 483 l 597 476 q 667 385 638 454 l 849 0 l 565 0 l 394 410 l 335 410 q 333 315 339 357 l 289 0 l 26 0 l 161 958 l 424 958 l 385 686 q 363 585 378 633 l 424 585 l 679 958 l 972 958 l 690 561 q 599 483 656 507 m 394 -69 l 438 -69 q 499 -86 482 -69 q 511 -140 517 -103 l 500 -210 q 462 -322 490 -262 q 396 -422 433 -381 l 300 -392 q 351 -249 326 -335 q 301 -235 315 -250 q 292 -187 288 -219 l 301 -135 q 329 -83 308 -97 q 394 -69 350 -69 z "},"ķ":{"ha":817,"x_min":14,"x_max":803,"o":"m 544 690 l 803 690 q 571 363 753 488 q 639 272 614 328 l 767 0 l 506 0 l 388 268 q 299 235 339 249 l 297 214 l 267 0 l 14 0 l 150 972 l 403 972 l 349 576 q 293 406 335 493 q 456 532 388 457 q 544 690 525 607 m 357 -58 l 401 -58 q 463 -75 446 -58 q 475 -131 481 -92 l 464 -199 q 425 -311 454 -251 q 360 -411 396 -371 l 264 -382 q 315 -237 293 -319 q 265 -224 279 -239 q 256 -178 251 -208 l 265 -125 q 293 -73 272 -87 q 357 -58 314 -58 z "},"Ĺ":{"ha":751,"x_min":54,"x_max":696,"o":"m 593 1128 l 242 988 l 182 1093 l 507 1307 l 593 1128 m 418 958 l 318 271 q 327 223 315 238 q 374 208 339 208 l 696 208 l 690 11 q 257 -4 565 -4 q 97 57 154 -4 q 54 218 40 118 l 157 958 l 418 958 z "},"ĺ":{"ha":478,"x_min":39,"x_max":588,"o":"m 588 1154 l 236 1015 l 176 1121 l 501 1333 l 588 1154 m 403 972 l 297 235 q 303 192 292 203 q 356 181 315 181 l 414 181 l 428 11 q 246 -18 371 -18 q 83 35 139 -18 q 39 179 28 88 l 151 972 l 403 972 z "},"Ļ":{"ha":751,"x_min":54,"x_max":696,"o":"m 418 958 l 318 271 q 327 223 315 238 q 374 208 339 208 l 696 208 l 690 11 q 257 -4 565 -4 q 97 57 154 -4 q 54 218 40 118 l 157 958 l 418 958 m 339 -69 l 383 -69 q 444 -86 428 -69 q 456 -140 461 -103 l 444 -210 q 407 -322 436 -262 q 340 -422 378 -381 l 244 -392 q 296 -249 269 -343 q 247 -235 260 -250 q 238 -187 233 -219 l 246 -135 q 274 -83 253 -97 q 339 -69 294 -69 z "},"ļ":{"ha":478,"x_min":39,"x_max":428,"o":"m 403 972 l 297 235 q 303 192 292 203 q 356 181 315 181 l 414 181 l 428 11 q 246 -18 371 -18 q 83 35 139 -18 q 39 179 28 88 l 151 972 l 403 972 m 192 -64 l 235 -64 q 297 -80 279 -64 q 308 -135 314 -96 l 297 -204 q 258 -317 288 -257 q 193 -417 229 -376 l 97 -386 q 149 -243 124 -329 q 99 -229 113 -244 q 89 -183 85 -214 l 99 -131 q 126 -78 106 -93 q 192 -64 147 -64 z "},"Ľ":{"ha":751,"x_min":54,"x_max":696,"o":"m 579 960 l 622 960 q 684 942 667 960 q 696 888 701 925 l 685 818 q 647 706 676 765 q 581 606 618 647 l 485 636 q 536 781 513 694 q 487 794 500 779 q 476 840 474 810 l 486 893 q 515 945 493 931 q 579 960 536 960 m 418 958 l 318 271 q 327 223 315 238 q 374 208 339 208 l 696 208 l 690 11 q 257 -4 565 -4 q 97 57 154 -4 q 54 218 40 118 l 157 958 l 418 958 z "},"ľ":{"ha":478,"x_min":39,"x_max":654,"o":"m 403 972 l 297 235 q 303 192 292 203 q 356 181 315 181 l 414 181 l 428 11 q 246 -18 371 -18 q 83 35 139 -18 q 39 179 28 88 l 151 972 l 403 972 m 538 972 l 581 972 q 642 956 625 972 q 654 901 660 940 l 643 832 q 604 719 633 779 q 539 619 575 660 l 443 650 q 494 793 471 711 q 444 807 458 792 q 435 853 431 822 l 444 906 q 472 958 451 943 q 538 972 493 972 z "},"Ŀ":{"ha":751,"x_min":54,"x_max":718,"o":"m 418 958 l 318 271 q 327 223 315 238 q 374 208 339 208 l 696 208 l 690 11 q 257 -4 565 -4 q 97 57 154 -4 q 54 218 40 118 l 157 958 l 418 958 m 635 475 l 563 475 q 510 494 529 475 q 494 547 490 513 l 501 618 q 575 682 510 682 l 651 682 q 718 608 729 682 l 710 540 q 635 475 699 475 z "},"ŀ":{"ha":642,"x_min":39,"x_max":653,"o":"m 403 972 l 297 235 q 303 192 292 203 q 356 181 315 181 l 414 181 l 428 11 q 246 -18 371 -18 q 83 35 139 -18 q 39 179 28 88 l 151 972 l 403 972 m 569 413 l 497 413 q 443 431 463 413 q 428 485 424 450 l 436 556 q 508 619 444 619 l 585 619 q 653 546 664 619 l 643 478 q 569 413 635 413 z "},"Ł":{"ha":756,"x_min":11,"x_max":700,"o":"m 700 208 l 694 11 q 261 -4 569 -4 q 100 57 157 -4 q 58 218 43 118 l 85 413 l 11 385 l 28 515 l 103 543 l 160 958 l 422 958 l 376 644 l 528 701 l 510 571 l 357 514 l 322 271 q 330 223 318 238 q 378 208 342 208 l 700 208 z "},"ł":{"ha":494,"x_min":3,"x_max":521,"o":"m 350 514 l 310 235 q 316 192 304 203 q 368 181 328 181 l 426 181 l 439 11 q 258 -18 382 -18 q 96 35 151 -18 q 51 179 40 88 l 85 415 l 3 385 l 21 515 l 104 546 l 164 972 l 415 972 l 368 644 l 521 701 l 503 571 l 350 514 z "},"Ń":{"ha":1006,"x_min":26,"x_max":1000,"o":"m 881 1142 l 529 1001 l 471 1107 l 796 1321 l 881 1142 m 1000 958 l 878 86 q 849 21 871 42 q 782 0 826 0 l 674 0 q 617 19 636 0 q 579 81 599 38 l 404 493 q 358 644 379 547 l 346 644 q 338 479 347 564 l 268 0 l 26 0 l 149 872 q 244 958 161 958 l 353 958 q 408 940 390 958 q 446 878 426 921 l 618 482 q 672 321 653 403 l 686 321 q 692 481 681 397 l 758 958 l 1000 958 z "},"ń":{"ha":846,"x_min":14,"x_max":794,"o":"m 419 744 l 360 850 l 685 1063 l 771 885 l 419 744 m 308 690 l 311 561 q 619 710 463 710 q 758 658 708 710 q 794 513 808 607 l 722 0 l 469 0 l 531 433 q 527 485 536 472 q 489 496 518 499 q 325 417 424 494 l 267 0 l 14 0 l 110 690 l 308 690 z "},"Ņ":{"ha":1006,"x_min":26,"x_max":1000,"o":"m 1000 958 l 878 86 q 849 21 871 42 q 782 0 826 0 l 674 0 q 617 19 636 0 q 579 81 599 38 l 404 493 q 358 644 379 547 l 346 644 q 338 479 347 564 l 268 0 l 26 0 l 149 872 q 244 958 161 958 l 353 958 q 408 940 390 958 q 446 878 426 921 l 618 482 q 672 321 653 403 l 686 321 q 692 481 681 397 l 758 958 l 1000 958 m 453 -69 l 496 -69 q 558 -85 540 -69 q 569 -140 575 -101 l 558 -210 q 454 -422 538 -326 l 358 -392 q 410 -249 385 -335 q 360 -235 374 -250 q 350 -187 346 -219 l 360 -135 q 388 -83 367 -97 q 453 -69 408 -69 z "},"ņ":{"ha":846,"x_min":14,"x_max":794,"o":"m 308 690 l 311 561 q 619 710 463 710 q 758 658 708 710 q 794 513 808 607 l 722 0 l 469 0 l 531 433 q 527 485 536 472 q 489 496 518 499 q 325 417 424 494 l 267 0 l 14 0 l 110 690 l 308 690 m 336 -58 l 381 -58 q 442 -75 425 -58 q 453 -131 458 -92 l 442 -199 q 338 -411 422 -318 l 242 -382 q 294 -237 265 -333 q 244 -224 258 -239 q 235 -178 231 -208 l 244 -125 q 271 -73 250 -87 q 336 -58 292 -58 z "},"Ň":{"ha":1006,"x_min":26,"x_max":1000,"o":"m 883 1207 l 647 1025 l 535 1025 l 326 1222 l 401 1304 l 592 1185 l 603 1185 l 832 1300 l 883 1207 m 1000 958 l 878 86 q 849 21 871 42 q 782 0 826 0 l 674 0 q 617 19 636 0 q 579 81 599 38 l 404 493 q 358 644 379 547 l 346 644 q 338 479 347 564 l 268 0 l 26 0 l 149 872 q 244 958 161 958 l 353 958 q 408 940 390 958 q 446 878 426 921 l 618 482 q 672 321 653 403 l 686 321 q 692 481 681 397 l 758 958 l 1000 958 z "},"ň":{"ha":846,"x_min":14,"x_max":794,"o":"m 425 768 l 215 965 l 290 1046 l 482 928 l 493 928 l 721 1043 l 774 950 l 536 768 l 425 768 m 308 690 l 311 561 q 619 710 463 710 q 758 658 708 710 q 794 513 808 607 l 722 0 l 469 0 l 531 433 q 527 485 536 472 q 489 496 518 499 q 325 417 424 494 l 267 0 l 14 0 l 110 690 l 308 690 z "},"Ŋ":{"ha":1011,"x_min":26,"x_max":1006,"o":"m 1006 958 l 861 -65 q 788 -230 846 -172 q 647 -287 731 -287 q 460 -253 536 -287 l 504 -92 l 551 -92 q 636 -35 625 -92 l 644 14 l 631 13 q 620 17 625 13 q 610 29 615 21 q 603 44 606 38 q 594 63 600 50 q 588 79 589 75 l 404 485 q 361 638 382 533 l 350 638 q 338 474 350 556 l 269 0 l 26 0 l 149 872 q 244 958 161 958 l 357 958 q 415 940 396 958 q 450 878 433 921 l 619 489 q 674 329 658 401 l 685 329 q 696 501 683 399 l 763 958 l 1006 958 z "},"ŋ":{"ha":846,"x_min":14,"x_max":794,"o":"m 307 690 l 311 564 q 608 710 467 710 q 759 658 711 710 q 794 513 807 607 l 715 -44 q 490 -274 683 -274 q 296 -240 363 -274 l 339 -79 l 383 -79 q 465 -21 457 -79 l 532 442 q 526 484 536 472 q 488 493 517 496 q 325 417 428 492 l 267 0 l 14 0 l 110 690 l 307 690 z "},"Ō":{"ha":960,"x_min":65,"x_max":917,"o":"m 789 1075 l 357 1075 l 379 1229 l 810 1229 l 789 1075 m 539 978 q 865 866 775 978 q 917 469 956 754 q 862 229 897 324 q 767 79 826 135 q 631 2 708 24 q 439 -19 554 -19 q 113 91 199 -19 q 65 489 26 201 q 208 874 104 771 q 539 978 313 978 m 535 778 q 405 717 443 778 q 338 469 367 657 q 334 238 313 294 q 444 181 356 181 q 576 241 538 181 q 643 489 615 301 q 647 722 668 667 q 535 778 625 778 z "},"ō":{"ha":836,"x_min":38,"x_max":782,"o":"m 690 817 l 258 817 l 281 971 l 711 971 l 690 817 m 447 710 q 731 623 650 710 q 782 335 811 536 q 663 62 754 140 q 375 -17 572 -17 q 91 69 174 -17 q 38 354 8 156 q 156 631 65 551 q 447 710 246 710 m 443 532 q 346 494 374 532 q 300 335 318 456 q 301 194 285 228 q 383 160 317 160 q 476 199 449 160 q 521 354 504 238 q 522 497 538 463 q 443 532 507 532 z "},"Ő":{"ha":960,"x_min":65,"x_max":947,"o":"m 947 1226 l 700 1003 l 599 1067 l 800 1328 l 947 1226 m 664 1226 l 418 1003 l 317 1068 l 518 1328 l 664 1226 m 539 978 q 865 866 775 978 q 917 469 956 754 q 862 229 897 324 q 767 79 826 135 q 631 2 708 24 q 439 -19 554 -19 q 113 91 199 -19 q 65 489 26 201 q 208 874 104 771 q 539 978 313 978 m 535 778 q 405 717 443 778 q 338 469 367 657 q 334 238 313 294 q 444 181 356 181 q 576 241 538 181 q 643 489 615 301 q 647 722 668 667 q 535 778 625 778 z "},"ő":{"ha":836,"x_min":38,"x_max":849,"o":"m 849 968 l 601 744 l 500 810 l 701 1071 l 849 968 m 565 968 l 319 744 l 218 810 l 419 1071 l 565 968 m 447 710 q 731 623 650 710 q 782 335 811 536 q 663 62 754 140 q 375 -17 572 -17 q 91 69 174 -17 q 38 354 8 156 q 156 631 65 551 q 447 710 246 710 m 443 532 q 346 494 374 532 q 300 335 318 456 q 301 194 285 228 q 383 160 317 160 q 476 199 449 160 q 521 354 504 238 q 522 497 538 463 q 443 532 507 532 z "},"Œ":{"ha":1339,"x_min":65,"x_max":1360,"o":"m 1328 760 l 990 760 q 940 742 961 760 q 917 696 919 725 l 900 578 l 1253 578 l 1232 410 l 876 410 l 854 253 q 901 199 846 199 l 1247 199 l 1243 10 q 792 -4 1125 -4 q 665 26 718 -4 q 432 -19 563 -19 q 106 89 188 -19 q 65 489 24 197 q 208 876 106 774 q 543 978 311 978 q 785 940 681 978 q 890 963 829 963 q 1360 946 1231 963 l 1328 760 m 664 761 l 665 768 q 543 778 621 778 q 407 713 450 778 q 338 469 364 649 q 331 238 313 296 q 431 181 350 181 q 586 200 531 181 l 588 215 l 664 761 z "},"œ":{"ha":1260,"x_min":38,"x_max":1231,"o":"m 1144 196 l 1160 39 q 850 -17 1039 -17 q 613 50 703 -17 q 367 -17 517 -17 q 89 69 169 -17 q 38 354 8 156 q 154 631 65 551 q 439 710 243 710 q 663 649 578 710 q 913 710 757 710 q 1177 648 1106 710 q 1231 461 1249 586 q 1151 330 1217 368 q 946 281 1086 292 l 763 267 q 790 197 764 214 q 875 179 815 179 q 1144 196 1004 179 m 778 400 l 888 411 q 962 430 939 415 q 989 486 985 444 q 976 530 992 519 q 907 539 960 540 q 819 510 844 538 q 778 400 793 483 m 298 194 q 305 177 298 194 q 375 160 313 160 q 463 198 438 160 q 506 354 489 236 q 507 497 521 463 q 433 532 493 532 q 342 494 368 532 q 299 335 317 456 q 298 194 283 228 z "},"Ŕ":{"ha":911,"x_min":26,"x_max":883,"o":"m 475 1001 l 415 1107 l 740 1321 l 826 1142 l 475 1001 m 26 0 l 161 958 q 533 972 294 972 q 817 904 729 972 q 883 674 906 836 q 822 519 871 576 q 668 451 774 463 l 667 442 q 788 292 772 424 l 829 0 l 561 0 l 528 293 q 511 348 525 335 q 461 361 497 361 l 332 361 l 281 0 l 26 0 m 358 551 l 483 551 q 583 576 554 551 q 624 676 613 601 q 612 760 632 738 q 529 782 592 782 l 390 781 l 358 551 z "},"ŕ":{"ha":610,"x_min":14,"x_max":683,"o":"m 332 744 l 274 850 l 599 1063 l 683 885 l 332 744 m 308 690 l 313 581 q 596 710 460 710 l 643 710 l 589 478 l 531 478 q 326 429 464 478 l 268 0 l 14 0 l 111 690 l 308 690 z "},"Ŗ":{"ha":911,"x_min":26,"x_max":883,"o":"m 26 0 l 161 958 q 533 972 294 972 q 817 904 729 972 q 883 674 906 836 q 822 519 871 576 q 668 451 774 463 l 667 442 q 788 292 772 424 l 829 0 l 561 0 l 528 293 q 511 348 525 335 q 461 361 497 361 l 332 361 l 281 0 l 26 0 m 358 551 l 483 551 q 583 576 554 551 q 624 676 613 601 q 612 760 632 738 q 529 782 592 782 l 390 781 l 358 551 m 407 -69 l 450 -69 q 512 -85 494 -69 q 524 -140 529 -101 l 513 -210 q 408 -422 492 -326 l 313 -392 q 364 -249 339 -335 q 314 -235 328 -250 q 304 -187 300 -219 l 314 -135 q 342 -83 321 -97 q 407 -69 363 -69 z "},"ŗ":{"ha":610,"x_min":3,"x_max":643,"o":"m 643 710 l 589 478 l 531 478 q 326 429 464 478 l 268 0 l 14 0 l 111 690 l 308 690 l 313 581 q 596 710 460 710 l 643 710 m 104 -58 l 149 -58 q 210 -75 193 -58 q 221 -131 226 -92 l 210 -199 q 106 -411 190 -318 l 10 -382 q 61 -237 36 -328 q 12 -224 25 -239 q 3 -178 -1 -208 l 13 -125 q 39 -73 18 -87 q 104 -58 60 -58 z "},"Ř":{"ha":911,"x_min":26,"x_max":883,"o":"m 481 1025 l 272 1222 l 347 1304 l 538 1185 l 549 1185 l 776 1300 l 829 1207 l 593 1025 l 481 1025 m 26 0 l 161 958 q 533 972 294 972 q 817 904 729 972 q 883 674 906 836 q 822 519 871 576 q 668 451 774 463 l 667 442 q 788 292 772 424 l 829 0 l 561 0 l 528 293 q 511 348 525 335 q 461 361 497 361 l 332 361 l 281 0 l 26 0 m 358 551 l 483 551 q 583 576 554 551 q 624 676 613 601 q 612 760 632 738 q 529 782 592 782 l 390 781 l 358 551 z "},"ř":{"ha":610,"x_min":14,"x_max":688,"o":"m 338 768 l 129 965 l 204 1046 l 394 928 l 406 928 l 635 1043 l 688 950 l 450 768 l 338 768 m 308 690 l 313 581 q 596 710 460 710 l 643 710 l 589 478 l 531 478 q 326 429 464 478 l 268 0 l 14 0 l 111 690 l 308 690 z "},"Ś":{"ha":821,"x_min":13,"x_max":815,"o":"m 790 1142 l 439 1001 l 379 1107 l 704 1321 l 790 1142 m 442 343 l 264 424 q 117 543 154 474 q 93 713 81 613 q 203 921 113 865 q 486 976 293 976 q 815 932 676 976 l 792 763 q 474 767 542 767 q 383 756 408 767 q 351 703 358 744 q 359 656 346 672 q 419 621 372 640 l 585 549 q 733 434 697 500 q 756 257 768 368 q 653 39 736 96 q 367 -18 569 -18 q 13 25 188 -18 l 38 208 q 354 201 318 201 q 462 215 432 201 q 499 268 492 228 q 492 313 504 299 q 442 343 481 326 z "},"ś":{"ha":746,"x_min":4,"x_max":722,"o":"m 722 885 l 371 744 l 311 850 l 636 1063 l 722 885 m 360 244 l 206 297 q 58 525 35 356 q 143 665 71 621 q 381 710 215 710 q 715 679 581 707 l 693 528 q 426 531 513 531 q 324 526 347 531 q 297 506 300 522 q 310 479 296 489 q 368 456 325 469 l 528 404 q 679 190 699 349 q 583 26 664 67 q 335 -15 503 -15 q 4 13 171 -15 l 25 164 q 125 163 42 164 q 251 163 208 163 q 399 169 364 163 q 438 196 435 176 q 425 219 439 211 q 360 244 411 228 z "},"Ş":{"ha":821,"x_min":13,"x_max":815,"o":"m 442 343 l 264 424 q 117 543 154 474 q 93 713 81 613 q 203 921 113 865 q 486 976 293 976 q 815 932 676 976 l 792 763 q 474 767 542 767 q 383 756 408 767 q 351 703 358 744 q 359 656 346 672 q 419 621 372 640 l 585 549 q 733 434 697 500 q 756 257 768 368 q 653 39 736 96 q 367 -18 569 -18 q 13 25 188 -18 l 38 208 q 354 201 318 201 q 462 215 432 201 q 499 268 492 228 q 492 313 504 299 q 442 343 481 326 m 232 -179 l 254 -87 q 378 -82 326 -81 q 456 -109 431 -83 q 472 -187 482 -135 q 364 -342 454 -293 q 149 -374 274 -390 l 178 -275 q 314 -203 300 -275 q 315 -194 314 -197 q 312 -187 315 -190 q 304 -183 308 -185 q 290 -181 300 -182 q 266 -180 279 -181 q 232 -179 253 -179 z "},"ş":{"ha":746,"x_min":4,"x_max":715,"o":"m 360 244 l 206 297 q 58 525 35 356 q 143 665 71 621 q 381 710 215 710 q 715 679 581 707 l 693 528 q 426 531 513 531 q 324 526 347 531 q 297 506 300 522 q 310 479 296 489 q 368 456 325 469 l 528 404 q 679 190 699 349 q 583 26 664 67 q 335 -15 503 -15 q 4 13 171 -15 l 25 164 q 125 163 42 164 q 251 163 208 163 q 399 169 364 163 q 438 196 435 176 q 425 219 439 211 q 360 244 411 228 m 181 -161 l 204 -69 q 328 -62 276 -61 q 405 -90 379 -64 q 422 -169 431 -117 q 314 -324 404 -275 q 99 -356 224 -372 l 128 -256 q 264 -185 247 -258 q 264 -172 265 -176 q 253 -165 263 -168 q 228 -162 244 -162 q 181 -161 211 -161 z "},"Š":{"ha":821,"x_min":13,"x_max":815,"o":"m 793 1207 l 556 1025 l 443 1025 l 235 1222 l 310 1304 l 501 1185 l 513 1185 l 740 1300 l 793 1207 m 442 343 l 264 424 q 117 543 154 474 q 93 713 81 613 q 203 921 113 865 q 486 976 293 976 q 815 932 676 976 l 792 763 q 474 767 542 767 q 383 756 408 767 q 351 703 358 744 q 359 656 346 672 q 419 621 372 640 l 585 549 q 733 434 697 500 q 756 257 768 368 q 653 39 736 96 q 367 -18 569 -18 q 13 25 188 -18 l 38 208 q 354 201 318 201 q 462 215 432 201 q 499 268 492 228 q 492 313 504 299 q 442 343 481 326 z "},"š":{"ha":746,"x_min":4,"x_max":725,"o":"m 725 950 l 488 768 l 375 768 l 167 965 l 242 1046 l 433 928 l 444 928 l 672 1043 l 725 950 m 360 244 l 206 297 q 58 525 35 356 q 143 665 71 621 q 381 710 215 710 q 715 679 581 707 l 693 528 q 426 531 513 531 q 324 526 347 531 q 297 506 300 522 q 310 479 296 489 q 368 456 325 469 l 528 404 q 679 190 699 349 q 583 26 664 67 q 335 -15 503 -15 q 4 13 171 -15 l 25 164 q 125 163 42 164 q 251 163 208 163 q 399 169 364 163 q 438 196 435 176 q 425 219 439 211 q 360 244 411 228 z "},"Ţ":{"ha":843,"x_min":67,"x_max":903,"o":"m 875 757 l 601 757 l 494 0 l 233 0 l 340 757 l 67 757 l 94 958 l 903 958 l 875 757 m 233 -150 l 257 -58 q 432 -63 376 -44 q 475 -158 488 -82 q 367 -312 457 -264 q 151 -344 276 -361 l 181 -246 q 317 -174 301 -246 q 317 -161 318 -165 q 306 -154 315 -157 q 281 -151 297 -151 q 233 -150 264 -150 z "},"ţ":{"ha":592,"x_min":38,"x_max":608,"o":"m 408 532 l 367 235 q 371 191 361 201 q 417 181 381 181 l 503 181 l 515 13 q 303 -18 435 -18 q 147 36 200 -18 q 107 182 93 90 l 158 532 l 38 532 l 57 683 l 182 690 l 210 876 l 458 876 l 432 690 l 608 690 l 586 532 l 408 532 m 153 -164 l 176 -72 q 300 -65 249 -64 q 377 -93 351 -67 q 394 -172 403 -119 q 286 -326 376 -278 q 71 -357 196 -374 l 100 -258 q 236 -187 219 -261 q 236 -175 238 -179 q 226 -168 235 -171 q 200 -165 217 -165 q 153 -164 183 -164 z "},"Ť":{"ha":843,"x_min":67,"x_max":903,"o":"m 451 1025 l 243 1222 l 318 1304 l 510 1185 l 521 1185 l 749 1300 l 801 1207 l 564 1025 l 451 1025 m 875 757 l 601 757 l 494 0 l 233 0 l 340 757 l 67 757 l 94 958 l 903 958 l 875 757 z "},"ť":{"ha":592,"x_min":38,"x_max":701,"o":"m 585 1115 l 628 1115 q 690 1099 672 1115 q 701 1044 707 1082 l 690 975 q 586 763 671 856 l 490 793 q 542 936 517 850 q 492 950 506 935 q 483 996 479 965 l 492 1049 q 520 1101 499 1086 q 585 1115 542 1115 m 432 690 l 608 690 l 586 532 l 408 532 l 367 235 q 371 191 361 201 q 417 181 381 181 l 503 181 l 515 13 q 303 -18 435 -18 q 147 36 200 -18 q 107 182 93 90 l 158 532 l 38 532 l 57 683 l 182 690 l 210 876 l 458 876 l 432 690 z "},"Ŧ":{"ha":843,"x_min":67,"x_max":903,"o":"m 601 757 l 574 563 l 749 563 l 733 444 l 557 444 l 494 0 l 233 0 l 296 444 l 133 444 l 150 563 l 313 563 l 340 757 l 67 757 l 94 958 l 903 958 l 875 757 l 601 757 z "},"ŧ":{"ha":592,"x_min":38,"x_max":608,"o":"m 408 532 l 397 451 l 522 451 l 506 333 l 381 333 l 367 235 q 371 191 361 201 q 417 181 381 181 l 503 181 l 515 13 q 303 -18 435 -18 q 147 36 200 -18 q 107 182 93 90 l 129 333 l 49 333 l 64 451 l 147 451 l 158 532 l 38 532 l 57 683 l 182 690 l 210 876 l 458 876 l 432 690 l 608 690 l 586 532 l 408 532 z "},"Ū":{"ha":958,"x_min":72,"x_max":961,"o":"m 785 1075 l 353 1075 l 374 1229 l 806 1229 l 785 1075 m 961 958 l 878 385 q 750 69 846 158 q 439 -19 654 -19 q 133 78 224 -19 q 72 394 43 175 l 153 958 l 414 958 l 332 385 q 336 223 314 265 q 443 181 358 181 q 565 225 531 181 q 619 394 600 269 l 700 958 l 961 958 z "},"ū":{"ha":835,"x_min":35,"x_max":804,"o":"m 690 831 l 258 831 l 279 983 l 711 983 l 690 831 m 804 690 l 708 0 l 511 0 l 510 124 q 219 -19 361 -19 q 69 33 117 -19 q 35 178 21 85 l 106 690 l 360 690 l 296 249 q 302 206 292 218 q 336 193 313 193 q 494 269 399 193 l 554 690 l 804 690 z "},"Ů":{"ha":958,"x_min":72,"x_max":961,"o":"m 590 1321 q 716 1271 667 1321 q 756 1147 765 1221 q 699 1038 747 1082 q 576 994 650 994 q 451 1044 499 994 q 414 1167 404 1094 q 469 1276 421 1232 q 590 1321 517 1321 m 635 1208 q 626 1216 635 1208 q 589 1225 618 1225 q 541 1207 560 1225 q 519 1161 522 1189 q 532 1110 515 1129 q 579 1090 549 1090 q 628 1110 610 1090 q 650 1161 647 1129 q 635 1208 651 1190 m 961 958 l 878 385 q 750 69 846 158 q 439 -19 654 -19 q 133 78 224 -19 q 72 394 43 175 l 153 958 l 414 958 l 332 385 q 336 223 314 265 q 443 181 358 181 q 565 225 531 181 q 619 394 600 269 l 700 958 l 961 958 z "},"ů":{"ha":835,"x_min":35,"x_max":804,"o":"m 482 750 q 357 800 404 750 q 319 922 310 850 q 374 1032 326 988 q 496 1076 422 1076 q 622 1026 572 1076 q 661 903 671 976 q 604 794 653 838 q 482 750 556 750 m 425 917 q 438 865 421 885 q 485 846 454 846 q 534 865 515 846 q 556 917 553 885 q 540 963 557 946 q 494 981 524 981 q 447 963 465 981 q 425 917 428 944 m 804 690 l 708 0 l 511 0 l 510 124 q 219 -19 361 -19 q 69 33 117 -19 q 35 178 21 85 l 106 690 l 360 690 l 296 249 q 302 206 292 218 q 336 193 313 193 q 494 269 399 193 l 554 690 l 804 690 z "},"Ű":{"ha":958,"x_min":72,"x_max":961,"o":"m 942 1226 l 696 1003 l 594 1067 l 796 1328 l 942 1226 m 660 1226 l 414 1003 l 311 1068 l 514 1328 l 660 1226 m 961 958 l 878 385 q 750 69 846 158 q 439 -19 654 -19 q 133 78 224 -19 q 72 394 43 175 l 153 958 l 414 958 l 332 385 q 336 223 314 265 q 443 181 358 181 q 565 225 531 181 q 619 394 600 269 l 700 958 l 961 958 z "},"ű":{"ha":835,"x_min":35,"x_max":847,"o":"m 319 757 l 217 824 l 419 1083 l 565 982 l 319 757 m 500 822 l 701 1083 l 847 982 l 601 757 l 500 822 m 554 690 l 804 690 l 708 0 l 511 0 l 510 124 q 219 -19 361 -19 q 69 33 117 -19 q 35 178 21 85 l 106 690 l 360 690 l 296 249 q 302 206 292 218 q 336 193 313 193 q 494 269 399 193 l 554 690 z "},"Ų":{"ha":958,"x_min":72,"x_max":961,"o":"m 961 958 l 878 385 q 759 78 847 168 q 478 -18 671 -12 q 393 -147 422 -81 q 394 -185 381 -176 q 449 -185 408 -194 l 469 -276 q 351 -305 404 -300 q 268 -297 299 -310 q 218 -261 238 -283 q 201 -209 199 -239 q 217 -149 204 -179 q 357 -15 249 -83 q 117 99 188 1 q 72 394 46 197 l 153 958 l 414 958 l 332 385 q 336 223 314 265 q 443 181 358 181 q 565 225 531 181 q 619 394 600 269 l 700 958 l 961 958 z "},"ų":{"ha":835,"x_min":35,"x_max":804,"o":"m 804 690 l 708 0 q 619 -135 651 -61 q 621 -173 607 -164 q 675 -172 635 -182 l 694 -264 q 576 -292 629 -287 q 493 -284 524 -297 q 443 -249 463 -271 q 426 -197 424 -226 q 442 -136 429 -167 q 586 0 478 -67 l 511 0 l 510 124 q 219 -19 361 -19 q 69 33 117 -19 q 35 178 21 85 l 106 690 l 360 690 l 296 249 q 302 206 292 218 q 336 193 313 193 q 494 269 399 193 l 554 690 l 804 690 z "},"Ŵ":{"ha":1364,"x_min":106,"x_max":1410,"o":"m 1046 1083 l 975 1000 l 782 1132 l 771 1132 l 547 1000 l 488 1090 l 696 1278 l 867 1278 l 1046 1083 m 1410 958 l 1151 65 q 1058 0 1132 0 l 829 0 q 769 22 796 0 q 742 76 743 44 l 742 638 q 746 772 746 765 l 719 772 q 690 639 704 692 l 529 67 q 436 0 510 0 l 203 0 q 142 22 168 0 q 118 75 117 44 l 106 958 l 364 958 l 343 331 q 339 255 342 306 q 335 181 336 204 l 361 181 q 400 342 379 271 l 557 885 q 651 958 576 958 l 847 958 q 905 935 882 958 q 929 875 928 911 l 940 329 q 940 181 943 254 l 967 181 q 999 338 979 264 l 1151 958 l 1410 958 z "},"ŵ":{"ha":1261,"x_min":57,"x_max":1254,"o":"m 954 825 l 883 742 l 690 875 l 679 875 l 456 742 l 396 832 l 604 1019 l 775 1019 l 954 825 m 329 163 l 340 163 q 375 181 361 163 q 403 244 389 200 q 438 386 419 294 q 475 628 442 408 q 498 672 479 653 q 549 690 517 690 l 767 690 q 813 673 794 690 q 833 628 832 656 l 853 163 l 864 163 q 883 168 875 163 q 899 190 892 174 q 908 216 906 207 q 918 254 910 225 q 963 421 938 314 q 1001 690 988 542 l 1254 690 q 1189 376 1228 517 q 1108 150 1150 236 q 1016 33 1069 67 q 850 0 963 0 l 744 0 q 694 19 714 0 q 674 67 674 39 l 661 539 l 643 539 q 613 342 639 475 q 568 174 592 238 q 476 31 533 63 q 313 0 419 0 l 179 0 q 130 19 150 0 q 107 67 110 38 l 57 692 l 314 692 l 329 163 z "},"Ŷ":{"ha":874,"x_min":69,"x_max":958,"o":"m 303 1001 l 243 1090 l 450 1278 l 621 1278 l 800 1085 l 731 1000 l 536 1133 l 525 1133 l 303 1001 m 550 301 l 508 0 l 246 0 l 290 314 l 69 958 l 331 958 l 419 629 q 433 497 433 567 l 451 497 q 496 629 460 556 l 679 958 l 958 958 l 550 301 z "},"ŷ":{"ha":836,"x_min":44,"x_max":839,"o":"m 239 743 l 179 833 l 386 1021 l 557 1021 l 736 826 l 667 742 l 472 875 l 461 875 l 239 743 m 569 690 l 839 690 q 743 335 814 526 q 613 42 672 144 q 383 -208 510 -131 q 88 -285 256 -286 l 67 -142 q 99 -132 72 -140 q 132 -122 125 -124 q 160 -112 139 -119 q 191 -100 182 -104 q 219 -87 200 -96 q 248 -71 238 -79 q 274 -52 258 -62 q 301 -28 289 -42 q 326 0 314 -15 l 229 0 q 172 20 196 0 q 143 72 149 40 l 44 690 l 319 690 l 356 181 q 378 158 356 158 l 422 158 q 569 690 521 372 z "},"Ÿ":{"ha":874,"x_min":69,"x_max":958,"o":"m 697 1060 l 601 1060 q 561 1103 556 1060 l 576 1199 q 625 1244 583 1244 l 718 1244 q 758 1200 767 1244 l 744 1104 q 697 1060 739 1060 m 443 1060 l 349 1060 q 308 1103 300 1060 l 322 1199 q 375 1244 328 1244 l 464 1244 q 506 1200 511 1244 l 490 1103 q 443 1060 485 1060 m 550 301 l 508 0 l 246 0 l 290 314 l 69 958 l 331 958 l 419 629 q 433 497 433 567 l 451 497 q 496 629 460 556 l 679 958 l 958 958 l 550 301 z "},"Ź":{"ha":818,"x_min":-10,"x_max":838,"o":"m 433 1001 l 374 1107 l 699 1321 l 785 1142 l 433 1001 m 811 769 l 315 189 l 742 189 l 715 0 l -10 0 l 15 189 l 513 769 l 111 769 l 138 958 l 838 958 l 811 769 z "},"ź":{"ha":738,"x_min":-8,"x_max":721,"o":"m 363 744 l 304 850 l 629 1063 l 714 885 l 363 744 m 701 521 l 313 169 l 656 169 l 633 0 l -8 0 l 14 169 l 13 169 l 401 521 l 72 521 l 94 690 l 721 690 l 700 521 l 701 521 z "},"Ż":{"ha":818,"x_min":-10,"x_max":838,"o":"m 540 1044 l 464 1044 q 396 1119 385 1044 l 404 1188 q 479 1251 414 1251 l 551 1251 q 605 1233 586 1251 q 621 1179 624 1214 l 613 1110 q 540 1044 604 1044 m 811 769 l 315 189 l 742 189 l 715 0 l -10 0 l 15 189 l 513 769 l 111 769 l 138 958 l 838 958 l 811 769 z "},"ż":{"ha":738,"x_min":-8,"x_max":721,"o":"m 469 788 l 393 788 q 326 861 315 788 l 335 929 q 410 994 343 994 l 482 994 q 535 976 515 994 q 550 922 554 957 l 542 851 q 469 788 536 788 m 701 521 l 313 169 l 656 169 l 633 0 l -8 0 l 14 169 l 13 169 l 401 521 l 72 521 l 94 690 l 721 690 l 700 521 l 701 521 z "},"Ž":{"ha":818,"x_min":-10,"x_max":838,"o":"m 438 1025 l 229 1222 l 304 1304 l 496 1185 l 507 1185 l 735 1300 l 788 1207 l 550 1025 l 438 1025 m 811 769 l 315 189 l 742 189 l 715 0 l -10 0 l 15 189 l 513 769 l 111 769 l 138 958 l 838 958 l 811 769 z "},"ž":{"ha":738,"x_min":-8,"x_max":721,"o":"m 368 768 l 160 965 l 235 1046 l 425 928 l 436 928 l 665 1043 l 717 950 l 481 768 l 368 768 m 701 521 l 313 169 l 656 169 l 633 0 l -8 0 l 14 169 l 13 169 l 401 521 l 72 521 l 94 690 l 721 690 l 700 521 l 701 521 z "},"ƒ":{"ha":676,"x_min":-133,"x_max":738,"o":"m 685 801 l 603 801 q 541 782 564 801 q 507 718 518 763 l 474 567 l 618 567 l 583 408 l 438 408 l 339 -24 q 69 -239 289 -239 q -133 -221 -60 -239 l -83 -64 l -3 -64 q 93 19 74 -64 l 181 408 l 53 408 l 83 549 l 217 565 l 261 761 q 533 976 314 976 q 738 958 661 976 l 685 801 z "},"Ș":{"ha":821,"x_min":13,"x_max":815,"o":"m 442 343 l 264 424 q 117 543 154 474 q 93 713 81 613 q 203 921 113 865 q 486 976 293 976 q 815 932 676 976 l 792 763 q 474 767 542 767 q 383 756 408 767 q 351 703 358 744 q 359 656 346 672 q 419 621 372 640 l 585 549 q 733 434 697 500 q 756 257 768 368 q 653 39 736 96 q 367 -18 569 -18 q 13 25 188 -18 l 38 208 q 354 201 318 201 q 462 215 432 201 q 499 268 492 228 q 492 313 504 299 q 442 343 481 326 m 342 -69 l 386 -69 q 447 -86 431 -69 q 458 -140 464 -103 l 447 -210 q 410 -322 439 -262 q 343 -422 381 -381 l 247 -392 q 300 -249 268 -350 q 250 -235 264 -250 q 240 -187 236 -219 l 250 -135 q 276 -83 256 -97 q 342 -69 297 -69 z "},"ș":{"ha":746,"x_min":4,"x_max":715,"o":"m 360 244 l 206 297 q 58 525 35 356 q 143 665 71 621 q 381 710 215 710 q 715 679 581 707 l 693 528 q 426 531 513 531 q 324 526 347 531 q 297 506 300 522 q 310 479 296 489 q 368 456 325 469 l 528 404 q 679 190 699 349 q 583 26 664 67 q 335 -15 503 -15 q 4 13 171 -15 l 25 164 q 125 163 42 164 q 251 163 208 163 q 399 169 364 163 q 438 196 435 176 q 425 219 439 211 q 360 244 411 228 m 289 -64 l 333 -64 q 395 -80 378 -64 q 407 -135 413 -96 l 396 -204 q 357 -317 386 -257 q 292 -417 328 -376 l 196 -386 q 247 -243 215 -344 q 197 -229 211 -244 q 188 -183 183 -214 l 197 -131 q 225 -78 204 -93 q 289 -64 246 -64 z "},"Ț":{"ha":843,"x_min":67,"x_max":903,"o":"m 875 757 l 601 757 l 494 0 l 233 0 l 340 757 l 67 757 l 94 958 l 903 958 l 875 757 m 322 -58 l 365 -58 q 427 -75 410 -58 q 439 -131 444 -92 l 428 -199 q 324 -411 408 -318 l 228 -382 q 279 -237 254 -328 q 230 -224 243 -239 q 221 -178 217 -208 l 229 -125 q 258 -73 236 -87 q 322 -58 279 -58 z "},"ț":{"ha":592,"x_min":38,"x_max":608,"o":"m 408 532 l 367 235 q 371 191 361 201 q 417 181 381 181 l 503 181 l 515 13 q 303 -18 435 -18 q 147 36 200 -18 q 107 182 93 90 l 158 532 l 38 532 l 57 683 l 182 690 l 210 876 l 458 876 l 432 690 l 608 690 l 586 532 l 408 532 m 247 -64 l 292 -64 q 353 -80 336 -64 q 365 -135 371 -96 l 354 -204 q 315 -317 344 -257 q 250 -417 286 -376 l 154 -386 q 206 -243 181 -329 q 156 -229 169 -244 q 146 -183 142 -214 l 156 -131 q 183 -78 163 -93 q 247 -64 204 -64 z "},"ˆ":{"ha":644,"x_min":108,"x_max":667,"o":"m 667 826 l 596 743 l 403 875 l 392 875 l 168 743 l 108 833 l 317 1021 l 488 1021 l 667 826 z "},"ˇ":{"ha":644,"x_min":119,"x_max":678,"o":"m 678 944 l 440 763 l 328 763 l 119 961 l 194 1042 l 386 922 l 397 922 l 625 1038 l 678 944 z "},"˘":{"ha":560,"x_min":128,"x_max":606,"o":"m 490 990 l 606 971 q 536 814 607 878 q 346 750 465 750 q 163 819 225 750 q 128 981 101 888 l 247 986 q 267 924 242 943 q 354 906 293 906 q 490 990 482 906 z "},"˙":{"ha":339,"x_min":133,"x_max":357,"o":"m 217 992 l 289 992 q 342 974 322 992 q 357 921 361 956 l 350 850 q 276 785 342 785 l 200 785 q 133 860 122 785 l 142 928 q 217 992 150 992 z "},"˚":{"ha":436,"x_min":125,"x_max":468,"o":"m 303 1065 q 428 1015 378 1065 q 468 893 478 965 q 411 783 460 828 q 289 739 363 739 q 163 790 211 739 q 125 913 115 840 q 181 1022 133 978 q 303 1065 229 1065 m 300 971 q 253 952 272 971 q 231 906 233 933 q 245 854 228 874 q 292 835 263 835 q 341 854 322 835 q 363 906 360 874 q 347 953 364 935 q 300 971 329 971 z "},"˛":{"ha":347,"x_min":-36,"x_max":246,"o":"m 139 10 l 246 0 q 157 -135 189 -61 q 158 -173 144 -164 q 213 -172 172 -182 l 232 -264 q 114 -292 167 -287 q 31 -284 61 -297 q -19 -249 0 -271 q -36 -197 -39 -226 q -21 -136 -33 -167 q 139 10 18 -61 z "},"˜":{"ha":626,"x_min":126,"x_max":650,"o":"m 231 775 l 126 785 q 162 946 125 892 q 261 997 199 1000 q 382 967 304 996 q 476 935 460 938 q 527 942 513 926 q 546 996 542 958 l 650 986 q 618 826 654 879 q 521 774 582 772 q 395 806 475 775 q 299 839 315 836 q 250 829 264 844 q 231 775 236 814 z "},"˝":{"ha":731,"x_min":122,"x_max":753,"o":"m 753 939 l 506 715 l 404 781 l 606 1042 l 753 939 m 469 939 l 224 715 l 122 781 l 324 1042 l 469 939 z "},"Δ":{"ha":956,"x_min":-25,"x_max":883,"o":"m 883 85 l 874 0 l -25 0 l -17 85 l 428 958 l 686 958 l 883 85 m 613 188 l 539 582 q 529 711 529 656 q 485 582 503 621 l 294 188 l 613 188 z "},"Ω":{"ha":997,"x_min":-1,"x_max":946,"o":"m 26 200 l 124 200 q 226 179 178 200 q 106 353 138 271 q 92 563 74 435 q 231 876 119 774 q 567 978 342 978 q 883 869 789 978 q 946 538 978 761 q 878 338 929 411 q 708 176 828 264 q 815 200 756 200 l 913 200 l 885 0 l 479 0 l 501 185 q 618 319 582 249 q 672 513 654 389 q 669 724 694 669 q 554 779 644 779 q 419 726 460 779 q 357 522 378 672 q 353 326 339 400 q 425 185 368 251 l 404 0 l -1 0 l 26 200 z "},"μ":{"ha":882,"x_min":-3,"x_max":828,"o":"m 828 690 l 731 0 l 533 0 l 526 113 q 254 -19 390 -19 l 235 -18 q 236 -101 242 -65 l 215 -257 l -3 -257 l 60 186 l 129 690 l 383 690 l 319 249 q 325 208 315 219 q 364 197 335 197 q 513 250 426 197 l 574 690 l 828 690 z "},"π":{"ha":907,"x_min":40,"x_max":924,"o":"m 900 521 l 801 521 l 729 0 l 476 0 l 549 521 l 390 521 l 318 0 l 65 0 l 139 521 l 40 521 l 64 692 l 924 692 l 900 521 z "},"Ё":{"ha":806,"x_min":53,"x_max":828,"o":"m 706 1067 l 611 1067 q 571 1111 563 1067 l 585 1207 q 635 1251 593 1251 l 726 1251 q 768 1207 774 1251 l 753 1111 q 706 1067 747 1067 m 453 1067 l 357 1067 q 317 1111 311 1067 l 332 1206 q 383 1251 338 1251 l 474 1251 q 514 1207 522 1251 l 499 1110 q 453 1067 494 1067 m 797 760 l 453 760 q 399 746 415 760 q 378 696 382 732 l 363 582 l 722 582 l 700 404 l 338 404 l 318 260 q 326 213 313 228 q 374 199 339 199 l 717 199 l 711 10 q 267 -4 593 -4 q 93 63 149 -4 q 53 242 38 129 l 125 761 q 200 909 139 856 q 364 963 261 963 q 828 946 700 963 l 797 760 z "},"Ђ":{"ha":1067,"x_min":67,"x_max":1026,"o":"m 601 757 l 574 558 q 824 628 690 628 q 999 558 944 628 q 1026 322 1053 488 q 892 56 997 133 q 610 -18 788 -21 l 596 164 q 715 215 676 178 q 767 328 753 251 q 760 405 778 388 q 697 422 742 422 q 547 376 618 422 l 494 0 l 233 0 l 339 757 l 67 757 l 94 958 l 903 958 l 876 757 l 601 757 z "},"Ѓ":{"ha":744,"x_min":28,"x_max":804,"o":"m 788 1142 l 436 1001 l 378 1107 l 703 1321 l 788 1142 m 28 0 l 133 756 q 208 907 147 851 q 357 963 269 963 q 804 944 685 963 l 774 760 l 465 760 q 408 746 425 760 q 386 693 392 732 l 288 0 l 28 0 z "},"Є":{"ha":828,"x_min":64,"x_max":851,"o":"m 851 939 l 819 749 q 546 753 674 753 q 410 718 450 753 q 349 582 369 683 l 725 582 l 704 404 l 322 404 q 338 248 311 288 q 453 206 364 208 q 733 218 628 204 l 743 25 q 432 -17 613 -18 q 109 100 192 -14 q 64 489 26 214 q 210 868 101 761 q 551 975 319 975 q 851 939 718 975 z "},"Ѕ":{"ha":821,"x_min":13,"x_max":815,"o":"m 442 343 l 264 424 q 117 543 154 474 q 93 713 81 613 q 203 921 113 865 q 486 976 293 976 q 815 932 676 976 l 792 763 q 474 767 542 767 q 383 756 408 767 q 351 703 358 744 q 359 656 346 672 q 419 621 372 640 l 585 549 q 733 434 697 500 q 756 257 768 368 q 653 39 736 96 q 367 -18 569 -18 q 13 25 188 -18 l 38 208 q 354 201 318 201 q 462 215 432 201 q 499 268 492 228 q 492 313 504 299 q 442 343 481 326 z "},"І":{"ha":435,"x_min":31,"x_max":425,"o":"m 290 0 l 31 0 l 165 958 l 425 958 l 290 0 z "},"Ї":{"ha":428,"x_min":26,"x_max":544,"o":"m 411 1244 l 504 1244 q 544 1200 550 1244 l 529 1104 q 482 1060 525 1060 l 388 1060 q 347 1103 342 1060 l 361 1199 q 376 1234 365 1224 q 411 1244 388 1244 m 160 1244 l 250 1244 q 290 1200 299 1244 l 276 1103 q 229 1060 271 1060 l 133 1060 q 93 1103 88 1060 l 108 1199 q 160 1244 114 1244 m 288 0 l 26 0 l 161 958 l 422 958 l 288 0 z "},"Ј":{"ha":533,"x_min":-28,"x_max":526,"o":"m 526 958 l 419 183 q 341 34 406 86 q 175 -18 276 -18 q 61 -8 122 -18 q -28 17 0 1 l 14 182 l 68 182 q 164 247 156 182 l 267 958 l 526 958 z "},"Љ":{"ha":1375,"x_min":-14,"x_max":1324,"o":"m 906 617 l 999 617 q 1277 546 1204 617 q 1324 293 1350 475 q 1226 52 1299 115 q 978 -11 1154 -11 q 561 0 703 -11 l 672 781 l 608 781 q 547 763 567 781 q 517 700 526 746 q 378 207 432 319 q 222 26 317 72 q -4 -4 126 -21 l -14 201 q 48 213 28 208 q 97 239 68 218 q 142 296 125 260 q 204 460 176 358 q 275 761 232 563 q 519 958 317 958 l 954 958 l 906 617 m 844 176 l 929 176 q 1028 199 1004 176 q 1065 311 1053 221 q 1063 424 1076 397 q 981 450 1050 450 l 882 450 l 844 176 z "},"Њ":{"ha":1356,"x_min":32,"x_max":1303,"o":"m 888 601 l 990 601 q 1253 533 1176 601 q 1303 276 1329 464 q 1210 49 1281 108 q 969 -11 1139 -11 q 547 0 688 -11 l 607 424 l 353 424 l 293 0 l 32 0 l 167 958 l 428 958 l 378 601 l 632 601 l 682 958 l 939 958 l 888 601 m 829 176 l 921 176 q 1011 199 988 176 q 1046 300 1035 221 q 1042 399 1056 374 q 963 425 1028 425 l 864 425 l 829 176 z "},"Ћ":{"ha":1096,"x_min":67,"x_max":1049,"o":"m 601 757 l 575 572 q 840 638 706 638 q 1015 577 967 638 q 1049 390 1064 517 l 994 0 l 733 0 l 782 344 q 772 407 788 392 q 706 422 757 422 q 547 381 628 422 l 494 0 l 232 0 l 339 757 l 67 757 l 94 958 l 903 958 l 875 757 l 601 757 z "},"Ќ":{"ha":913,"x_min":31,"x_max":950,"o":"m 493 1001 l 433 1107 l 758 1321 l 844 1142 l 493 1001 m 586 501 l 585 493 q 652 477 625 488 q 701 454 679 467 q 739 415 724 442 q 766 361 754 389 q 789 281 778 333 q 808 179 800 229 q 831 44 817 129 q 838 0 835 15 l 571 0 q 522 310 533 267 q 456 401 501 385 q 393 410 432 410 l 338 410 q 336 315 342 360 l 292 0 l 31 0 l 165 958 l 426 958 l 389 699 q 364 585 378 626 l 408 585 q 544 655 499 586 q 679 958 590 724 l 950 958 q 817 654 844 706 q 689 526 763 558 q 586 501 649 510 z "},"Ѝ":{"ha":1006,"x_min":31,"x_max":994,"o":"m 715 1107 l 633 1001 l 306 1154 l 408 1314 l 715 1107 m 860 0 l 613 0 l 682 483 q 719 642 694 565 l 710 642 q 635 504 660 539 l 289 0 l 31 0 l 165 958 l 417 958 l 350 490 q 308 319 342 425 l 319 319 q 399 464 354 400 l 742 958 l 994 958 l 860 0 z "},"Ў":{"ha":844,"x_min":54,"x_max":924,"o":"m 658 1267 l 772 1247 q 703 1089 774 1153 q 513 1025 632 1025 q 330 1094 392 1025 q 296 1256 268 1164 l 415 1263 q 435 1201 408 1219 q 522 1182 461 1182 q 658 1267 647 1182 m 924 958 l 606 250 q 485 53 546 115 q 326 -17 425 -8 q 54 4 231 -26 l 93 183 q 264 189 219 179 q 336 247 308 199 l 347 269 l 303 269 q 178 389 194 269 l 74 958 l 335 958 l 394 479 q 415 458 396 458 l 438 458 l 649 958 l 924 958 z "},"Џ":{"ha":981,"x_min":32,"x_max":969,"o":"m 969 958 l 835 0 l 539 0 l 500 -210 l 322 -210 l 342 0 l 32 0 l 167 958 l 428 958 l 318 178 l 599 178 l 708 958 l 969 958 z "},"А":{"ha":922,"x_min":-62,"x_max":874,"o":"m 590 224 l 297 224 l 210 0 l -62 0 l 322 896 q 415 958 349 958 l 654 958 q 710 938 686 958 q 738 886 735 917 l 874 0 l 613 0 l 590 224 m 569 421 l 544 665 q 540 765 540 699 l 500 765 q 471 667 488 714 l 374 421 l 569 421 z "},"Б":{"ha":876,"x_min":31,"x_max":854,"o":"m 372 579 l 481 579 q 767 512 689 579 q 821 275 844 444 q 719 49 797 110 q 464 -11 640 -11 q 31 0 176 -11 l 165 958 q 514 968 326 968 q 854 958 693 968 l 807 767 l 400 767 l 372 579 m 315 176 l 415 176 q 525 199 497 176 q 563 303 553 222 q 553 394 571 374 q 464 414 536 414 l 350 414 l 315 176 z "},"В":{"ha":903,"x_min":31,"x_max":858,"o":"m 31 0 l 165 958 q 538 969 296 969 q 803 913 729 969 q 858 710 878 857 q 801 558 844 607 q 663 500 757 508 l 661 493 q 833 229 868 475 q 733 39 813 89 q 474 -11 654 -11 q 31 0 178 -11 m 367 579 l 483 579 q 574 601 549 579 q 610 693 600 624 q 600 764 617 746 q 529 782 583 782 l 394 783 l 367 579 m 310 176 l 425 176 q 533 201 504 176 q 574 300 563 225 q 564 392 583 369 q 478 414 544 414 l 343 414 l 310 176 z "},"Г":{"ha":744,"x_min":28,"x_max":804,"o":"m 28 0 l 133 756 q 208 907 147 851 q 357 963 269 963 q 804 944 685 963 l 774 760 l 465 760 q 408 746 425 760 q 386 693 392 732 l 288 0 l 28 0 z "},"Д":{"ha":1064,"x_min":-67,"x_max":1010,"o":"m 989 10 l 958 -210 l 767 -210 l 776 0 l 175 0 l 126 -210 l -67 -210 l -37 0 l -14 178 l 85 178 q 290 761 196 394 q 546 958 342 958 l 992 958 l 882 178 l 1010 178 l 989 10 m 622 178 l 707 781 l 633 781 q 570 763 593 781 q 536 697 547 744 q 367 178 460 361 l 622 178 z "},"Е":{"ha":808,"x_min":56,"x_max":831,"o":"m 801 760 l 456 760 q 402 746 418 760 q 381 696 386 732 l 365 582 l 725 582 l 703 404 l 340 404 l 321 260 q 328 213 315 228 q 376 199 342 199 l 719 199 l 714 10 q 269 -4 597 -4 q 97 63 153 -4 q 56 242 42 129 l 128 761 q 203 909 142 856 q 367 963 264 963 q 831 946 703 963 l 801 760 z "},"Ж":{"ha":1314,"x_min":-43,"x_max":1357,"o":"m 1000 501 l 999 494 q 1140 415 1107 479 q 1214 114 1172 351 q 1235 0 1228 42 l 974 0 q 947 157 964 60 q 902 367 921 325 q 825 410 883 410 l 779 410 q 775 315 782 354 l 731 0 l 481 0 l 526 325 q 549 410 533 369 l 508 410 q 403 347 443 410 q 233 0 363 283 l -43 0 q 17 140 -3 94 q 66 246 38 185 q 109 332 94 307 q 148 392 124 357 q 189 438 172 426 q 232 466 206 450 q 284 488 258 482 q 346 499 310 493 l 347 506 q 280 524 307 514 q 232 556 253 535 q 199 601 211 578 q 176 670 188 624 q 156 761 164 717 q 136 886 149 806 q 125 958 129 933 l 383 958 q 400 851 389 919 q 444 634 425 683 q 519 585 464 585 l 579 585 q 582 708 574 644 l 617 958 l 865 958 l 828 699 q 804 585 818 633 l 832 585 q 936 638 899 585 q 1050 868 974 692 q 1089 958 1075 925 l 1357 958 q 1316 863 1340 921 q 1281 781 1292 806 q 1251 714 1269 756 q 1223 656 1233 672 q 1196 611 1213 639 q 1167 574 1179 583 q 1135 548 1154 564 q 1097 526 1117 532 q 1053 513 1078 519 q 1000 501 1029 506 z "},"З":{"ha":797,"x_min":-12,"x_max":760,"o":"m 129 758 l 118 940 q 444 969 258 969 q 708 913 635 969 q 760 710 781 857 q 703 558 746 607 q 567 500 660 508 l 565 493 q 722 229 757 475 q 627 40 703 90 q 379 -11 551 -11 q -12 38 154 -11 l 17 208 q 324 181 189 181 q 424 206 394 181 q 464 300 454 231 q 453 389 474 367 q 369 411 433 411 l 171 411 l 193 582 l 379 582 q 467 605 443 582 q 500 693 492 628 q 488 762 507 746 q 410 778 469 778 q 129 758 289 778 z "},"И":{"ha":1006,"x_min":31,"x_max":994,"o":"m 860 0 l 613 0 l 682 483 q 719 642 694 565 l 710 642 q 635 504 660 539 l 289 0 l 31 0 l 165 958 l 417 958 l 350 490 q 308 319 342 425 l 319 319 q 399 464 354 400 l 742 958 l 994 958 l 860 0 z "},"Й":{"ha":1006,"x_min":31,"x_max":994,"o":"m 696 1253 l 851 1253 q 781 1091 851 1157 q 596 1025 710 1025 q 408 1091 471 1025 q 374 1253 346 1157 l 535 1253 q 537 1168 518 1192 q 600 1144 556 1144 q 696 1253 694 1144 m 860 0 l 613 0 l 682 483 q 719 642 694 565 l 710 642 q 635 504 660 539 l 289 0 l 31 0 l 165 958 l 417 958 l 350 490 q 308 319 342 425 l 319 319 q 399 464 354 400 l 742 958 l 994 958 l 860 0 z "},"К":{"ha":913,"x_min":31,"x_max":950,"o":"m 586 501 l 585 493 q 652 477 625 488 q 701 454 679 467 q 739 415 724 442 q 766 361 754 389 q 789 281 778 333 q 808 179 800 229 q 831 44 817 129 q 838 0 835 15 l 571 0 q 522 310 533 267 q 456 401 501 385 q 393 410 432 410 l 338 410 q 336 315 342 360 l 292 0 l 31 0 l 165 958 l 426 958 l 389 699 q 364 585 378 626 l 408 585 q 544 655 499 586 q 679 958 590 724 l 950 958 q 817 654 844 706 q 689 526 763 558 q 586 501 649 510 z "},"Л":{"ha":967,"x_min":-35,"x_max":956,"o":"m 956 958 l 821 0 l 561 0 l 671 781 l 597 781 q 531 763 551 781 q 500 700 511 746 q 357 207 414 321 q 195 22 289 69 q -26 -4 101 -25 l -35 199 q 64 228 36 210 q 121 297 97 250 q 256 763 179 404 q 506 958 300 958 l 956 958 z "},"М":{"ha":1299,"x_min":13,"x_max":1257,"o":"m 931 958 l 1171 958 q 1239 932 1215 958 q 1257 861 1263 906 l 1171 0 l 933 0 l 1011 760 l 990 760 l 799 219 q 692 143 775 143 l 546 143 q 478 166 504 143 q 451 229 453 189 l 407 760 l 383 760 l 251 0 l 13 0 l 169 871 q 200 938 178 917 q 267 958 222 958 l 497 958 q 563 935 538 958 q 589 872 588 913 l 622 447 q 624 307 628 382 l 640 307 q 679 444 653 361 l 825 881 q 931 958 846 958 z "},"Н":{"ha":974,"x_min":31,"x_max":964,"o":"m 964 958 l 829 0 l 568 0 l 626 413 l 350 413 l 292 0 l 31 0 l 165 958 l 426 958 l 378 604 l 653 604 l 703 958 l 964 958 z "},"О":{"ha":960,"x_min":65,"x_max":917,"o":"m 539 978 q 865 866 775 978 q 917 469 956 754 q 862 229 897 324 q 767 79 826 135 q 631 2 708 24 q 439 -19 554 -19 q 113 91 199 -19 q 65 489 26 201 q 208 874 104 771 q 539 978 313 978 m 535 778 q 405 717 443 778 q 338 469 367 657 q 334 238 313 294 q 444 181 356 181 q 576 241 538 181 q 643 489 615 301 q 647 722 668 667 q 535 778 625 778 z "},"П":{"ha":975,"x_min":31,"x_max":965,"o":"m 965 958 l 831 0 l 568 0 l 678 781 l 403 781 l 293 0 l 31 0 l 165 958 l 965 958 z "},"Р":{"ha":872,"x_min":31,"x_max":874,"o":"m 31 0 l 165 958 q 536 972 299 972 q 822 900 746 972 q 874 642 899 828 q 769 395 849 458 q 503 332 690 332 q 338 343 422 332 l 290 0 l 31 0 m 364 522 l 483 522 q 578 547 553 522 q 617 661 604 572 q 608 757 626 732 q 529 782 590 782 l 400 781 l 364 522 z "},"С":{"ha":825,"x_min":65,"x_max":842,"o":"m 739 217 l 749 25 q 428 -17 614 -17 q 110 99 194 -17 q 65 489 26 214 q 206 873 104 771 q 540 975 307 975 q 842 939 714 975 l 811 749 q 528 753 665 753 q 433 733 465 753 q 377 653 400 714 q 338 469 354 593 q 333 258 314 311 q 439 206 351 206 q 739 217 622 206 z "},"Т":{"ha":843,"x_min":67,"x_max":903,"o":"m 875 757 l 601 757 l 494 0 l 233 0 l 340 757 l 67 757 l 94 958 l 903 958 l 875 757 z "},"У":{"ha":844,"x_min":54,"x_max":924,"o":"m 924 958 l 606 250 q 485 53 546 115 q 326 -17 425 -8 q 54 4 231 -26 l 93 183 q 264 189 219 179 q 336 247 308 199 l 347 269 l 303 269 q 178 389 194 269 l 74 958 l 335 958 l 394 479 q 415 458 396 458 l 438 458 l 649 958 l 924 958 z "},"Ф":{"ha":1194,"x_min":46,"x_max":1172,"o":"m 813 989 l 797 878 q 1115 768 1029 860 q 1172 471 1201 676 q 1037 180 1144 265 q 683 83 929 94 l 668 -26 l 407 -26 l 421 85 q 102 193 188 101 q 46 492 17 285 q 183 783 74 697 q 536 879 292 868 l 550 989 l 813 989 m 760 692 l 697 272 q 851 326 811 282 q 908 492 892 371 q 892 642 922 600 q 760 692 863 683 m 460 271 l 521 690 q 367 636 407 681 q 311 471 326 592 q 324 319 296 360 q 460 271 351 279 z "},"Х":{"ha":913,"x_min":-56,"x_max":969,"o":"m 681 490 l 850 0 l 592 0 l 469 417 l 225 0 l -56 0 l 256 490 l 103 958 l 357 958 l 468 569 l 472 569 l 701 958 l 969 958 l 681 490 z "},"Ц":{"ha":1024,"x_min":32,"x_max":969,"o":"m 944 0 l 915 -210 l 724 -210 l 735 0 l 32 0 l 167 958 l 428 958 l 318 178 l 581 178 l 690 958 l 951 958 l 842 178 l 969 178 l 944 0 z "},"Ч":{"ha":935,"x_min":76,"x_max":925,"o":"m 925 958 l 790 0 l 529 0 l 582 379 q 314 311 435 311 q 118 372 176 311 q 76 558 60 433 l 132 958 l 394 958 l 344 604 q 354 542 336 558 q 419 526 372 526 q 610 568 513 526 l 664 958 l 925 958 z "},"Ш":{"ha":1381,"x_min":31,"x_max":1369,"o":"m 1369 958 l 1235 0 l 31 0 l 165 958 l 419 958 l 310 178 l 532 178 l 642 958 l 894 958 l 785 178 l 1006 178 l 1117 958 l 1369 958 z "},"Щ":{"ha":1442,"x_min":32,"x_max":1388,"o":"m 1388 178 l 1363 0 l 1333 -210 l 1143 -210 l 1153 0 l 32 0 l 167 958 l 421 958 l 311 178 l 532 178 l 642 958 l 896 958 l 786 178 l 1006 178 l 1115 958 l 1369 958 l 1261 178 l 1388 178 z "},"Ъ":{"ha":1075,"x_min":64,"x_max":1024,"o":"m 597 617 l 696 617 q 976 546 903 617 q 1024 293 1050 475 q 926 52 999 115 q 675 -11 853 -11 q 250 0 392 -11 l 357 757 l 64 757 l 92 958 l 646 958 l 597 617 m 536 176 l 626 176 q 728 199 703 176 q 765 311 753 221 q 763 424 776 397 q 676 450 749 450 l 574 450 l 536 176 z "},"Ы":{"ha":1286,"x_min":31,"x_max":1275,"o":"m 379 617 l 476 617 q 756 546 682 617 q 804 293 831 475 q 706 51 778 114 q 457 -11 633 -11 q 31 0 172 -11 l 165 958 l 426 958 l 379 617 m 1275 958 l 1140 0 l 879 0 l 1014 958 l 1275 958 m 317 176 l 407 176 q 508 199 483 176 q 544 311 533 221 q 542 424 556 399 q 457 450 528 450 l 356 450 l 317 176 z "},"Ь":{"ha":863,"x_min":31,"x_max":811,"o":"m 379 617 l 481 617 q 763 546 689 617 q 811 293 838 475 q 713 52 786 115 q 460 -11 639 -11 q 31 0 174 -11 l 165 958 l 426 958 l 379 617 m 317 176 l 410 176 q 514 199 488 176 q 551 311 540 221 q 549 424 564 397 q 461 450 535 450 l 356 450 l 317 176 z "},"Э":{"ha":826,"x_min":-8,"x_max":783,"o":"m 122 749 l 114 940 q 407 975 243 975 q 733 860 644 975 q 783 469 821 746 q 643 93 747 200 q 315 -17 539 -14 q -8 28 118 -18 l 24 218 q 306 206 138 204 q 438 249 397 207 q 503 406 479 292 l 126 406 l 146 582 l 529 582 q 509 719 538 686 q 401 753 481 753 q 122 749 261 753 z "},"Ю":{"ha":1382,"x_min":32,"x_max":1338,"o":"m 375 583 l 532 583 q 673 894 576 810 q 969 978 769 978 q 1284 860 1192 978 q 1338 469 1376 743 q 1194 83 1297 185 q 858 -19 1092 -19 q 567 74 649 -19 q 506 407 485 167 l 351 407 l 293 0 l 32 0 l 167 958 l 428 958 l 375 583 m 1065 489 q 1069 720 1089 663 q 963 778 1049 778 q 832 717 869 778 q 768 469 794 657 q 765 238 744 296 q 869 181 786 181 q 1001 242 963 181 q 1065 489 1040 303 z "},"Я":{"ha":914,"x_min":-29,"x_max":904,"o":"m 904 958 l 769 0 l 507 0 l 558 358 l 465 358 q 397 341 421 358 q 357 281 372 324 l 254 0 l -29 0 l 89 299 q 269 442 139 429 l 271 449 q 134 538 172 463 q 111 717 96 613 q 224 919 132 865 q 508 972 317 972 q 904 958 758 972 m 585 549 l 617 782 l 500 782 q 408 760 435 782 q 371 676 381 739 q 380 576 360 604 q 465 549 400 549 l 585 549 z "},"а":{"ha":842,"x_min":43,"x_max":806,"o":"m 711 0 l 515 0 l 515 131 q 239 -17 418 -8 q 58 71 103 -24 q 43 361 14 165 q 70 483 53 431 q 108 573 88 536 q 158 635 128 610 q 218 674 189 660 q 290 697 247 689 q 372 708 333 706 q 465 710 410 710 q 647 696 539 710 q 806 667 756 682 l 711 0 m 536 536 l 453 538 q 347 506 379 538 q 300 365 315 475 q 288 213 282 246 q 339 181 294 179 q 503 301 415 185 l 536 536 z "},"б":{"ha":836,"x_min":49,"x_max":818,"o":"m 796 1014 l 818 813 q 623 786 732 790 q 465 769 514 782 q 317 668 363 743 q 269 576 286 631 q 510 667 367 667 q 742 586 683 667 q 779 331 801 506 q 666 65 756 147 q 393 -17 576 -17 q 255 -3 314 -17 q 157 30 196 10 q 94 86 118 50 q 60 156 71 122 q 49 243 50 189 q 52 339 49 297 q 65 446 56 381 q 92 597 78 535 q 128 721 106 658 q 183 825 151 783 q 263 901 215 867 q 375 954 311 935 q 593 990 454 978 q 796 1014 732 1001 m 517 351 q 520 482 532 453 q 454 511 508 511 q 353 474 382 511 q 308 332 324 436 q 306 194 293 226 q 376 161 318 161 q 470 200 440 161 q 517 351 500 239 z "},"в":{"ha":810,"x_min":40,"x_max":760,"o":"m 563 363 l 561 356 q 743 161 771 343 q 645 19 726 58 q 392 -19 564 -19 q 86 69 163 -19 q 40 371 10 158 q 164 640 68 565 q 468 710 260 715 q 699 656 622 704 q 760 506 775 608 q 563 363 740 374 m 304 417 l 410 425 q 492 442 467 429 q 524 481 518 454 q 512 526 531 514 q 436 539 493 539 q 342 511 368 539 q 304 417 315 483 m 401 292 l 285 283 q 292 176 275 201 q 372 151 308 151 q 465 165 439 151 q 499 222 492 179 q 483 280 504 264 q 401 292 463 296 z "},"г":{"ha":756,"x_min":10,"x_max":722,"o":"m 92 503 l 88 654 q 417 710 233 707 q 647 668 565 711 q 722 515 729 625 q 699 430 719 468 q 657 370 679 392 q 598 331 635 349 q 544 306 561 313 q 499 293 526 300 l 333 247 q 269 224 285 233 q 251 199 253 214 q 276 171 250 176 q 376 169 301 165 q 654 201 536 178 l 672 42 q 338 -17 501 -17 q 81 36 164 -17 q 10 204 -3 89 q 68 333 18 286 q 210 406 118 379 l 376 451 q 474 490 461 476 q 479 508 479 499 q 458 529 479 525 q 365 531 436 533 q 92 503 285 526 z "},"д":{"ha":828,"x_min":40,"x_max":776,"o":"m 175 844 l 208 1006 q 776 392 851 950 q 649 74 746 168 q 357 -19 551 -19 q 101 62 183 -19 q 40 308 18 143 q 142 551 63 474 q 367 628 222 628 q 524 589 463 628 q 434 754 513 697 q 175 844 356 811 m 376 160 q 465 210 439 160 q 515 411 492 261 l 518 440 q 435 460 479 460 q 344 424 372 460 q 304 304 317 389 q 306 190 292 221 q 376 160 319 160 z "},"е":{"ha":800,"x_min":38,"x_max":771,"o":"m 686 196 l 703 39 q 386 -17 579 -17 q 94 74 172 -17 q 38 354 17 165 q 156 635 61 561 q 449 710 251 710 q 717 648 644 710 q 771 461 789 586 q 691 330 757 368 q 482 281 625 292 l 294 267 q 322 197 296 214 q 411 179 349 179 q 686 196 543 179 m 310 400 l 426 411 q 501 430 478 415 q 528 486 524 444 q 514 530 531 519 q 444 539 497 540 q 353 510 381 538 q 310 400 326 483 z "},"ж":{"ha":1147,"x_min":-42,"x_max":1156,"o":"m 857 363 l 856 356 q 908 343 890 349 q 947 330 926 338 q 979 304 968 322 q 1002 267 990 286 q 1025 204 1014 247 q 1047 119 1036 161 q 1074 0 1057 78 l 833 0 q 774 240 789 204 q 706 278 758 276 l 661 278 q 661 215 665 244 l 633 0 l 413 0 l 443 218 q 457 278 449 251 l 425 278 q 378 272 394 278 q 338 233 363 265 q 288 153 313 201 q 214 0 264 106 l -42 0 q 89 258 68 225 q 185 339 129 321 q 285 358 215 349 l 286 365 q 153 421 179 381 q 90 656 126 461 q 83 690 86 678 l 324 690 q 370 476 354 514 q 440 439 386 439 l 482 439 q 485 531 478 475 l 507 690 l 728 690 l 703 525 q 685 439 694 474 l 704 439 q 793 477 764 439 q 903 690 822 515 l 1156 690 q 1025 442 1054 483 q 921 369 983 383 q 857 363 896 365 z "},"з":{"ha":728,"x_min":-15,"x_max":675,"o":"m 88 510 l 79 678 q 356 708 196 708 q 619 669 546 708 q 675 510 692 629 q 628 402 667 439 q 504 358 590 365 l 503 351 q 653 163 678 339 q 563 15 636 49 q 319 -18 490 -18 q -15 14 121 -18 l 10 179 q 290 164 156 164 q 379 174 357 164 q 404 222 401 185 q 392 265 410 254 q 328 278 375 275 l 107 278 l 125 424 l 335 424 q 401 436 381 424 q 428 478 421 449 q 415 516 431 508 q 338 524 400 524 q 88 510 238 524 z "},"и":{"ha":842,"x_min":38,"x_max":807,"o":"m 807 690 l 711 0 l 514 0 l 513 124 q 222 -19 364 -19 q 72 33 119 -19 q 38 178 24 85 l 108 690 l 363 690 l 299 249 q 305 206 294 218 q 339 193 315 193 q 497 269 401 193 l 557 690 l 807 690 z "},"й":{"ha":842,"x_min":38,"x_max":807,"o":"m 563 996 l 718 996 q 649 833 719 899 q 464 768 578 768 q 276 834 339 768 q 242 996 214 900 l 401 996 q 467 886 372 886 q 563 996 561 886 m 807 690 l 711 0 l 514 0 l 513 124 q 222 -19 364 -19 q 72 33 119 -19 q 38 178 24 85 l 108 690 l 363 690 l 299 249 q 305 206 294 218 q 339 193 315 193 q 497 269 401 193 l 557 690 l 807 690 z "},"к":{"ha":801,"x_min":18,"x_max":808,"o":"m 518 360 l 517 351 q 652 296 626 336 q 717 38 678 256 q 724 0 721 13 l 469 0 q 422 235 438 197 q 347 274 406 274 l 299 274 q 300 213 304 238 l 269 0 l 18 0 l 115 690 l 365 690 l 343 524 q 324 440 338 485 l 344 440 q 447 478 418 440 q 543 690 475 515 l 808 690 q 789 646 801 675 q 742 538 756 569 q 705 467 728 507 q 671 416 682 426 q 633 390 660 406 q 584 369 607 374 q 518 360 561 365 z "},"л":{"ha":847,"x_min":-25,"x_max":813,"o":"m 813 690 l 715 0 l 464 0 l 538 522 l 488 522 q 439 508 456 522 q 413 454 422 493 q 329 164 363 276 q -11 -6 268 -51 l -25 185 q 67 207 43 190 q 99 251 88 222 q 176 522 136 347 q 248 649 196 608 q 393 690 300 690 l 813 690 z "},"м":{"ha":1115,"x_min":7,"x_max":1061,"o":"m 761 690 l 979 690 q 1061 599 1069 690 l 994 0 l 767 0 l 821 507 l 804 507 l 676 168 q 578 96 653 96 l 465 96 q 403 117 426 96 q 378 178 381 139 l 338 507 l 321 507 l 236 0 l 7 0 l 108 597 q 138 669 115 647 q 207 690 161 690 l 414 690 q 500 607 496 690 l 524 364 q 525 249 525 344 l 540 249 q 568 361 563 344 l 664 617 q 761 690 685 690 z "},"н":{"ha":854,"x_min":18,"x_max":818,"o":"m 818 690 l 721 0 l 474 0 l 513 279 l 306 279 l 267 0 l 18 0 l 115 690 l 364 690 l 329 447 l 536 447 l 571 690 l 818 690 z "},"о":{"ha":838,"x_min":38,"x_max":782,"o":"m 447 710 q 731 623 650 710 q 782 335 811 536 q 665 62 756 140 q 375 -17 574 -17 q 92 69 174 -17 q 38 354 10 156 q 156 631 65 551 q 447 710 247 710 m 443 532 q 347 494 375 532 q 301 335 319 456 q 301 194 285 228 q 383 160 317 160 q 477 198 450 160 q 522 354 504 236 q 522 497 538 463 q 443 532 507 532 z "},"п":{"ha":853,"x_min":18,"x_max":799,"o":"m 311 690 l 315 561 q 624 710 467 710 q 762 658 713 710 q 799 513 811 607 l 726 0 l 472 0 l 535 433 q 531 485 539 472 q 493 496 522 499 q 329 417 425 493 l 271 0 l 18 0 l 114 690 l 311 690 z "},"р":{"ha":844,"x_min":-18,"x_max":786,"o":"m 314 690 l 314 564 q 596 707 451 707 q 786 329 836 707 q 744 150 772 221 q 671 43 715 79 q 578 -6 626 7 q 463 -19 531 -19 q 265 0 363 -19 q 256 -131 265 -64 l 235 -257 l -18 -257 l 114 690 l 314 690 m 293 143 l 376 143 q 485 174 460 143 q 528 325 511 206 q 536 474 544 439 q 489 510 528 510 q 329 424 418 510 l 293 143 z "},"с":{"ha":728,"x_min":38,"x_max":715,"o":"m 632 196 l 650 33 q 361 -17 535 -17 q 92 72 174 -17 q 38 356 10 160 q 151 628 65 547 q 422 710 236 710 q 715 660 599 710 l 682 506 l 454 507 q 345 474 378 507 q 301 347 313 440 q 308 215 288 246 q 406 185 329 185 q 632 196 536 185 z "},"т":{"ha":1231,"x_min":18,"x_max":1175,"o":"m 311 690 l 315 581 q 578 710 446 710 q 751 597 725 710 q 997 710 869 710 q 1142 658 1096 710 q 1175 513 1189 606 l 1104 0 l 854 0 l 915 442 q 878 496 922 496 q 742 428 824 496 l 682 0 l 440 0 l 501 442 q 498 484 507 472 q 465 496 489 496 q 328 432 414 496 l 269 0 l 18 0 l 115 690 l 311 690 z "},"у":{"ha":836,"x_min":-10,"x_max":838,"o":"m 569 690 l 838 690 q 753 351 800 493 q 610 44 706 208 q 545 -60 578 -14 q 469 -153 513 -107 q 377 -228 425 -199 q 269 -279 329 -257 q 141 -300 208 -301 q -10 -285 74 -299 l 8 -118 q 321 0 197 -150 l 229 0 q 171 20 194 0 q 143 72 147 40 l 46 690 l 321 690 l 354 181 q 378 158 357 158 l 419 158 q 569 690 519 353 z "},"ф":{"ha":1061,"x_min":38,"x_max":1006,"o":"m 722 972 l 686 704 q 955 598 878 685 q 1006 335 1032 511 q 885 78 982 158 q 582 -14 789 -1 l 550 -257 l 326 -257 l 358 -11 q 88 92 164 7 q 38 354 13 178 q 159 613 63 532 q 463 707 256 693 l 497 972 l 722 972 m 394 156 l 449 538 q 326 485 363 526 q 276 344 289 443 q 288 206 264 247 q 394 156 313 165 m 650 536 l 594 156 q 719 208 682 167 q 768 346 756 250 q 756 485 781 443 q 650 536 732 526 z "},"х":{"ha":813,"x_min":-54,"x_max":836,"o":"m 597 353 l 750 0 l 511 0 l 400 276 l 208 0 l -54 0 l 201 353 l 61 690 l 297 690 l 400 431 l 581 690 l 836 690 l 597 353 z "},"ц":{"ha":899,"x_min":38,"x_max":842,"o":"m 821 0 l 790 -207 l 582 -207 l 643 0 l 635 0 q 548 33 583 0 q 511 122 513 67 q 222 -19 364 -19 q 72 33 119 -19 q 38 178 24 85 l 110 690 l 363 690 l 300 249 q 305 206 294 218 q 340 193 315 193 q 497 268 400 193 l 557 690 l 807 690 l 736 179 q 742 158 735 167 q 763 150 750 150 l 842 150 l 821 0 z "},"ч":{"ha":817,"x_min":46,"x_max":782,"o":"m 782 690 l 685 0 l 433 0 l 467 243 q 264 204 371 204 q 85 249 139 204 q 46 399 32 294 l 90 690 l 342 690 l 308 443 q 313 401 303 413 q 357 389 324 389 q 492 421 421 389 l 529 690 l 782 690 z "},"ш":{"ha":1224,"x_min":38,"x_max":1188,"o":"m 1188 690 l 1090 0 l 896 0 l 890 111 q 629 -19 761 -19 q 460 93 486 -19 q 217 -19 339 -19 q 71 33 118 -19 q 38 178 24 85 l 110 690 l 361 690 l 299 249 q 304 208 294 219 q 336 197 314 197 q 469 265 388 197 l 529 690 l 767 690 l 706 249 q 709 208 700 219 q 744 197 718 197 q 878 261 796 197 l 936 690 l 1188 690 z "},"щ":{"ha":1278,"x_min":38,"x_max":1219,"o":"m 1199 0 l 1169 -207 l 961 -207 l 1024 0 l 1011 0 q 931 31 964 0 q 892 113 897 61 q 763 12 824 43 q 631 -19 701 -19 q 460 93 486 -19 q 217 -19 342 -19 q 71 33 118 -19 q 38 178 24 85 l 110 690 l 361 690 l 300 249 q 304 208 294 219 q 336 197 314 197 q 469 265 388 197 l 529 690 l 767 690 l 706 249 q 710 208 701 219 q 744 197 719 197 q 876 260 793 197 l 936 690 l 1186 690 l 1117 179 q 1122 158 1115 167 q 1142 150 1129 150 l 1219 150 l 1199 0 z "},"ъ":{"ha":908,"x_min":32,"x_max":851,"o":"m 574 690 l 513 453 q 608 464 568 464 q 818 412 765 461 q 851 218 871 363 q 758 35 832 83 q 521 -14 683 -14 q 457 -12 486 -14 q 394 -6 428 -10 q 335 8 361 -1 q 283 30 308 17 q 242 63 258 43 q 215 109 225 83 q 205 170 204 135 q 217 247 206 206 l 288 507 l 32 507 l 57 690 l 574 690 m 475 310 l 451 218 q 459 172 443 185 q 514 158 475 158 q 575 174 558 158 q 601 238 592 190 q 600 302 611 288 q 546 317 589 317 q 475 310 508 317 z "},"ы":{"ha":1114,"x_min":42,"x_max":1079,"o":"m 351 690 l 317 446 q 442 464 383 464 q 651 412 599 461 q 685 218 704 363 q 592 35 667 83 q 354 -14 517 -14 q 253 -10 294 -14 q 165 7 211 -7 q 92 44 119 21 q 50 112 65 68 q 42 215 35 156 l 108 690 l 351 690 m 1079 690 l 982 0 l 729 0 l 825 690 l 1079 690 m 297 307 l 285 214 q 297 171 279 183 q 350 158 314 158 q 411 175 393 158 q 436 238 429 192 q 434 302 444 288 q 379 317 424 317 q 297 307 335 317 z "},"ь":{"ha":747,"x_min":42,"x_max":690,"o":"m 351 690 l 317 446 q 443 464 381 464 q 655 412 601 461 q 690 218 708 363 q 597 35 672 83 q 358 -14 521 -14 q 256 -10 299 -14 q 167 6 214 -7 q 92 44 119 19 q 50 111 65 68 q 42 215 35 154 l 108 690 l 351 690 m 296 307 l 283 214 q 297 171 279 183 q 353 158 315 158 q 416 175 397 158 q 442 238 435 192 q 438 303 449 289 q 382 317 426 317 q 296 307 335 317 z "},"э":{"ha":761,"x_min":-11,"x_max":704,"o":"m 83 514 l 72 669 q 367 707 192 707 q 647 622 568 707 q 704 332 726 536 q 587 55 682 129 q 283 -18 492 -19 q -11 26 104 -18 l 15 182 q 254 175 74 179 q 390 192 354 174 q 440 275 426 210 l 97 275 l 115 425 l 458 425 q 436 500 460 483 q 342 517 413 517 l 83 514 z "},"ю":{"ha":1182,"x_min":18,"x_max":1126,"o":"m 332 438 l 446 438 q 560 653 481 597 q 804 710 639 710 q 1081 631 1006 710 q 1126 333 1157 551 q 1013 56 1097 126 q 732 -14 928 -14 q 485 47 557 -14 q 422 268 414 107 l 308 268 l 271 0 l 18 0 l 115 690 l 367 690 l 332 438 m 864 346 q 863 485 878 453 q 789 518 849 518 q 701 485 726 518 q 661 346 675 451 q 660 208 646 239 q 736 176 675 176 q 825 210 800 176 q 864 346 850 243 z "},"я":{"ha":804,"x_min":-25,"x_max":771,"o":"m 194 303 l 196 310 q 68 504 43 349 q 171 670 88 633 q 471 707 254 707 q 771 696 679 707 l 674 0 l 428 0 l 460 225 l 378 225 q 290 174 306 225 l 235 0 l -25 0 l 43 211 q 103 283 60 261 q 194 303 146 304 m 481 379 l 503 529 l 394 529 q 331 516 347 529 q 308 463 315 503 q 316 397 301 415 q 381 379 331 379 l 481 379 z "},"ё":{"ha":800,"x_min":38,"x_max":771,"o":"m 394 801 l 299 801 q 258 846 251 801 l 274 940 q 325 986 279 986 l 415 986 q 456 943 464 986 l 442 844 q 394 801 436 801 m 647 801 l 553 801 q 513 846 506 801 l 526 942 q 576 986 535 986 l 669 986 q 710 943 715 986 l 694 846 q 647 801 690 801 m 686 196 l 703 39 q 386 -17 579 -17 q 94 74 172 -17 q 38 354 17 165 q 156 635 61 561 q 449 710 251 710 q 717 648 644 710 q 771 461 789 586 q 691 330 757 368 q 482 281 625 292 l 294 267 q 322 197 296 214 q 411 179 349 179 q 686 196 543 179 m 310 400 l 426 411 q 501 430 478 415 q 528 486 524 444 q 514 530 531 519 q 444 539 497 540 q 353 510 381 538 q 310 400 326 483 z "},"ђ":{"ha":858,"x_min":46,"x_max":810,"o":"m 392 658 l 383 604 q 353 465 374 531 q 622 582 492 582 q 775 531 726 582 q 810 385 824 481 l 756 0 l 503 0 l 547 308 q 540 354 551 342 q 494 367 529 367 q 340 304 429 367 l 300 0 l 46 0 l 139 658 l 51 658 l 67 771 l 154 771 l 183 972 l 436 972 l 407 771 l 646 771 l 629 658 l 392 658 z "},"ѓ":{"ha":756,"x_min":10,"x_max":722,"o":"m 693 885 l 342 744 l 283 850 l 608 1063 l 693 885 m 92 503 l 88 654 q 417 710 233 707 q 647 668 565 711 q 722 515 729 625 q 699 430 719 468 q 657 370 679 392 q 598 331 635 349 q 544 306 561 313 q 499 293 526 300 l 333 247 q 269 224 285 233 q 251 199 253 214 q 276 171 250 176 q 376 169 301 165 q 654 201 536 178 l 672 42 q 338 -17 501 -17 q 81 36 164 -17 q 10 204 -3 89 q 68 333 18 286 q 210 406 118 379 l 376 451 q 474 490 461 476 q 479 508 479 499 q 458 529 479 525 q 365 531 436 533 q 92 503 285 526 z "},"є":{"ha":760,"x_min":38,"x_max":747,"o":"m 747 667 l 719 513 q 454 514 629 514 q 350 497 381 514 q 303 425 319 481 l 649 425 l 631 275 l 283 275 q 310 197 283 217 q 408 175 336 178 q 665 182 533 175 l 678 21 q 403 -18 567 -18 q 100 72 183 -18 q 38 353 17 163 q 82 535 49 463 q 172 644 115 607 q 292 694 229 681 q 446 707 356 707 q 747 667 635 707 z "},"ѕ":{"ha":747,"x_min":4,"x_max":717,"o":"m 361 244 l 207 297 q 58 525 35 356 q 144 665 71 621 q 382 710 217 710 q 717 679 582 707 l 694 528 q 426 531 514 531 q 324 526 347 531 q 299 506 300 522 q 310 480 296 490 q 369 456 325 469 l 528 404 q 681 190 700 349 q 584 26 665 67 q 335 -15 503 -15 q 4 13 171 -15 l 26 164 q 125 163 42 164 q 253 163 208 163 q 399 169 364 163 q 438 196 435 175 q 426 219 439 211 q 361 244 413 228 z "},"і":{"ha":411,"x_min":24,"x_max":407,"o":"m 233 1001 l 335 1001 q 407 922 415 1001 l 397 850 q 315 781 388 781 l 213 781 q 142 860 133 781 l 153 932 q 233 1001 158 1001 m 275 0 l 24 0 l 119 690 l 371 690 l 275 0 z "},"ї":{"ha":406,"x_min":19,"x_max":490,"o":"m 357 986 l 449 986 q 490 943 496 986 l 475 846 q 428 801 469 801 l 333 801 q 293 846 285 801 l 307 942 q 357 986 315 986 m 106 986 l 196 986 q 236 943 244 986 l 221 844 q 175 801 217 801 l 79 801 q 39 846 32 801 l 54 940 q 106 986 60 986 m 274 0 l 19 0 l 117 690 l 369 690 l 274 0 z "},"ј":{"ha":413,"x_min":-89,"x_max":404,"o":"m 235 1001 l 333 1001 q 404 922 414 1001 l 394 850 q 311 781 386 781 l 211 781 q 140 860 131 781 l 150 932 q 235 1001 158 1001 m 374 690 l 282 54 q 206 -139 268 -50 q 50 -271 144 -228 l -89 -154 q 32 64 14 -56 l 121 690 l 374 690 z "},"љ":{"ha":1158,"x_min":-28,"x_max":1100,"o":"m 767 690 l 732 444 q 868 464 799 464 q 1068 410 1018 461 q 1100 218 1118 360 q 1007 40 1082 88 q 771 -8 932 -7 q 640 -1 693 -8 q 540 30 586 7 q 476 99 494 53 q 465 215 457 144 l 510 535 l 471 535 q 424 523 440 535 q 401 482 408 511 q 304 157 342 236 q 215 40 268 81 q 106 -5 163 0 q -17 -4 49 -10 l -28 171 q 93 239 57 181 q 186 540 126 290 q 250 653 203 617 q 382 690 297 690 l 767 690 m 713 306 l 700 214 q 712 171 694 183 q 765 158 729 158 q 826 175 810 158 q 850 238 843 192 q 848 302 858 288 q 799 317 838 317 q 713 306 750 317 z "},"њ":{"ha":1157,"x_min":18,"x_max":1100,"o":"m 768 690 l 733 444 q 860 464 797 464 q 1067 412 1015 461 q 1100 218 1119 363 q 1007 40 1082 88 q 771 -8 932 -8 q 647 -1 697 -8 q 548 27 597 6 q 478 96 499 49 q 465 215 457 143 l 475 290 l 288 290 l 247 0 l 18 0 l 115 690 l 343 690 l 310 444 l 497 444 l 531 690 l 768 690 m 714 307 l 700 214 q 713 171 696 183 q 767 158 731 158 q 828 175 810 158 q 851 238 846 192 q 849 303 858 289 q 796 317 839 317 q 714 307 751 317 z "},"ћ":{"ha":858,"x_min":46,"x_max":810,"o":"m 392 658 l 385 613 q 354 467 375 535 q 624 582 493 582 q 775 531 728 582 q 810 385 822 481 l 761 54 q 686 -140 747 -51 q 532 -271 625 -228 l 394 -154 q 511 64 494 -56 l 547 315 q 540 356 551 346 q 494 367 528 367 q 340 303 428 367 l 300 0 l 46 0 l 139 658 l 51 658 l 67 771 l 154 771 l 183 972 l 436 972 l 407 771 l 646 771 l 629 658 l 392 658 z "},"ќ":{"ha":801,"x_min":18,"x_max":808,"o":"m 411 744 l 351 850 l 676 1063 l 763 885 l 411 744 m 518 360 l 517 351 q 652 296 626 336 q 717 38 678 256 q 724 0 721 13 l 469 0 q 422 235 438 197 q 347 274 406 274 l 299 274 q 300 213 304 238 l 269 0 l 18 0 l 115 690 l 365 690 l 343 524 q 324 440 338 485 l 344 440 q 447 478 418 440 q 543 690 475 515 l 808 690 q 789 646 801 675 q 742 538 756 569 q 705 467 728 507 q 671 416 682 426 q 633 390 660 406 q 584 369 607 374 q 518 360 561 365 z "},"ѝ":{"ha":842,"x_min":38,"x_max":807,"o":"m 500 744 l 174 896 l 275 1057 l 582 849 l 500 744 m 807 690 l 711 0 l 514 0 l 513 124 q 222 -19 364 -19 q 72 33 119 -19 q 38 178 24 85 l 108 690 l 363 690 l 299 249 q 305 206 294 218 q 339 193 315 193 q 497 269 401 193 l 557 690 l 807 690 z "},"ў":{"ha":836,"x_min":-10,"x_max":838,"o":"m 569 996 l 724 996 q 654 833 725 899 q 469 768 583 768 q 282 834 344 768 q 247 996 219 900 l 407 996 q 410 910 392 933 q 472 886 429 886 q 569 996 565 886 m 569 690 l 838 690 q 753 351 800 493 q 610 44 706 208 q 545 -60 578 -14 q 469 -153 513 -107 q 377 -228 425 -199 q 269 -279 329 -257 q 141 -300 208 -301 q -10 -285 74 -299 l 8 -118 q 321 0 197 -150 l 229 0 q 171 20 194 0 q 143 72 147 40 l 46 690 l 321 690 l 354 181 q 378 158 357 158 l 419 158 q 569 690 519 353 z "},"џ":{"ha":842,"x_min":38,"x_max":807,"o":"m 807 690 l 711 0 l 514 0 l 513 124 q 222 -19 364 -19 q 72 33 119 -19 q 38 178 24 85 l 108 690 l 363 690 l 299 249 q 305 206 294 218 q 339 193 315 193 q 497 269 401 193 l 557 690 l 807 690 m 301 -56 l 461 -56 l 438 -343 l 243 -343 l 301 -56 z "},"Ґ":{"ha":763,"x_min":28,"x_max":857,"o":"m 857 1169 l 822 940 l 793 760 l 465 760 q 386 693 397 760 l 288 0 l 28 0 l 133 756 q 208 906 147 850 q 356 963 268 963 q 636 958 546 963 l 682 1169 l 857 1169 z "},"ґ":{"ha":668,"x_min":14,"x_max":721,"o":"m 689 678 l 660 503 l 396 503 q 328 447 336 503 l 265 0 l 14 0 l 88 529 q 149 660 101 619 q 288 700 196 700 q 504 696 432 700 l 546 888 l 721 888 l 689 678 z "},"Ұ":{"ha":885,"x_min":74,"x_max":967,"o":"m 625 411 l 761 411 l 742 276 l 553 276 l 514 0 l 253 0 l 292 276 l 101 276 l 119 411 l 263 411 l 74 958 l 335 958 l 425 629 q 440 497 438 579 l 458 499 q 504 629 471 564 l 690 958 l 967 958 l 625 411 z "},"ұ":{"ha":882,"x_min":33,"x_max":921,"o":"m 585 149 l 717 149 l 697 -1 l 508 -1 l 474 -258 l 211 -258 l 247 -1 l 60 -1 l 79 149 l 218 149 l 33 690 l 293 690 l 382 361 q 396 229 396 306 l 414 229 q 460 361 422 290 l 643 690 l 921 690 l 585 149 z "},"Ҷ":{"ha":1001,"x_min":78,"x_max":947,"o":"m 924 0 l 893 -210 l 704 -210 l 725 0 l 533 0 l 589 389 q 285 321 440 321 q 111 381 161 321 q 78 568 61 442 l 133 958 l 393 958 l 346 615 q 354 552 338 568 q 424 536 371 536 q 615 579 521 536 l 668 958 l 929 958 l 819 172 l 947 172 l 924 0 z "},"ҷ":{"ha":871,"x_min":46,"x_max":813,"o":"m 792 7 l 793 7 l 764 -192 l 551 -192 l 613 0 l 432 0 l 467 244 q 263 204 367 204 q 84 249 138 204 q 46 399 31 294 l 90 690 l 339 690 l 306 443 q 313 401 301 413 q 357 389 324 389 q 492 421 418 389 l 529 690 l 781 690 l 707 169 l 813 169 l 792 7 z "},"Һ":{"ha":936,"x_min":31,"x_max":878,"o":"m 428 958 l 374 571 q 671 638 521 638 q 846 576 796 638 q 878 390 896 515 l 824 0 l 563 0 l 611 343 q 603 407 619 390 q 532 422 586 424 q 347 381 435 417 l 293 0 l 31 0 l 165 958 l 428 958 z "},"Ӏ":{"ha":438,"x_min":32,"x_max":426,"o":"m 292 0 l 32 0 l 167 958 l 426 958 l 292 0 z "},"Ẁ":{"ha":1364,"x_min":106,"x_max":1410,"o":"m 896 1107 l 814 1001 l 486 1154 l 589 1314 l 896 1107 m 1410 958 l 1151 65 q 1058 0 1132 0 l 829 0 q 769 22 796 0 q 742 76 743 44 l 742 638 q 746 772 746 765 l 719 772 q 690 639 704 692 l 529 67 q 436 0 510 0 l 203 0 q 142 22 168 0 q 118 75 117 44 l 106 958 l 364 958 l 343 331 q 339 255 342 306 q 335 181 336 204 l 361 181 q 400 342 379 271 l 557 885 q 651 958 576 958 l 847 958 q 905 935 882 958 q 929 875 928 911 l 940 329 q 940 181 943 254 l 967 181 q 999 338 979 264 l 1151 958 l 1410 958 z "},"ẁ":{"ha":1261,"x_min":57,"x_max":1254,"o":"m 804 849 l 722 743 l 394 896 l 497 1056 l 804 849 m 329 163 l 340 163 q 375 181 361 163 q 403 244 389 200 q 438 386 419 294 q 475 628 442 408 q 498 672 479 653 q 549 690 517 690 l 767 690 q 813 673 794 690 q 833 628 832 656 l 853 163 l 864 163 q 883 168 875 163 q 899 190 892 174 q 908 216 906 207 q 918 254 910 225 q 963 421 938 314 q 1001 690 988 542 l 1254 690 q 1189 376 1228 517 q 1108 150 1150 236 q 1016 33 1069 67 q 850 0 963 0 l 744 0 q 694 19 714 0 q 674 67 674 39 l 661 539 l 643 539 q 613 342 639 475 q 568 174 592 238 q 476 31 533 63 q 313 0 419 0 l 179 0 q 130 19 150 0 q 107 67 110 38 l 57 692 l 314 692 l 329 163 z "},"Ẃ":{"ha":1364,"x_min":106,"x_max":1410,"o":"m 1056 1142 l 704 1001 l 644 1107 l 969 1319 l 1056 1142 m 1410 958 l 1151 65 q 1058 0 1132 0 l 829 0 q 769 22 796 0 q 742 76 743 44 l 742 638 q 746 772 746 765 l 719 772 q 690 639 704 692 l 529 67 q 436 0 510 0 l 203 0 q 142 22 168 0 q 118 75 117 44 l 106 958 l 364 958 l 343 331 q 339 255 342 306 q 335 181 336 204 l 361 181 q 400 342 379 271 l 557 885 q 651 958 576 958 l 847 958 q 905 935 882 958 q 929 875 928 911 l 940 329 q 940 181 943 254 l 967 181 q 999 338 979 264 l 1151 958 l 1410 958 z "},"ẃ":{"ha":1261,"x_min":57,"x_max":1254,"o":"m 964 883 l 613 743 l 553 849 l 878 1061 l 964 883 m 329 163 l 340 163 q 375 181 361 163 q 403 244 389 200 q 438 386 419 294 q 475 628 442 408 q 498 672 479 653 q 549 690 517 690 l 767 690 q 813 673 794 690 q 833 628 832 656 l 853 163 l 864 163 q 883 168 875 163 q 899 190 892 174 q 908 216 906 207 q 918 254 910 225 q 963 421 938 314 q 1001 690 988 542 l 1254 690 q 1189 376 1228 517 q 1108 150 1150 236 q 1016 33 1069 67 q 850 0 963 0 l 744 0 q 694 19 714 0 q 674 67 674 39 l 661 539 l 643 539 q 613 342 639 475 q 568 174 592 238 q 476 31 533 63 q 313 0 419 0 l 179 0 q 130 19 150 0 q 107 67 110 38 l 57 692 l 314 692 l 329 163 z "},"Ẅ":{"ha":1364,"x_min":106,"x_max":1410,"o":"m 871 1244 l 964 1244 q 1004 1200 1013 1244 l 990 1103 q 943 1060 985 1060 l 847 1060 q 807 1103 801 1060 l 822 1199 q 871 1244 828 1244 m 621 1244 l 710 1244 q 750 1200 758 1244 l 736 1103 q 689 1060 731 1060 l 593 1060 q 554 1103 546 1060 l 568 1197 q 621 1244 574 1244 m 1410 958 l 1151 65 q 1058 0 1132 0 l 829 0 q 769 22 796 0 q 742 76 743 44 l 742 638 q 746 772 746 765 l 719 772 q 690 639 704 692 l 529 67 q 436 0 510 0 l 203 0 q 142 22 168 0 q 118 75 117 44 l 106 958 l 364 958 l 343 331 q 339 255 342 306 q 335 181 336 204 l 361 181 q 400 342 379 271 l 557 885 q 651 958 576 958 l 847 958 q 905 935 882 958 q 929 875 928 911 l 940 329 q 940 181 943 254 l 967 181 q 999 338 979 264 l 1151 958 l 1410 958 z "},"ẅ":{"ha":1261,"x_min":57,"x_max":1254,"o":"m 779 986 l 872 986 q 913 942 921 986 l 897 844 q 851 801 893 801 l 756 801 q 715 844 710 801 l 731 940 q 779 986 736 986 m 529 986 l 618 986 q 658 942 667 986 l 644 844 q 597 801 639 801 l 501 801 q 461 844 456 801 l 476 939 q 529 986 482 986 m 329 163 l 340 163 q 375 181 361 163 q 403 244 389 200 q 438 386 419 294 q 475 628 442 408 q 498 672 479 653 q 549 690 517 690 l 767 690 q 813 673 794 690 q 833 628 832 656 l 853 163 l 864 163 q 883 168 875 163 q 899 190 892 174 q 908 216 906 207 q 918 254 910 225 q 963 421 938 314 q 1001 690 988 542 l 1254 690 q 1189 376 1228 517 q 1108 150 1150 236 q 1016 33 1069 67 q 850 0 963 0 l 744 0 q 694 19 714 0 q 674 67 674 39 l 661 539 l 643 539 q 613 342 639 475 q 568 174 592 238 q 476 31 533 63 q 313 0 419 0 l 179 0 q 130 19 150 0 q 107 67 110 38 l 57 692 l 314 692 l 329 163 z "},"Ỳ":{"ha":874,"x_min":69,"x_max":958,"o":"m 568 1001 l 242 1154 l 343 1314 l 650 1107 l 568 1001 m 550 301 l 508 0 l 246 0 l 290 314 l 69 958 l 331 958 l 419 629 q 433 497 433 567 l 451 497 q 496 629 460 556 l 679 958 l 958 958 l 550 301 z "},"ỳ":{"ha":836,"x_min":44,"x_max":839,"o":"m 504 744 l 176 896 l 279 1057 l 586 849 l 504 744 m 569 690 l 839 690 q 743 335 814 526 q 613 42 672 144 q 383 -208 510 -131 q 88 -285 256 -286 l 67 -142 q 99 -132 72 -140 q 132 -122 125 -124 q 160 -112 139 -119 q 191 -100 182 -104 q 219 -87 200 -96 q 248 -71 238 -79 q 274 -52 258 -62 q 301 -28 289 -42 q 326 0 314 -15 l 229 0 q 172 20 196 0 q 143 72 149 40 l 44 690 l 319 690 l 356 181 q 378 158 356 158 l 422 158 q 569 690 521 372 z "},"–":{"ha":757,"x_min":53,"x_max":690,"o":"m 668 279 l 53 279 l 75 432 l 690 432 l 668 279 z "},"—":{"ha":1165,"x_min":53,"x_max":1097,"o":"m 1075 279 l 53 279 l 75 432 l 1097 432 l 1075 279 z "},"‘":{"ha":310,"x_min":89,"x_max":307,"o":"m 206 581 l 163 581 q 101 600 118 581 q 89 664 83 619 l 100 744 q 138 876 110 807 q 204 994 167 946 l 300 958 q 249 790 274 897 q 298 774 285 792 q 307 719 311 757 l 297 658 q 271 597 292 614 q 206 581 250 581 z "},"’":{"ha":308,"x_min":106,"x_max":322,"o":"m 207 978 l 250 978 q 311 958 294 978 q 322 893 328 939 l 311 813 q 274 682 303 751 q 208 564 246 613 l 113 600 q 164 768 140 667 q 106 838 97 764 l 114 900 q 142 961 121 944 q 207 978 164 978 z "},"‚":{"ha":324,"x_min":8,"x_max":226,"o":"m 110 199 l 154 199 q 215 179 199 199 q 226 115 232 160 l 215 35 q 178 -97 207 -28 q 111 -215 149 -165 l 17 -179 q 68 -11 44 -108 q 19 5 32 -12 q 8 60 6 22 l 18 121 q 45 182 25 165 q 110 199 65 199 z "},"“":{"ha":574,"x_min":89,"x_max":571,"o":"m 206 581 l 163 581 q 101 600 118 581 q 89 664 83 619 l 100 744 q 138 876 110 807 q 204 994 167 946 l 300 958 q 249 790 274 897 q 298 774 285 792 q 307 719 311 757 l 297 658 q 271 597 292 614 q 206 581 250 581 m 469 581 l 426 581 q 365 600 382 581 q 354 664 349 619 l 365 744 q 402 875 374 806 q 468 994 431 944 l 564 958 q 513 790 538 897 q 562 774 549 792 q 571 719 575 757 l 563 658 q 535 597 556 614 q 469 581 514 581 z "},"”":{"ha":572,"x_min":106,"x_max":586,"o":"m 207 978 l 250 978 q 311 958 294 978 q 322 893 328 939 l 311 813 q 274 682 303 751 q 208 564 246 613 l 113 600 q 164 768 140 667 q 106 838 97 764 l 114 900 q 142 961 121 944 q 207 978 164 978 m 471 978 l 514 978 q 575 958 558 978 q 586 893 592 939 l 576 813 q 538 681 567 750 q 472 564 510 611 l 376 600 q 428 768 401 657 q 369 838 361 764 l 378 900 q 406 961 385 944 q 471 978 428 978 z "},"„":{"ha":588,"x_min":8,"x_max":490,"o":"m 110 199 l 154 199 q 215 179 199 199 q 226 115 232 160 l 215 33 q 178 -98 207 -28 q 111 -215 149 -168 l 17 -179 q 68 -11 44 -108 q 19 5 32 -12 q 8 58 6 22 l 18 121 q 46 182 25 165 q 110 199 67 199 m 375 199 l 418 199 q 479 179 463 199 q 490 115 496 160 l 479 33 q 442 -97 471 -28 q 376 -215 413 -167 l 281 -179 q 332 -11 308 -108 q 283 5 296 -12 q 274 58 269 22 l 282 121 q 310 182 289 165 q 375 199 332 199 z "},"†":{"ha":665,"x_min":51,"x_max":668,"o":"m 354 -153 l 153 -153 l 265 557 l 282 672 l 310 960 l 511 960 l 458 672 l 443 557 l 354 -153 m 51 511 l 76 690 l 256 690 l 235 538 l 51 511 m 668 690 l 644 511 l 468 538 l 489 690 l 668 690 z "},"‡":{"ha":707,"x_min":14,"x_max":686,"o":"m 479 689 l 400 132 l 372 -153 l 171 -153 l 224 132 l 301 689 l 328 960 l 529 960 l 479 689 m 251 538 l 69 511 l 94 690 l 274 690 l 251 538 m 661 511 l 485 538 l 507 690 l 686 690 l 661 511 m 214 269 l 193 117 l 14 117 l 39 296 l 214 269 m 606 117 l 426 117 l 449 269 l 631 296 l 606 117 z "},"•":{"ha":521,"x_min":82,"x_max":431,"o":"m 264 544 l 293 544 q 410 508 379 544 q 431 382 442 471 l 426 361 q 378 232 413 265 q 254 199 343 199 l 222 199 q 101 237 133 199 q 82 369 69 275 l 86 392 q 135 513 99 481 q 264 544 171 544 z "},"…":{"ha":1258,"x_min":-7,"x_max":1149,"o":"m 99 236 l 151 236 q 218 212 196 236 q 235 143 240 188 l 226 82 q 131 0 217 0 l 76 0 q -7 92 -19 0 l 1 154 q 99 236 14 236 m 1011 236 l 1065 236 q 1132 212 1110 236 q 1149 143 1154 188 l 1140 82 q 1043 0 1128 0 l 990 0 q 907 92 894 0 l 914 154 q 1011 236 926 236 m 556 236 l 608 236 q 675 212 653 236 q 692 143 697 188 l 683 82 q 588 0 674 0 l 533 0 q 450 92 438 0 l 458 154 q 556 236 468 236 z "},"‰":{"ha":1819,"x_min":76,"x_max":1760,"o":"m 346 978 q 537 912 485 978 q 567 682 589 846 q 486 465 544 524 q 294 406 428 406 q 106 472 158 406 q 76 701 54 539 q 157 919 99 860 q 346 978 215 978 m 382 0 l 219 0 l 904 958 l 1065 958 l 382 0 m 343 843 q 287 814 301 843 q 260 682 272 785 q 254 566 247 592 q 299 540 261 540 q 356 569 340 540 q 383 701 371 599 q 387 817 394 792 q 343 843 379 843 m 992 553 q 1183 487 1131 553 q 1213 258 1235 421 q 1132 41 1190 100 q 940 -18 1074 -18 q 751 48 803 -18 q 722 276 700 114 q 803 494 744 435 q 992 553 861 553 m 1540 553 q 1731 487 1679 553 q 1760 258 1783 421 q 1680 41 1738 100 q 1489 -18 1622 -18 q 1300 48 1351 -18 q 1271 276 1249 114 q 1351 494 1293 435 q 1540 553 1408 553 m 989 418 q 933 390 947 418 q 906 258 918 361 q 899 142 892 168 q 944 117 907 117 q 1001 145 986 117 q 1029 276 1017 174 q 1033 392 1040 367 q 989 418 1025 418 m 1538 418 q 1481 390 1496 418 q 1453 258 1467 361 q 1448 142 1440 168 q 1492 117 1456 117 q 1550 145 1535 117 q 1578 276 1565 174 q 1581 392 1589 367 q 1538 418 1574 418 z "},"‹":{"ha":436,"x_min":31,"x_max":399,"o":"m 399 564 l 256 349 l 357 125 l 226 39 l 31 322 l 35 376 l 268 650 l 399 564 z "},"›":{"ha":435,"x_min":19,"x_max":388,"o":"m 388 368 l 383 313 l 149 39 l 19 125 l 163 340 l 61 564 l 192 650 l 388 368 z "},"⁄":{"ha":222,"x_min":-301,"x_max":543,"o":"m -136 0 l -301 0 l 378 958 l 543 958 l -136 0 z "},"€":{"ha":888,"x_min":33,"x_max":886,"o":"m 82 649 l 176 649 q 331 897 224 818 q 635 975 438 975 q 886 939 772 975 l 854 758 q 749 764 824 763 q 615 761 674 765 q 514 729 551 754 q 454 649 476 704 l 743 649 l 710 507 l 61 507 l 82 649 m 654 317 l 404 317 q 514 193 414 204 q 785 208 621 181 l 796 24 q 524 -17 682 -17 q 238 65 333 -17 q 135 317 143 147 l 33 317 l 53 460 l 686 460 l 654 317 z "},"™":{"ha":1369,"x_min":128,"x_max":1353,"o":"m 1136 967 l 1294 967 q 1340 949 1324 967 q 1353 901 1356 931 l 1304 439 l 1147 439 l 1186 838 l 1175 838 l 1083 572 q 1018 525 1069 525 l 924 525 q 879 540 896 525 q 861 582 863 556 l 842 838 l 828 838 l 757 439 l 599 439 l 683 911 q 702 954 689 942 q 743 967 715 967 l 899 967 q 941 951 925 967 q 958 908 957 935 l 975 715 q 972 628 976 676 l 983 628 q 1003 714 997 694 l 1069 918 q 1136 967 1083 967 m 457 835 l 400 439 l 228 439 l 283 835 l 128 835 l 146 967 l 631 967 l 613 835 l 457 835 z "},"∂":{"ha":810,"x_min":26,"x_max":783,"o":"m 208 810 l 217 978 q 412 974 328 982 q 567 944 496 967 q 682 884 639 922 q 754 787 725 846 q 783 647 783 728 q 767 461 783 567 q 610 90 719 197 q 322 -17 501 -17 q 185 6 244 -17 q 95 65 126 28 q 44 149 64 101 q 26 247 25 196 q 35 346 28 297 q 141 549 60 465 q 356 633 222 633 q 531 574 471 631 q 528 714 546 667 q 435 785 510 761 q 208 810 361 810 m 346 176 q 442 238 408 176 q 503 438 475 300 q 413 450 458 450 q 283 322 311 450 q 277 213 264 250 q 346 176 290 176 z "},"∅":{"ha":951,"x_min":79,"x_max":892,"o":"m 199 760 q 258 820 199 760 q 486 879 318 879 q 773 760 654 879 q 892 474 892 642 q 773 186 892 306 q 486 67 654 67 q 198 186 317 67 q 79 474 79 306 q 199 760 79 642 m 443 335 l 518 335 q 538 424 518 383 q 583 489 558 465 q 628 549 608 513 q 649 628 649 586 q 486 757 649 757 q 317 742 417 757 l 321 679 q 486 692 404 692 q 578 628 578 692 q 557 566 578 599 q 510 507 536 533 q 464 435 485 481 q 443 335 443 389 m 508 238 l 454 238 q 444 226 444 238 l 444 175 q 454 165 444 165 l 508 165 q 519 175 519 165 l 519 226 q 508 238 519 238 z "},"∏":{"ha":986,"x_min":71,"x_max":1026,"o":"m 1000 776 l 893 776 l 765 -129 l 513 -129 l 640 776 l 450 776 l 322 -129 l 71 -129 l 197 776 l 89 776 l 115 958 l 1026 958 l 1000 776 z "},"∑":{"ha":828,"x_min":-36,"x_max":849,"o":"m 824 781 l 396 781 l 535 451 l 275 -32 l 724 -32 l 699 -210 l -36 -210 l -12 -32 l 256 454 l 122 781 l 146 958 l 849 958 l 824 781 z "},"−":{"ha":796,"x_min":58,"x_max":736,"o":"m 708 314 l 58 314 l 86 499 l 736 499 l 708 314 z "},"√":{"ha":811,"x_min":51,"x_max":919,"o":"m 919 1217 l 463 7 q 450 0 460 0 l 151 0 q 137 5 144 0 q 131 15 129 10 l 51 690 l 250 690 l 306 160 l 324 160 l 714 1217 l 919 1217 z "},"∞":{"ha":1056,"x_min":51,"x_max":1008,"o":"m 815 633 q 966 577 908 633 q 1008 418 1024 521 q 925 263 994 318 q 761 208 856 208 q 522 321 629 208 q 385 235 443 263 q 256 208 328 208 q 97 269 158 208 q 51 438 36 331 q 130 584 64 535 q 290 633 196 633 q 535 513 424 633 q 622 577 589 556 q 707 616 656 599 q 815 633 758 633 m 231 422 q 244 375 226 392 q 293 361 263 358 q 435 432 358 365 q 321 479 392 479 q 231 422 239 479 m 826 421 q 772 479 833 479 q 721 468 747 479 q 678 445 694 457 q 633 408 663 433 q 625 401 628 404 q 729 361 668 361 q 826 421 817 361 z "},"∫":{"ha":490,"x_min":-61,"x_max":532,"o":"m 103 -60 l 156 811 q 212 946 161 900 q 340 992 263 992 q 532 986 472 992 l 499 804 l 424 804 q 368 746 374 804 l 314 -128 q 266 -267 308 -225 q 117 -308 224 -308 q -61 -301 -17 -308 l -29 -121 l 43 -121 q 103 -60 99 -121 z "},"≈":{"ha":811,"x_min":51,"x_max":758,"o":"m 243 424 l 90 433 q 131 610 78 553 q 279 660 185 668 q 417 628 317 657 q 540 597 517 600 q 586 608 574 593 q 603 658 599 624 l 758 647 q 719 476 768 533 q 568 422 671 418 q 431 453 529 424 q 306 483 332 482 q 260 474 272 488 q 243 424 249 460 m 206 146 l 51 156 q 94 333 42 275 q 242 382 147 390 q 379 351 279 379 q 503 319 479 322 q 540 324 526 317 q 558 344 553 332 q 565 381 563 357 l 719 369 q 682 197 731 256 q 531 144 633 139 q 391 174 490 146 q 267 206 292 203 q 222 194 233 208 q 206 146 210 181 z "},"≠":{"ha":846,"x_min":64,"x_max":783,"o":"m 783 654 l 757 469 l 106 469 l 132 654 l 444 654 l 535 846 l 674 781 l 611 654 l 783 654 m 92 360 l 743 360 l 715 175 l 381 175 l 292 -10 l 154 53 l 214 175 l 64 175 l 92 360 z "},"≤":{"ha":768,"x_min":11,"x_max":736,"o":"m 706 601 l 311 533 l 688 463 l 660 271 l 83 439 l 111 635 l 736 803 l 706 601 m 628 50 l 11 50 l 39 240 l 656 240 l 628 50 z "},"≥":{"ha":769,"x_min":40,"x_max":725,"o":"m 725 635 l 697 439 l 71 271 l 100 478 l 499 544 l 119 611 l 144 804 l 725 635 m 660 50 l 40 50 l 67 240 l 688 240 l 660 50 z "},"◊":{"ha":796,"x_min":44,"x_max":772,"o":"m 44 500 l 457 960 q 483 951 472 976 l 768 492 q 772 461 776 468 l 361 -3 q 335 7 343 -18 l 47 469 q 44 500 38 489 m 240 481 l 375 246 l 576 482 l 444 715 l 240 481 z "},"ﬁ":{"ha":965,"x_min":-139,"x_max":965,"o":"m 789 1011 l 896 1011 q 952 990 933 1011 q 965 932 971 969 l 956 860 q 933 806 950 822 q 879 790 917 790 l 771 790 q 715 811 733 790 q 701 869 696 832 l 713 942 q 734 995 717 979 q 789 1011 751 1011 m 929 690 l 833 0 l 581 0 l 654 532 l 403 532 l 317 -53 q 64 -268 286 -268 q -139 -250 8 -268 l -100 -93 l -22 -93 q 46 -76 25 -93 q 74 -8 67 -58 l 153 532 l 38 532 l 58 683 l 176 690 l 190 783 q 265 947 206 890 q 444 1003 325 1003 q 654 985 574 1003 l 621 829 l 531 829 q 462 809 483 829 q 433 739 440 789 l 426 690 l 929 690 z "},"ﬂ":{"ha":1025,"x_min":-135,"x_max":983,"o":"m 971 175 l 983 11 q 808 -18 929 -18 q 654 33 707 -18 q 613 174 601 85 l 707 832 l 528 832 q 460 810 483 832 q 431 739 438 789 l 424 690 l 588 690 l 565 532 l 401 532 l 321 -53 q 68 -268 290 -268 q -135 -250 10 -268 l -97 -93 l -19 -93 q 49 -76 28 -93 q 76 -8 69 -58 l 153 532 l 36 532 l 54 683 l 174 690 l 188 783 q 261 947 201 890 q 442 1003 321 1004 q 972 972 815 1003 l 874 229 q 879 186 869 197 q 922 175 889 175 l 971 175 z "}}}
